<?xml version="1.0" encoding="UTF-8"?>
<svg id="charges" xmlns="http://www.w3.org/2000/svg" xmlns:xlink="http://www.w3.org/1999/xlink" viewBox="0 0 400 400">
  <defs>
    <style>
      .cls-1, .cls-2, .cls-3, .cls-4, .cls-5, .cls-6, .cls-7, .cls-8, .cls-9, .cls-10, .cls-11, .cls-12, .cls-13 {
        stroke-linejoin: round;
      }

      .cls-1, .cls-2, .cls-3, .cls-4, .cls-5, .cls-6, .cls-7, .cls-9, .cls-10, .cls-11, .cls-13 {
        stroke: #231f20;
      }

      .cls-1, .cls-2, .cls-5, .cls-7, .cls-12, .cls-13 {
        stroke-linecap: round;
      }

      .cls-1, .cls-14 {
        fill: #a8c0b7;
      }

      .cls-15, .cls-7 {
        fill: #8e6d56;
      }

      .cls-16 {
        clip-path: url(#clippath-6);
      }

      .cls-17 {
        clip-path: url(#clippath-7);
      }

      .cls-18 {
        clip-path: url(#clippath-4);
      }

      .cls-19 {
        fill: #231f20;
      }

      .cls-2, .cls-20, .cls-11 {
        fill: #65553f;
      }

      .cls-3 {
        fill: #fff;
      }

      .cls-21 {
        clip-path: url(#clippath-9);
      }

      .cls-22 {
        clip-path: url(#clippath-10);
      }

      .cls-23 {
        fill: #ffda96;
      }

      .cls-4, .cls-24 {
        fill: #e7c6b8;
      }

      .cls-25, .cls-9 {
        fill: #f9ac1e;
      }

      .cls-26 {
        clip-path: url(#clippath-11);
      }

      .cls-27 {
        fill: #7ac260;
      }

      .cls-28 {
        fill: #453326;
      }

      .cls-5, .cls-6, .cls-8, .cls-12 {
        fill: none;
      }

      .cls-29 {
        clip-path: url(#clippath-1);
      }

      .cls-30 {
        fill: #b9a7a0;
      }

      .cls-31 {
        clip-path: url(#clippath-5);
      }

      .cls-32 {
        clip-path: url(#clippath-8);
      }

      .cls-8 {
        stroke: #e7c6b8;
      }

      .cls-33 {
        clip-path: url(#clippath-3);
      }

      .cls-10, .cls-34, .cls-13 {
        fill: #b2915b;
      }

      .cls-35 {
        clip-path: url(#clippath-2);
      }

      .cls-36 {
        fill: #c5892b;
      }

      .cls-12 {
        stroke: #cae8e1;
        stroke-width: 7px;
      }

      .cls-37 {
        fill: #998563;
      }

      .cls-38 {
        fill: #65493e;
      }

      .cls-39 {
        clip-path: url(#clippath);
      }
    </style>
    <clipPath id="clippath">
      <path class="cls-9" d="M275.71,210.57s5.41-7.6,9.74-16.17c4.33-8.57,6.47-24.97,6.47-24.97,0,0-5.24,5.83-7.59,6.7s-6.25,2.44-6.25,2.44c0,0,9.3-21.18,6.99-31.21-7.05-30.6-14.24-32.39-14.24-32.39,0,0,1.19,9.35.33,13.26-.86,3.91-6.42,9.63-6.42,9.63,0,0-.54-18.26-2.7-22.22-2.16-3.96-5.48-15.06-15.26-21.83-9.78-6.77-29.19-18.12-29.19-18.12,0,0,6.94,11.83,7.59,17.63.65,5.8,1.28,10.49,1.28,10.49,0,0-8.58-14.15-20.3-20.05-11.72-5.9-31.03-10.61-36.13-10.5s-17.96-.47-17.96-.47l20.7,24.81s-4.43-6.43-15.81-6.88c-4.49-.18-9.1-.2-13.69.07-2.34.14,17.06,10.25,14.74,10.56-4.66.62-27.43-1.52-31.83,0-10.88,3.76-34.26,10.27-34.26,10.27,0,0,6.33,5.42,10.71,8.71,4.38,3.28,16.18,13.5,16.18,13.5,0,0-5.84,1.89-11.38,4.69s-8.57,2.53-17.52,4.13c-8.95,1.6-19.64-3.35-19.64-3.35,0,0,1.85,13.89,3.94,18.11,2.09,4.22,12.31,22.12,19.28,21.16-7.45,1.79-22.26,10.96-24.55,32.37,4.2-2.21,26.81,2.02,26.81,2.02-4.74,6.05-14.41,21.03-12.8,37.93,5.2-1.26,18.24-6.1,30.52-3.15-3.42,6.6-8.03,14.64-6.15,26.29,7.69-4.68,12.42-9.24,23.23-8.85-1.19,8.44-4.78,12.05-3.06,17.48,4.27-3.93,14.63-4.88,18.47-5.63,3.83-.75,23.08,6.45,23.08,6.45l49.38-23.94,48.85-33.75,8.45-15.23Z"/>
    </clipPath>
    <clipPath id="clippath-1">
      <path class="cls-4" d="M260.46,289.03l-2.12,15.94s2,13.81-.52,15.4-12.69,6.67-18.03,7.06c-5.34.39-15.1,1.73-16.79.8-1.7-.92-13.83-6.65-18.25-10.6-4.42-3.95-23.68-18.4-24.29-19.75-.61-1.35-7.4-7.92-7.4-7.92l-9.49-19.98s-2.53,8.02-12.17,6.66c-3.6-.51-4.85-2.91-7.64-5.09-4.68-3.67-10.08-8.03-11.78-11.18-3.2-5.91-4.02-14.04-3.28-18.6.89-5.5,6.39-9.54,10.28-8.88,3.89.66,18.85,9.65,18.85,9.65l-1.32-18.17v-13.48l-7.12-8.45s-4.78-10.03-1.8-16.63c2.98-6.6,7.4-11.92,11.8-17.3,4.41-5.38,13.87-7.23,17.18-7.37,3.31-.14,15.58,1.24,21.89,2.9,6.31,1.66,20.98,6.44,20.98,6.44l15.9-13.14s6.38,2.23,12.99,8.26c6.61,6.03,9.78,12.67,11,17.94,1.22,5.27,5.87,17.99,3.88,22.77-1.62,3.88,1.29,26.68,1.29,26.68l.64,3.12s4.53,7.01,3.9,12.89c-.63,5.88-4.35,13.62-4.35,13.62,0,0-2.57,15.76-3.35,20.87-.78,5.11-.88,5.55-.88,5.55Z"/>
    </clipPath>
    <clipPath id="clippath-2">
      <path class="cls-9" d="M243.54,256.61l24.76-5.89-4.28,5.09s7.41-.9,10.58-2.39,7.83-5.16,7.83-5.16c0,0,.57,3.38-.16,5.61s-3.17,5.08-3.17,5.08l18.73-8.64s-1.56,7.63-4.32,11.49c-2.76,3.86-8.29,6.12-8.29,6.12,0,0,2.66,1.85,5.85,2.69s8.88,2.95,8.88,2.95c0,0-3.66,4.05-8.42,5.65s-12.84-.52-12.84-.52l7.76,7.81s-8.59-.79-11.48-1.67-8.94-3.33-8.94-3.33l5.86,7.91s-6.19-1.72-9.27-3.38-9.55-6.35-9.55-6.35l4.8,6.14-20.27-6.92-19.07,11.66-.23-7.74-18.54,14.42,1.53-7.56s-7.66,8.66-12.42,11.39c-4.75,2.73-14.36,3.95-14.36,3.95l8.16-10.4s-3.69,4.05-12.73,4.77-16.97-2.52-16.97-2.52l19.75-11.38s-4.52-.9-7.03-1.56c-2.51-.67-9.82-6.25-9.82-6.25l26.92-4.07-10.83-7.52s13.78,3.64,18.59,2.33,8.95-2.6,8.95-2.6l-10.88-4.6,40.6-1.6,14.31-3.01Z"/>
    </clipPath>
    <clipPath id="clippath-3">
      <path class="cls-4" d="M218.5,243.88c-1.62-3.1,2.62-10.82,2.62-10.82.09-4.95,10.18-4.66,10.18-4.66,3.16,1.14,10.58,9.82,12.1,13.87,1.52,4.06,7.1,15.55,7.31,17.01.21,1.46-3.24,8.09-4.41,8.73s-8.89,1.1-10.07.43-10.88-8.42-12.12-8.64-8.33.52-8.58-.24c-.26-.76-1.74-5.23.37-7.08,2.11-1.86,6.38-2.92,8.02-2.49"/>
    </clipPath>
    <clipPath id="clippath-4">
      <path class="cls-9" d="M218.43,207.15c-.67.78-1.33,4.39-2.85,3.7-4.93-2.25-16.56-6.51-17.98-7.05-1.85-.7-9.21-3.59-12.83-3.21-3.63.38-16.19,1.99-16.55,1.45s-.93-1.76-.08-3.34c.85-1.58,6.12-3.41,8.36-4.27-1.64.33-7.27.27-7.19-.36.22-1.67.83-3.16,4.65-4.94,3.82-1.78,7.62.08,9.65,1.02-1.98-1.57-2.74-2.28-6.04-3.57,3.76-1.29,7.02-.3,9.88,1.27,2.86,1.57,7.64,3.87,7.64,3.87,0,0-2.27-3.22-1.56-3.76s4.38,2.46,5.68,3.73c1.3,1.27,15.48,15.46,15.48,15.46,0,0,4.41-.78,3.74,0Z"/>
    </clipPath>
    <clipPath id="clippath-5">
      <path class="cls-9" d="M236.61,210.12s.96.95,2.58-2.47c1.62-3.42,13.89-12.74,18.1-14.24,4.2-1.5,7.17-1.48,13.75,2.81-.87-3.97-2.81-7.04-5.58-7.32,3.52-.33,7.45-.6,7.45-.6-2.14-1.82-4.1-5.15-10.62-4.46,2.16-2.89,3.27-5.27,3.27-5.27-4.96.21-10.63,2.26-14.17,7.96.67-3.19,2.45-5.81,2.91-6.38-1.59.73-9.72,5.43-12.11,12.38s-6.17,10.66-5.58,17.59Z"/>
    </clipPath>
    <clipPath id="clippath-6">
      <path class="cls-7" d="M269.86,245.94c-2.06,1.71-12.14,1.65-12.14,1.65-11.16,0-20.21-10.02-20.21-22.37s9.05-22.37,20.21-22.37c0,0,3-.77,5.78-.56,2.78.22,11.92,15.65,11.72,22.37-.19,6.72-3.3,19.57-5.36,21.28Z"/>
    </clipPath>
    <clipPath id="clippath-7">
      <path class="cls-7" d="M201.83,209.35s-18.47,1.63-24.41,4.97c-5.93,3.34-13.25,11.2-13.25,11.2v16.03s14,13.62,21.6,14.19c7.6.57,19.05-.35,19.05-.35l7.75-24.2-10.75-21.85Z"/>
    </clipPath>
    <clipPath id="clippath-8">
      <path class="cls-2" d="M230.51,219.4c3.18-.38,9.59-.23,9.53.77-.06,1,0,9.98,0,9.98,0,0-5.68-1.77-8.48-1.38-2.79.38-8.32,2.46-8.32,2.46-.38-4.76-2.05-8.76-.68-9.68,2.52-1.08,7.95-2.15,7.95-2.15Z"/>
    </clipPath>
    <clipPath id="clippath-9">
      <polygon class="cls-11" points="166.57 243.06 156.59 241.36 155.93 224.66 165.96 223.81 166.57 243.06"/>
    </clipPath>
    <clipPath id="clippath-10">
      <path class="cls-11" d="M155.93,224.66l.66,16.7-8.4-4.32-9.21-4.16,2.8-3.65s3.82-1.55,6.21-2.56c2.39-1.01,7.94-2.01,7.94-2.01Z"/>
    </clipPath>
    <clipPath id="clippath-11">
      <polygon class="cls-10" points="169.21 227.3 166.57 225.97 162.16 227.09 162.88 240.43 167.14 240.26 170.4 239.59 169.21 227.3"/>
    </clipPath>
  </defs>
  <g>
    <g>
      <path class="cls-25" d="M275.71,210.57s5.41-7.6,9.74-16.17c4.33-8.57,6.47-24.97,6.47-24.97,0,0-5.24,5.83-7.59,6.7s-6.25,2.44-6.25,2.44c0,0,9.3-21.18,6.99-31.21-7.05-30.6-14.24-32.39-14.24-32.39,0,0,1.19,9.35.33,13.26-.86,3.91-6.42,9.63-6.42,9.63,0,0-.54-18.26-2.7-22.22-2.16-3.96-5.48-15.06-15.26-21.83-9.78-6.77-29.19-18.12-29.19-18.12,0,0,6.94,11.83,7.59,17.63.65,5.8,1.28,10.49,1.28,10.49,0,0-8.58-14.15-20.3-20.05-11.72-5.9-31.03-10.61-36.13-10.5s-17.96-.47-17.96-.47l20.7,24.81s-4.43-6.43-15.81-6.88c-4.49-.18-9.1-.2-13.69.07-2.34.14,17.06,10.25,14.74,10.56-4.66.62-27.43-1.52-31.83,0-10.88,3.76-34.26,10.27-34.26,10.27,0,0,6.33,5.42,10.71,8.71,4.38,3.28,16.18,13.5,16.18,13.5,0,0-5.84,1.89-11.38,4.69s-8.57,2.53-17.52,4.13c-8.95,1.6-19.64-3.35-19.64-3.35,0,0,1.85,13.89,3.94,18.11,2.09,4.22,12.31,22.12,19.28,21.16-7.45,1.79-22.26,10.96-24.55,32.37,4.2-2.21,26.81,2.02,26.81,2.02-4.74,6.05-14.41,21.03-12.8,37.93,5.2-1.26,18.24-6.1,30.52-3.15-3.42,6.6-8.03,14.64-6.15,26.29,7.69-4.68,12.42-9.24,23.23-8.85-1.19,8.44-4.78,12.05-3.06,17.48,4.27-3.93,14.63-4.88,18.47-5.63,3.83-.75,23.08,6.45,23.08,6.45l49.38-23.94,48.85-33.75,8.45-15.23Z"/>
      <g class="cls-39">
        <path class="cls-36" d="M251.2,168.5s5.9-7.54,7.74-13.49c1.84-5.95,1.32-13.81,1.32-13.81,0,0-3.32,11.05-6.17,14.23-2.85,3.18-6.53,4.52-6.53,4.52v-5.1l-3.52,2.51s3.16-6.11,3.25-14.32c.1-8.2-3.08-10.38-3.08-10.38,0,0-1.84,12.05-4.35,16.07-2.51,4.02-6.45,6.7-6.45,6.7,0,0,2.76-9.71,2.43-16.07-.33-6.36-4.03-18.75-13.57-24.94,4.36,7.37,8.38,13.23,7.21,25.61-1.17,12.39-3.35,17.33-3.35,17.33,0,0,2.01-14.15-.33-24.53-1.51,14.73-3,28.15-6.35,33.15-3.02-3.85-7.54-14.56-19.93-23.27-12.39-8.71-23.5-11.38-23.5-11.38l20.19,21.26-5.73-2.68,7.87,7.45s-44.36-15.49-68.64-4.94c9.38,1.67,25.11,8.04,28.79,12.72-9.38,2.51-23.02,4.19-31.68,3.68,6.4,4.35,12.43,4.69,12.43,4.69l-12.43,2.85,20.78,9.46,21.45,4.1,82.16-21.41Z"/>
        <path class="cls-36" d="M160.01,213.68s-12.72-5.04-21.76-4.7-15.23,3.69-15.23,3.69l5.86,1.84-31.81,13.73s4.85-10.38,11.05-16.24c6.19-5.86,16.07-11.22,16.07-11.22,0,0-22.77-4.19-41.69-.84,6.53-7.7,18.42-17.75,28.96-20.09-8.54-4.02-11.22-7.87-11.22-7.87l12.89-5.52s-17.91-2.51-24.78-8.37c-6.86-5.86-18.08-18.81-18.08-18.81l-24.44-11.66-.67,88.03,9.38,74.86,53.74,15.3,34.92-14.96,39.07-4.02.97-24.11-22.9-25.2-.33-23.85Z"/>
        <path class="cls-36" d="M136.9,131.31s-24.67-17.8-44.98-19.7c-14.12,9.32-3.07,21.54-3.07,21.54l29.97.67s8.71-4.35,18.08-2.51Z"/>
        <path class="cls-36" d="M143.27,90.79s33.31,11.9,44.52,20.1c-7.2-16.41-19.2-32.03-35.72-38.11-16.51-6.08-8.8,18.01-8.8,18.01"/>
        <path class="cls-36" d="M220.88,81.79s14.29,10.68,12.45,29.27c-.17.17-6.86-7.25-6.86-7.25l-10.21-17.86,4.63-4.15Z"/>
        <path class="cls-36" d="M285.45,183.27s-18.04,35.78-23.97,40.21-17.96-7.82-17.96-7.82l6.69-19.89s20.96-1.56,35.24-12.5Z"/>
        <path class="cls-36" d="M258.67,188.62s15.31-8.93,14.24-28.35c-5.54,13.39-18.61,19.87-18.61,19.87l-7.5,14.26,11.87-5.78Z"/>
        <path class="cls-23" d="M275.71,210.57s11.17-25.07,13.37-34.14c0,0-10.73,7.06-14.74,6.84.18-4.74,7.16-16.46,6.77-29.69-.39-13.23-6.77-27.12-6.77-27.12l-8.19-18.08,17.41-9.21,35.49,40.18-24.27,55.05-11.05,20.11-8.01-3.94"/>
        <path class="cls-23" d="M264.74,137.85l-1.95,4.51v-10.88s-3.18-21.26-11.89-29.3c-8.71-8.04-30.13-22.94-30.13-22.94v3.35l-7.87-4.52-6.86-10.55h12.46l18.05,14.26,31.77,20.39-3.01,29.8-.56,5.87Z"/>
        <path class="cls-23" d="M233.33,111.06s-19.31-19.42-35.27-26.23c-15.96-6.81-39.17-8.88-39.17-8.88l-13.29-6.19-1.34-5.47s43.3,1.23,44.53,1.23,15.18,8.71,15.18,8.71l8.37,9.15,12.53,18.64,8.46,9.04Z"/>
        <path class="cls-23" d="M158.01,101.35l3.78,2.12s-25.78-.45-33.26.45-28.46,8.48-28.46,8.48l-15.33-.78,26.08-16.96h27.87l19.33,6.7Z"/>
        <path class="cls-23" d="M127.3,133.82s-6.81-.11-14.73,1.12c-7.92,1.23-39.96-.56-39.96-.56l-5.36,1.45s8.04,9.93,14.51,10.27,18.64.67,26.12-3.91,11.83-8.59,19.42-8.37Z"/>
        <path class="cls-23" d="M138.81,187.64s-15.63-2.9-20.82-.99c-5.19,1.91-11.72,5.93-11.72,5.93,0,0,8.2,3.47,15.57,1.82,7.37-1.65,16.97-6.76,16.97-6.76Z"/>
        <path class="cls-23" d="M225.97,128.13s-1.51-9.21-9.88-16.24c1.34,8.54,0,16.24,0,16.24,0,0-12.89-12.89-20.76-18.75-7.87-5.86,4.19,5.86,6.03,19.92-5.36-6.19-13.41-11.72-12.82-7.53s18.01,14.56,17.17,20.59c1.67-8.87,2.34-13.9-1-19.25,4.52,4.02,7.29,10.71,8.17,13.9.04-3.52,0-6.86,0-6.86,0,0,1.71,1.17,3.89,7.87,2.18,6.7,1.74,5.69,1.74,5.69l.94-10.88,2.83,8.2s2.35-9.38-.33-16.57c2.18,4.52,3.85,8.37,3.85,8.37l.17-4.69Z"/>
        <path class="cls-23" d="M157.66,128.8s26.32,10.04,17.68,9.04-21.2-2.18-16.17-.67c5.02,1.51,18.5,6.86,13.02,5.86-5.48-1-9.84-1.67-7.49-.33s-1.17.5-3.35-.33c-2.18-.84-9.21-2.85-9.21-2.85l6.36.17s-14.01-7.53-9.1-6.7c4.91.84,15.96,1.84,11.94.5s-11.72-6.7-3.68-4.69Z"/>
        <path class="cls-23" d="M255.93,148.56c1.42-3.31,5.02-13.39-.5-26.28-1,12.39-3.68,20.42-3.68,20.42,0,0,2.85-13.73-3.18-26.12-1.17,11.89-1.77,15.07-1.77,15.07,0,0,3.44,2.33,2.1,11.79-1.34,9.47-1,7.46-1,7.46l2.68-6.53s2.85,1.51-.5,11.55c1.01-1.31,4.44-4.06,5.86-7.37Z"/>
      </g>
      <path class="cls-6" d="M275.71,210.57s5.41-7.6,9.74-16.17c4.33-8.57,6.47-24.97,6.47-24.97,0,0-5.24,5.83-7.59,6.7s-6.25,2.44-6.25,2.44c0,0,9.3-21.18,6.99-31.21-7.05-30.6-14.24-32.39-14.24-32.39,0,0,1.19,9.35.33,13.26-.86,3.91-6.42,9.63-6.42,9.63,0,0-.54-18.26-2.7-22.22-2.16-3.96-5.48-15.06-15.26-21.83-9.78-6.77-29.19-18.12-29.19-18.12,0,0,6.94,11.83,7.59,17.63.65,5.8,1.28,10.49,1.28,10.49,0,0-8.58-14.15-20.3-20.05-11.72-5.9-31.03-10.61-36.13-10.5s-17.96-.47-17.96-.47l20.7,24.81s-4.43-6.43-15.81-6.88c-4.49-.18-9.1-.2-13.69.07-2.34.14,17.06,10.25,14.74,10.56-4.66.62-27.43-1.52-31.83,0-10.88,3.76-34.26,10.27-34.26,10.27,0,0,6.33,5.42,10.71,8.71,4.38,3.28,16.18,13.5,16.18,13.5,0,0-5.84,1.89-11.38,4.69s-8.57,2.53-17.52,4.13c-8.95,1.6-19.64-3.35-19.64-3.35,0,0,1.85,13.89,3.94,18.11,2.09,4.22,12.31,22.12,19.28,21.16-7.45,1.79-22.26,10.96-24.55,32.37,4.2-2.21,26.81,2.02,26.81,2.02-4.74,6.05-14.41,21.03-12.8,37.93,5.2-1.26,18.24-6.1,30.52-3.15-3.42,6.6-8.03,14.64-6.15,26.29,7.69-4.68,12.42-9.24,23.23-8.85-1.19,8.44-4.78,12.05-3.06,17.48,4.27-3.93,14.63-4.88,18.47-5.63,3.83-.75,23.08,6.45,23.08,6.45l49.38-23.94,48.85-33.75,8.45-15.23Z"/>
    </g>
    <g>
      <path class="cls-24" d="M260.46,289.03l-2.12,15.94s2,13.81-.52,15.4-12.69,6.67-18.03,7.06c-5.34.39-15.1,1.73-16.79.8-1.7-.92-13.83-6.65-18.25-10.6-4.42-3.95-23.68-18.4-24.29-19.75-.61-1.35-7.4-7.92-7.4-7.92l-9.49-19.98s-2.53,8.02-12.17,6.66c-3.6-.51-4.85-2.91-7.64-5.09-4.68-3.67-10.08-8.03-11.78-11.18-3.2-5.91-4.02-14.04-3.28-18.6.89-5.5,6.39-9.54,10.28-8.88,3.89.66,18.85,9.65,18.85,9.65l-1.32-18.17v-13.48l-7.12-8.45s-4.78-10.03-1.8-16.63c2.98-6.6,7.4-11.92,11.8-17.3,4.41-5.38,13.87-7.23,17.18-7.37,3.31-.14,15.58,1.24,21.89,2.9,6.31,1.66,20.98,6.44,20.98,6.44l15.9-13.14s6.38,2.23,12.99,8.26c6.61,6.03,9.78,12.67,11,17.94,1.22,5.27,5.87,17.99,3.88,22.77-1.62,3.88,1.29,26.68,1.29,26.68l.64,3.12s4.53,7.01,3.9,12.89c-.63,5.88-4.35,13.62-4.35,13.62,0,0-2.57,15.76-3.35,20.87-.78,5.11-.88,5.55-.88,5.55Z"/>
      <g class="cls-29">
        <path class="cls-30" d="M230.77,328.45s-5.59-5.12-9.05-9.08c-3.46-3.96-20.96-9.98-23.76-13.67s-9.61-7.82-13.07-12.28c-3.46-4.46-9.04-11.5-9.04-11.5,0,0-3.32-9.94-3.67-13.51-.35-3.57-.57-8.03-.57-8.03,0,0-3.13-2.34-5.25-8.04-2.12-5.69-1.09-9.51-1.09-9.51,0,0,1.43-20.29,2.99-24.87,1.56-4.58,3.92-11.61,3.92-11.61,0,0-3.92-7.14-3.03-14.17.89-7.03.84-21.54,9.35-24.33,8.51-2.79,17.02-2.57,22.86-1.12s18.08,3.63,18.08,3.63l-20.27-9.77-32.48-3.37-23.51,15.2s-8.19,28.24-8.41,28.68-6.7,29.22-6.7,29.22l-4.24,17.8,5.02,15.25,7.27,8.04,10.36,17.86,27.57,21.43,37.26,19.75,16.2.22,3.24-2.25Z"/>
        <path class="cls-8" d="M264.58,246.12s-1.56,5.78-5.92,5.78-9.04.11-9.71-1.79c-.67-1.9-2.16-5.48-2.16-5.48,0,0,5.51,4.74,17.79,1.48Z"/>
        <path class="cls-30" d="M226.17,307.88s9.48,6.28,14.3,5.11c4.82-1.17,8.38-7.05,8.38-7.05l-9.49,3.2-13.19-1.26Z"/>
        <path class="cls-30" d="M216.15,196.84s6.61,4.38,9.98,3.56c3.37-.82,5.85-4.92,5.85-4.92l-6.62,2.24-9.21-.88Z"/>
        <path class="cls-30" d="M211,190.7s7.64,3.3,15.14,2.65,10.35-6.42,10.35-6.42c0,0-6.18,4.25-11.09,4.59s-14.39-.82-14.39-.82Z"/>
      </g>
      <path class="cls-6" d="M260.46,289.03l-2.12,15.94s2,13.81-.52,15.4-12.69,6.67-18.03,7.06c-5.34.39-15.1,1.73-16.79.8-1.7-.92-13.83-6.65-18.25-10.6-4.42-3.95-23.68-18.4-24.29-19.75-.61-1.35-7.4-7.92-7.4-7.92l-9.49-19.98s-2.53,8.02-12.17,6.66c-3.6-.51-4.85-2.91-7.64-5.09-4.68-3.67-10.08-8.03-11.78-11.18-3.2-5.91-4.02-14.04-3.28-18.6.89-5.5,6.39-9.54,10.28-8.88,3.89.66,18.85,9.65,18.85,9.65l-1.32-18.17v-13.48l-7.12-8.45s-4.78-10.03-1.8-16.63c2.98-6.6,7.4-11.92,11.8-17.3,4.41-5.38,13.87-7.23,17.18-7.37,3.31-.14,15.58,1.24,21.89,2.9,6.31,1.66,20.98,6.44,20.98,6.44l15.9-13.14s6.38,2.23,12.99,8.26c6.61,6.03,9.78,12.67,11,17.94,1.22,5.27,5.87,17.99,3.88,22.77-1.62,3.88,1.29,26.68,1.29,26.68l.64,3.12s4.53,7.01,3.9,12.89c-.63,5.88-4.35,13.62-4.35,13.62,0,0-2.57,15.76-3.35,20.87-.78,5.11-.88,5.55-.88,5.55Z"/>
    </g>
    <path class="cls-5" d="M167.55,256.82s6.23,10.4,17.83,15.17"/>
    <path class="cls-6" d="M226.17,307.88s7.5,1.74,15.13.61,7.55-3.82,7.55-3.82"/>
    <g>
      <path class="cls-3" d="M250.49,287.17l2.23,2.09s-7.44,6.33-18.63,8.02c-11.19,1.69-25.03-5.34-25.03-5.34l4.19-3.68-2.68-13.31,40.99-.91-1.07,13.13Z"/>
      <path class="cls-19" d="M250.24,283.49c-5.36,1.89-12.85,3.1-12.85,3.1,0,0-3.41.76-9.08.71-4.79-.04-11.45-.42-14.57-.92,0,0-1.1-1.04-1.22-.58s.73,2.46.73,2.46l-1.77,1.63c6.79-1.32,15.49-1.49,22.38-1.74,4.22-.72,10.38-1.72,14.67-1.94,1.43-.06,1.96.96,1.96.96l.53-4.86-.78,1.17Z"/>
    </g>
    <g>
      <path class="cls-25" d="M243.54,256.61l24.76-5.89-4.28,5.09s7.41-.9,10.58-2.39,7.83-5.16,7.83-5.16c0,0,.57,3.38-.16,5.61s-3.17,5.08-3.17,5.08l18.73-8.64s-1.56,7.63-4.32,11.49c-2.76,3.86-8.29,6.12-8.29,6.12,0,0,2.66,1.85,5.85,2.69s8.88,2.95,8.88,2.95c0,0-3.66,4.05-8.42,5.65s-12.84-.52-12.84-.52l7.76,7.81s-8.59-.79-11.48-1.67-8.94-3.33-8.94-3.33l5.86,7.91s-6.19-1.72-9.27-3.38-9.55-6.35-9.55-6.35l4.8,6.14-20.27-6.92-19.07,11.66-.23-7.74-18.54,14.42,1.53-7.56s-7.66,8.66-12.42,11.39c-4.75,2.73-14.36,3.95-14.36,3.95l8.16-10.4s-3.69,4.05-12.73,4.77-16.97-2.52-16.97-2.52l19.75-11.38s-4.52-.9-7.03-1.56c-2.51-.67-9.82-6.25-9.82-6.25l26.92-4.07-10.83-7.52s13.78,3.64,18.59,2.33,8.95-2.6,8.95-2.6l-10.88-4.6,40.6-1.6,14.31-3.01Z"/>
      <g class="cls-35">
        <path class="cls-36" d="M275.74,271.55s7.03,4.02,11.61,3.91c-6.47,1-10.6-.33-10.6-.33l-4.35-3.13,3.35-.45Z"/>
        <path class="cls-36" d="M272.95,275.45l11.05,12.33s-5.13,1.18-9.15-.95-8.81-5.33-8.81-5.33l-4.56-4.47s1.69,7.39,4.57,10.49c-5.18-.98-12.97-7.83-12.97-7.83l-3.46-3.57,4.1,8.29,3.16,5.33-18.64-7.48-22.21,13.17.99-9.04-16.5,14.51,1.17-5.15s4.07-6.9,5.97-9.47c1.9-2.57,11.78-11.16,11.78-11.16v5.02l2.83-3.1v4s5.89-7.03,5.8-8.93c-.1-1.9-4.41-7.57-4.41-7.57l-7.64-3.83,15.08-3.81,12.38,3.72,4.06,10.35,1.75-3.54s7.14,7.97,8.37,9.28,1.23-3.15.22-4.26c-1-1.12-3.35-3.13-3.35-3.13,0,0,2.34-.22,3.68.45s5.36,4.13,8.59,4.46,6.14,1.23,6.14,1.23Z"/>
        <path class="cls-36" d="M195.61,296.66l9.71-10.71,3.24-7.81-20.98,15.18,1.23-7.48s-10.64,5.13-13.69,5.69c-3.05.56-2.05-1.56-2.05-1.56l-38.62,7.92-1.67,11.16,31.9,12.83,34.95-4.35-4.02-20.87Z"/>
        <path class="cls-36" d="M150.88,275.79s15.35,6.95,18.14,7.7c2.79.75,7.24.75,7.24.75l-3.53,1.26-15.9,1.42-4.77-3.43-1.17-7.7Z"/>
        <path class="cls-36" d="M168.04,264.24l15.63,7.09s2.7,1.22,2.52,1.31-3.39.99-3.39.99l-9.91-1.53-5.3-6.96.45-.89Z"/>
        <polygon class="cls-36" points="185.66 260.83 193.43 262.28 200.13 263.93 203.07 264.95 197.67 266.39 189.38 265.19 185.66 260.83"/>
        <path class="cls-23" d="M244.46,258.71l17.66-4.04-5.69,2.7s6.91,1.57,10.91.55c4-1.02,11.35-3.74,11.35-3.74l-7.19,7.29s9.2.86,12.88-1.01,11.47-5.8,11.47-5.8l9.88-8.52-8.79-5.36-13.73,1.15-28.18,6.88-9.74,4.11-.84,5.78Z"/>
        <path class="cls-23" d="M278.7,267.84s10.96,5.8,21.68,5.79c1.17-2.69-5.36-4.45-5.36-4.45l-6.28-.92-10.04-.42Z"/>
        <path class="cls-23" d="M233.15,260.81l-2.58-2.96-21.09-.72-23.6,1.93-26.71,4.44-7.28,10.56s6.89,4.59,16.25,4.34,20.24-3.18,20.24-3.18c0,0-14.15-.92-16.99-2.34-2.85-1.42-2.01-6.53-2.01-6.53l1-2.18s9.56,6.03,15.49,5.94c5.94-.08,18.02-3.52,18.02-3.52l-14.52-1.4-5.43-5.13s9.63,2.51,15.65,3.35c6.03.84,12.11,1.51,12.11,1.51l-5.5-2.18,10.13.08,11.38-1,5.42-1Z"/>
      </g>
      <path class="cls-6" d="M243.54,256.61l24.76-5.89-4.28,5.09s7.41-.9,10.58-2.39,7.83-5.16,7.83-5.16c0,0,.57,3.38-.16,5.61s-3.17,5.08-3.17,5.08l18.73-8.64s-1.56,7.63-4.32,11.49c-2.76,3.86-8.29,6.12-8.29,6.12,0,0,2.66,1.85,5.85,2.69s8.88,2.95,8.88,2.95c0,0-3.66,4.05-8.42,5.65s-12.84-.52-12.84-.52l7.76,7.81s-8.59-.79-11.48-1.67-8.94-3.33-8.94-3.33l5.86,7.91s-6.19-1.72-9.27-3.38-9.55-6.35-9.55-6.35l4.8,6.14-20.27-6.92-19.07,11.66-.23-7.74-18.54,14.42,1.53-7.56s-7.66,8.66-12.42,11.39c-4.75,2.73-14.36,3.95-14.36,3.95l8.16-10.4s-3.69,4.05-12.73,4.77-16.97-2.52-16.97-2.52l19.75-11.38s-4.52-.9-7.03-1.56c-2.51-.67-9.82-6.25-9.82-6.25l26.92-4.07-10.83-7.52s13.78,3.64,18.59,2.33,8.95-2.6,8.95-2.6l-10.88-4.6,40.6-1.6,14.31-3.01Z"/>
    </g>
    <g>
      <path class="cls-24" d="M218.5,243.88c-1.62-3.1,2.62-10.82,2.62-10.82.09-4.95,10.18-4.66,10.18-4.66,3.16,1.14,10.58,9.82,12.1,13.87,1.52,4.06,7.1,15.55,7.31,17.01.21,1.46-3.24,8.09-4.41,8.73s-8.89,1.1-10.07.43-10.88-8.42-12.12-8.64-8.33.52-8.58-.24c-.26-.76-1.74-5.23.37-7.08,2.11-1.86,6.38-2.92,8.02-2.49"/>
      <g class="cls-33">
        <path class="cls-30" d="M248.11,253.22s.63,9.95-2.83,10.06c-3.46.11-10.04.11-13.06-2.46-3.01-2.57-5.61-2.73-6.99-2.37s-2.95,4.94-2.95,4.94l10.87,8.93,17.58-1.67,4.01-8.93-4.01-7.25-2.61-1.25Z"/>
        <path class="cls-30" d="M226.47,233.16s4.19,9.48,4.07,11.15c-.11,1.67-.48,6.81-2.47,5.47-1.99-1.34-3.89-5.47-3.78-6.58s.22-7.59.89-8.59,1.28-1.44,1.28-1.44Z"/>
      </g>
      <path class="cls-6" d="M218.5,243.88c-1.62-3.1,2.62-10.82,2.62-10.82.09-4.95,10.18-4.66,10.18-4.66,3.16,1.14,10.58,9.82,12.1,13.87,1.52,4.06,7.1,15.55,7.31,17.01.21,1.46-3.24,8.09-4.41,8.73s-8.89,1.1-10.07.43-10.88-8.42-12.12-8.64-8.33.52-8.58-.24c-.26-.76-1.74-5.23.37-7.08,2.11-1.86,6.38-2.92,8.02-2.49"/>
    </g>
    <g>
      <g>
        <path class="cls-25" d="M218.43,207.15c-.67.78-1.33,4.39-2.85,3.7-4.93-2.25-16.56-6.51-17.98-7.05-1.85-.7-9.21-3.59-12.83-3.21-3.63.38-16.19,1.99-16.55,1.45s-.93-1.76-.08-3.34c.85-1.58,6.12-3.41,8.36-4.27-1.64.33-7.27.27-7.19-.36.22-1.67.83-3.16,4.65-4.94,3.82-1.78,7.62.08,9.65,1.02-1.98-1.57-2.74-2.28-6.04-3.57,3.76-1.29,7.02-.3,9.88,1.27,2.86,1.57,7.64,3.87,7.64,3.87,0,0-2.27-3.22-1.56-3.76s4.38,2.46,5.68,3.73c1.3,1.27,15.48,15.46,15.48,15.46,0,0,4.41-.78,3.74,0Z"/>
        <g class="cls-18">
          <path class="cls-36" d="M218.5,210.93s-9.17-3.41-12.89-6.11-7.63-3.45-9.41-4.03c-3.55-1.17-10.16-3.15-13.63-2.5s-16.29,3.09-16.29,3.09l.92,7.61,17.42-.83,26.39,5,7.5-2.22Z"/>
          <path class="cls-23" d="M220.83,206.2c0-2.02-.89,2.54-2.33,2.54s-4.48.65-7.05-2.28c-2.57-2.93-19.07-19.65-19.07-19.65l15.95,5.61,6.36,11.44s6.13,2.37,6.13,2.35Z"/>
          <polygon class="cls-23" points="190.7 187.4 195.26 192.36 187.91 190.07 184.22 187.84 177.57 186.58 174.63 183.86 183.44 184.83 190.7 187.4"/>
          <path class="cls-23" d="M174.63,187.06s7.92,3.57,7.25,4.58-5.8-1.34-7.25-.56-5.58,4.3-5.58,4.3l-3.74-2.96,5.6-5.92,3.72.56Z"/>
          <path class="cls-36" d="M176.5,194.42s-.43-.72-3.16-1.17-4.74-.84-4.74-.84l-2.72,1-.57,2.12,6.31-.28,4.89-.84"/>
          <path class="cls-23" d="M167.47,199.68s8.81-4.09,9.39-4.69-4.75.39-4.75.39l-4.86-.06-2.54,1.99"/>
        </g>
        <path class="cls-6" d="M218.43,207.15c-.67.78-1.33,4.39-2.85,3.7-4.93-2.25-16.56-6.51-17.98-7.05-1.85-.7-9.21-3.59-12.83-3.21-3.63.38-16.19,1.99-16.55,1.45s-.93-1.76-.08-3.34c.85-1.58,6.12-3.41,8.36-4.27-1.64.33-7.27.27-7.19-.36.22-1.67.83-3.16,4.65-4.94,3.82-1.78,7.62.08,9.65,1.02-1.98-1.57-2.74-2.28-6.04-3.57,3.76-1.29,7.02-.3,9.88,1.27,2.86,1.57,7.64,3.87,7.64,3.87,0,0-2.27-3.22-1.56-3.76s4.38,2.46,5.68,3.73c1.3,1.27,15.48,15.46,15.48,15.46,0,0,4.41-.78,3.74,0Z"/>
      </g>
      <g>
        <path class="cls-25" d="M236.61,210.12s.96.95,2.58-2.47c1.62-3.42,13.89-12.74,18.1-14.24,4.2-1.5,7.17-1.48,13.75,2.81-.87-3.97-2.81-7.04-5.58-7.32,3.52-.33,7.45-.6,7.45-.6-2.14-1.82-4.1-5.15-10.62-4.46,2.16-2.89,3.27-5.27,3.27-5.27-4.96.21-10.63,2.26-14.17,7.96.67-3.19,2.45-5.81,2.91-6.38-1.59.73-9.72,5.43-12.11,12.38s-6.17,10.66-5.58,17.59Z"/>
        <g class="cls-31">
          <path class="cls-36" d="M262.61,190.45s-6.19,1.35-8.29,2.44-12.2,9.36-12.2,9.36l-3.62,3.75-1.24,4.65,4.02-2.91,31.62-12.19-10.3-5.09Z"/>
          <path class="cls-23" d="M254.1,177.87s.74,1.03.08,3.26c-.33,1.11-5.02,3.94-5.45,4.42-4.75,5.27-7.53,12.14-7.53,12.14,0,0-7.53,14.4-5.41,6.12,2.12-8.27,4.13-16.98,4.13-16.98l7.59-6.92,6.6-2.04Z"/>
          <path class="cls-23" d="M251.39,186.52s9.99-6.41,12.16-6.33,5.56-2.06,5.56-2.06l-2.79-3.21-7.14,2.14-5.09,4.97-2.69,4.49Z"/>
          <path class="cls-23" d="M272.51,188.99s-4.77-3.93-6.53-4.1-4.99-.18-4.99-.18l1.3-.87s3.25-1.3,3.53-1.63,5.15.43,5.15.43l2.63,3.36.74,3.67-1.83.17v-.84Z"/>
          <polygon class="cls-36" points="268.4 189.64 264.61 188.84 263.5 187.67 272.91 187.02 278.93 190.19 274.04 190.19 268.4 189.64"/>
          <polygon class="cls-36" points="264.43 182.92 260.99 184.7 261.88 182.32 265.56 178.56 267.9 179.36 264.43 182.92"/>
        </g>
        <path class="cls-6" d="M236.61,210.12s.96.95,2.58-2.47c1.62-3.42,13.89-12.74,18.1-14.24,4.2-1.5,7.17-1.48,13.75,2.81-.87-3.97-2.81-7.04-5.58-7.32,3.52-.33,7.45-.6,7.45-.6-2.14-1.82-4.1-5.15-10.62-4.46,2.16-2.89,3.27-5.27,3.27-5.27-4.96.21-10.63,2.26-14.17,7.96.67-3.19,2.45-5.81,2.91-6.38-1.59.73-9.72,5.43-12.11,12.38s-6.17,10.66-5.58,17.59Z"/>
      </g>
    </g>
    <path class="cls-30" d="M217.51,257.48c2.2,1.16,6.6-1.88,6.6-1.88,0,0,7.12,2.25,7,1.28s.28-2.84-1.82-3.75-4.66-1.71-6.11-1.64-6.03,1.25-6.14,2.72c-.11,1.47.47,3.26.47,3.26Z"/>
    <path class="cls-5" d="M236.48,186.93s-3.26,5.86-10.76,6.45c-7.51.59-14.72-2.68-14.72-2.68"/>
    <path class="cls-5" d="M232.6,181.76s-3.58,4.87-8.34,5.24-9.65-3.83-9.65-3.83"/>
    <path class="cls-5" d="M144.84,245.13s-4.3,3.47-4.3,8.28.95,6.99.95,6.99"/>
    <path class="cls-5" d="M155.28,240.69s3.79,1.5,5.97,8.87"/>
    <g>
      <g>
        <path class="cls-15" d="M269.86,245.94c-2.06,1.71-12.14,1.65-12.14,1.65-11.16,0-20.21-10.02-20.21-22.37s9.05-22.37,20.21-22.37c0,0,3-.77,5.78-.56,2.78.22,11.92,15.65,11.72,22.37-.19,6.72-3.3,19.57-5.36,21.28Z"/>
        <g class="cls-16">
          <polygon class="cls-38" points="255.01 247.37 255.55 242.31 247.01 231.23 241.62 227.76 235.52 227.03 232.28 238.12 240.04 250.67 255.22 253.58 255.01 247.37"/>
        </g>
        <path class="cls-5" d="M269.86,245.94c-2.06,1.71-12.14,1.65-12.14,1.65-11.16,0-20.21-10.02-20.21-22.37s9.05-22.37,20.21-22.37c0,0,3-.77,5.78-.56,2.78.22,11.92,15.65,11.72,22.37-.19,6.72-3.3,19.57-5.36,21.28Z"/>
      </g>
      <ellipse class="cls-13" cx="263.5" cy="224.66" rx="20.21" ry="22.37"/>
      <g>
        <path class="cls-15" d="M201.83,209.35s-18.47,1.63-24.41,4.97c-5.93,3.34-13.25,11.2-13.25,11.2v16.03s14,13.62,21.6,14.19c7.6.57,19.05-.35,19.05-.35l7.75-24.2-10.75-21.85Z"/>
        <g class="cls-17">
          <path class="cls-38" d="M204.83,255.4s-14.82-10.55-19.62-11.01c-4.8-.45-13.62-1.26-18.14-4.69-4.52-3.43-5.94,5.37-5.94,5.37,0,0,9.15,13.32,9.7,13.91s27.63,4,27.63,4l6.36-7.59"/>
        </g>
        <path class="cls-5" d="M201.83,209.35s-18.47,1.63-24.41,4.97c-5.93,3.34-13.25,11.2-13.25,11.2v16.03s14,13.62,21.6,14.19c7.6.57,19.05-.35,19.05-.35l7.75-24.2-10.75-21.85Z"/>
      </g>
      <ellipse class="cls-13" cx="202.94" cy="232.38" rx="20.8" ry="23.02"/>
      <ellipse class="cls-1" cx="263.83" cy="224.66" rx="15.09" ry="16.71"/>
      <ellipse class="cls-1" cx="203.72" cy="231.9" rx="15.96" ry="17.67"/>
      <ellipse class="cls-14" cx="178.46" cy="220.97" rx="2.52" ry="1.9" transform="translate(-96.23 293.23) rotate(-65.81)"/>
      <ellipse class="cls-14" cx="180.02" cy="246.05" rx="1.9" ry="2.52" transform="translate(-107.6 144.94) rotate(-34.44)"/>
      <ellipse class="cls-14" cx="176.01" cy="233.75" rx="1.9" ry="2.52"/>
      <g>
        <path class="cls-20" d="M230.51,219.4c3.18-.38,9.59-.23,9.53.77-.06,1,0,9.98,0,9.98,0,0-5.68-1.77-8.48-1.38-2.79.38-8.32,2.46-8.32,2.46-.38-4.76-2.05-8.76-.68-9.68,2.52-1.08,7.95-2.15,7.95-2.15Z"/>
        <g class="cls-32">
          <path class="cls-28" d="M243.29,227.58s-5.92-4-11.73-3.73c-5.82.27-14.07,6.48-14.07,6.48l.62,13.38,25.19-6.31v-9.82Z"/>
        </g>
        <path class="cls-5" d="M230.51,219.4c3.18-.38,9.59-.23,9.53.77-.06,1,0,9.98,0,9.98,0,0-5.68-1.77-8.48-1.38-2.79.38-8.32,2.46-8.32,2.46-.38-4.76-2.05-8.76-.68-9.68,2.52-1.08,7.95-2.15,7.95-2.15Z"/>
      </g>
      <line class="cls-12" x1="206.44" y1="241.11" x2="210.16" y2="237.59"/>
      <line class="cls-12" x1="197.27" y1="233.43" x2="207.09" y2="222.7"/>
      <line class="cls-12" x1="266.54" y1="234.02" x2="270.27" y2="230.49"/>
      <line class="cls-12" x1="257.38" y1="226.34" x2="267.19" y2="215.6"/>
      <g>
        <polygon class="cls-20" points="166.57 243.06 156.59 241.36 155.93 224.66 165.96 223.81 166.57 243.06"/>
        <g class="cls-21">
          <polygon class="cls-28" points="171.33 237.22 154.17 234.53 152.3 240.84 156.55 243.55 169.98 243.55 171.33 237.22"/>
        </g>
        <polygon class="cls-6" points="166.57 243.06 156.59 241.36 155.93 224.66 165.96 223.81 166.57 243.06"/>
      </g>
      <g>
        <path class="cls-20" d="M155.93,224.66l.66,16.7-8.4-4.32-9.21-4.16,2.8-3.65s3.82-1.55,6.21-2.56c2.39-1.01,7.94-2.01,7.94-2.01Z"/>
        <g class="cls-22">
          <path class="cls-28" d="M156.34,234.97l-7.59-3.11-7.55-1.28-2.22,1.93-3.69,5.14s7.44,7,9.29,6.91,11.98-.55,11.98-.55l3.25-3.31-3.47-5.72Z"/>
        </g>
        <path class="cls-6" d="M155.93,224.66l.66,16.7-8.4-4.32-9.21-4.16,2.8-3.65s3.82-1.55,6.21-2.56c2.39-1.01,7.94-2.01,7.94-2.01Z"/>
      </g>
      <g>
        <polygon class="cls-34" points="169.21 227.3 166.57 225.97 162.16 227.09 162.88 240.43 167.14 240.26 170.4 239.59 169.21 227.3"/>
        <g class="cls-26">
          <polygon class="cls-37" points="172.15 236.48 167.37 238.57 166.28 225.97 164.66 224.69 162.01 226.95 162.56 241.79 171 241.79 174.36 240.02 172.15 236.48"/>
        </g>
        <polygon class="cls-6" points="169.21 227.3 166.57 225.97 162.16 227.09 162.88 240.43 167.14 240.26 170.4 239.59 169.21 227.3"/>
      </g>
    </g>
    <path class="cls-5" d="M135.16,247.34c0-.77,1.74-7.71,4.63-6.84s12.58,12.1,12.58,12.1v4.18s-3.61,2.51-3.33,5.4c.29,2.89,3.33,5.06,3.33,5.06"/>
  </g>
  <path class="cls-27" d="M205.61,44.29c85.99,0,155.71,69.71,155.71,155.71s-69.71,155.71-155.71,155.71S49.91,285.99,49.91,200,119.62,44.29,205.61,44.29M205.61,34.29c-44.26,0-85.87,17.24-117.17,48.53-31.3,31.3-48.53,72.91-48.53,117.17s17.24,85.87,48.53,117.17c31.3,31.3,72.91,48.53,117.17,48.53s85.87-17.24,117.17-48.53c31.3-31.3,48.53-72.91,48.53-117.17s-17.24-85.87-48.53-117.17-72.91-48.53-117.17-48.53h0Z"/>
  <path class="cls-27" d="M307.74,196.25c.95,1.86,1.8,3.56,2.53,5.12.73,1.56,1.43,3.11,2.1,4.67.67,1.56,1.38,3.17,2.15,4.85.76,1.68,1.62,3.59,2.58,5.75l16.15-53.14h13.43l-23.1,71.73h-11.91c-1.91-4.56-3.79-8.91-5.64-13.05-1.85-4.14-7.66-15.72-9.83-19.92l11.54-6Z"/>
</svg>