<?xml version="1.0" encoding="UTF-8"?>
<svg id="New_Here_Section" data-name="New Here Section" xmlns="http://www.w3.org/2000/svg" viewBox="0 0 50 50">
  <defs>
    <style>
      .cls-1 {
        fill: #f9ac1e;
      }
    </style>
  </defs>
  <path class="cls-1" d="M40.11,34.44V6.12h-23.92c-1.74,0-3.23.61-4.45,1.84-1.23,1.23-1.84,2.71-1.84,4.45v25.18c0,1.74.61,3.23,1.84,4.45,1.23,1.23,2.71,1.84,4.45,1.84h23.92v-3.15c-.81,0-1.48-.31-2.02-.94-.54-.62-.81-1.36-.81-2.21s.27-1.59.81-2.21c.54-.62,1.21-.94,2.02-.94ZM34.34,39.25c.14.53.34,1.03.59,1.49h-18.74c-.88,0-1.63-.3-2.23-.91s-.91-1.35-.91-2.23.3-1.61.91-2.23c.61-.61,1.35-.92,2.23-.92h18.77c-.28.46-.49.95-.63,1.48-.14.52-.21,1.08-.21,1.67s.07,1.13.21,1.66ZM35.74,28.17h-1.13c-1.33,0-2.42,1.2-2.42,2.67v1.13h-14.36v-1.13c0-1.47-1.09-2.67-2.42-2.67h-1.13v-15.19h1.13c1.34,0,2.42-1.2,2.42-2.67v-1.13h14.36v1.13c0,1.47,1.09,2.67,2.42,2.67h1.13v15.19ZM30.04,11.45h-10.08c-.4,1.79-1.73,3.21-3.43,3.65v10.95c1.7.44,3.03,1.86,3.43,3.65h10.08c.4-1.79,1.73-3.21,3.43-3.65v-10.95c-1.69-.44-3.03-1.86-3.43-3.65ZM25.3,22.85l-3.96.54,2.44-3.16,1.51-3.7,1.51,3.7,2.44,3.16-3.96-.54Z"/>
</svg>