<?xml version="1.0" encoding="UTF-8" standalone="no"?>
<!-- Created with Inkscape (http://www.inkscape.org/) -->

<svg
   width="3567.6101"
   height="1000"
   viewBox="0 0 943.93008 264.5833"
   version="1.1"
   id="svg8"
   inkscape:version="1.2.2 (b0a8486541, 2022-12-01)"
   sodipodi:docname="alchitry.svg"
   inkscape:export-filename="/tmp/logo.png"
   inkscape:export-xdpi="43.888885"
   inkscape:export-ydpi="43.888885"
   xmlns:inkscape="http://www.inkscape.org/namespaces/inkscape"
   xmlns:sodipodi="http://sodipodi.sourceforge.net/DTD/sodipodi-0.dtd"
   xmlns="http://www.w3.org/2000/svg"
   xmlns:svg="http://www.w3.org/2000/svg"
   xmlns:rdf="http://www.w3.org/1999/02/22-rdf-syntax-ns#"
   xmlns:cc="http://creativecommons.org/ns#"
   xmlns:dc="http://purl.org/dc/elements/1.1/">
  <sodipodi:namedview
     id="base"
     pagecolor="#303030"
     bordercolor="#666666"
     borderopacity="1.0"
     inkscape:pageopacity="1"
     inkscape:pageshadow="2"
     inkscape:zoom="0.22909224"
     inkscape:cx="2007.9248"
     inkscape:cy="611.10756"
     inkscape:document-units="in"
     inkscape:current-layer="layer7"
     showgrid="true"
     inkscape:window-width="1417"
     inkscape:window-height="1050"
     inkscape:window-x="3889"
     inkscape:window-y="81"
     inkscape:window-maximized="0"
     showguides="false"
     inkscape:snap-center="true"
     inkscape:snap-object-midpoints="true"
     units="px"
     inkscape:pagecheckerboard="false"
     fit-margin-left="1.5"
     fit-margin-top="1.5"
     fit-margin-bottom="1.5"
     fit-margin-right="1.5"
     inkscape:snap-others="false"
     inkscape:object-nodes="false"
     inkscape:showpageshadow="2"
     inkscape:deskcolor="#303030">
    <inkscape:grid
       id="grid4489"
       type="xygrid"
       originx="36.341916"
       originy="37.179662"
       visible="false" />
  </sodipodi:namedview>
  <defs
     id="defs2" />
  <metadata
     id="metadata5">
    <rdf:RDF>
      <cc:Work
         rdf:about="">
        <dc:format>image/svg+xml</dc:format>
        <dc:type
           rdf:resource="http://purl.org/dc/dcmitype/StillImage" />
      </cc:Work>
    </rdf:RDF>
  </metadata>
  <g
     transform="translate(36.341914,-29.379651)"
     id="layer1"
     inkscape:groupmode="layer"
     inkscape:label="Alchitry Text"
     style="display:inline" />
  <g
     inkscape:groupmode="layer"
     id="layer8"
     inkscape:label="dot"
     style="display:inline"
     transform="translate(36.484754,255.04073)" />
  <g
     inkscape:groupmode="layer"
     id="layer7"
     inkscape:label="Bob Mod 2"
     style="display:inline"
     transform="translate(36.484754,255.04073)">
    <g
       id="g175"
       transform="translate(3.7855468e-5,-20.108338)">
      <path
         id="path4771"
         style="font-style:normal;font-variant:normal;font-weight:normal;font-stretch:normal;font-size:medium;line-height:5.62255px;font-family:Ubuntu;-inkscape-font-specification:Ubuntu;letter-spacing:0px;word-spacing:0px;display:inline;fill:#ffffff;fill-opacity:1;stroke:none;stroke-width:5.05149px;stroke-linecap:butt;stroke-linejoin:miter;stroke-opacity:1"
         d="m 292.72103,263.98459 q -3.43502,-9.09298 -6.46591,-17.78137 -3.03089,-8.89044 -6.26385,-17.98342 h -63.44675 l -12.72977,35.76479 h -20.40803 q 8.0824,-22.2267 15.15448,-41.01819 7.07211,-18.99379 13.74007,-35.96663 6.87004,-16.97308 13.538,-32.32959 6.66797,-15.55857 13.94212,-30.71301 h 17.98331 q 7.27414,15.15444 13.94212,30.71301 6.66798,15.35651 13.33594,32.32959 6.87001,16.97284 13.94212,35.96663 7.07208,18.79149 15.15448,41.01819 z m -18.38743,-51.92936 q -6.46592,-17.57929 -12.93181,-33.94615 -6.26387,-16.5687 -13.13391,-31.72337 -7.07206,15.15467 -13.538,31.72337 -6.26382,16.36686 -12.52769,33.94615 z"
         inkscape:connector-curvature="0"
         transform="translate(-0.14284027,-284.42038)" />
      <path
         id="path4773"
         style="font-style:normal;font-variant:normal;font-weight:normal;font-stretch:normal;font-size:medium;line-height:5.62255px;font-family:Ubuntu;-inkscape-font-specification:Ubuntu;letter-spacing:0px;word-spacing:0px;display:inline;fill:#ffffff;fill-opacity:1;stroke:none;stroke-width:5.05149px;stroke-linecap:butt;stroke-linejoin:miter;stroke-opacity:1"
         d="m 363.26196,266.00508 q -17.37715,-0.40369 -24.65128,-7.47619 -7.27414,-7.07204 -7.27414,-22.02462 v -126.08519 l 18.79154,-3.23291 v 126.28725 q 0,4.64741 0.80805,7.67825 0.80829,3.03085 2.62677,4.84948 1.81841,1.81887 4.84944,2.82877 3.03089,0.80966 7.4762,1.4152 z"
         inkscape:connector-curvature="0"
         transform="translate(-0.14284027,-284.42038)" />
      <path
         id="path4775"
         style="font-style:normal;font-variant:normal;font-weight:normal;font-stretch:normal;font-size:medium;line-height:5.62255px;font-family:Ubuntu;-inkscape-font-specification:Ubuntu;letter-spacing:0px;word-spacing:0px;display:inline;fill:#ffffff;fill-opacity:1;stroke:none;stroke-width:5.05149px;stroke-linecap:butt;stroke-linejoin:miter;stroke-opacity:1"
         d="m 432.65684,266.40921 q -12.72976,0 -22.42863,-4.04119 -9.49681,-4.0412 -16.16477,-11.31531 -6.46592,-7.27411 -9.69888,-17.17514 -3.23293,-10.10289 -3.23293,-22.22671 0,-12.12336 3.435,-22.22647 3.63706,-10.10287 10.10297,-17.37699 6.46592,-7.47618 15.76067,-11.51737 9.49681,-4.24327 21.01419,-4.24327 7.0721,0 14.14419,1.21334 7.07208,1.21334 13.53799,3.83913 l -4.24326,15.96272 q -4.24322,-2.02072 -9.90092,-3.23292 -5.45561,-1.21335 -11.71946,-1.21335 -15.76064,0 -24.24713,9.90082 -8.28447,9.90081 -8.28447,28.89436 0,8.48677 1.81865,15.55881 2.02048,7.07203 6.06179,12.1236 4.24324,5.05155 10.70918,7.88032 6.46589,2.6267 15.76065,2.6267 7.47621,0 13.53801,-1.4152 6.06176,-1.41518 9.49679,-3.03107 l 2.62677,15.76066 q -1.61656,1.01149 -4.64736,2.0207 -3.03089,0.80966 -6.87004,1.4152 -3.83912,0.80966 -8.28445,1.21334 -4.24327,0.60552 -8.28443,0.60552 z"
         inkscape:connector-curvature="0"
         transform="translate(-0.14284027,-284.42038)" />
      <path
         id="path4777"
         style="font-style:normal;font-variant:normal;font-weight:normal;font-stretch:normal;font-size:medium;line-height:5.62255px;font-family:Ubuntu;-inkscape-font-specification:Ubuntu;letter-spacing:0px;word-spacing:0px;display:inline;fill:#ffffff;fill-opacity:1;stroke:none;stroke-width:5.05149px;stroke-linecap:butt;stroke-linejoin:miter;stroke-opacity:1"
         d="m 480.91753,263.98459 v -153.56551 l 18.79156,-3.23291 v 53.74799 q 5.25356,-2.02071 11.11328,-3.03083 6.06178,-1.21335 11.9215,-1.21335 12.52771,0 20.81218,3.63705 8.28444,3.43499 13.13388,9.90081 5.05148,6.26398 7.07206,15.15443 2.02048,8.89069 2.02048,19.59978 v 59.00163 h -18.79153 v -54.96043 q 0,-9.69874 -1.41427,-16.56871 -1.21243,-6.8702 -4.24324,-11.11347 -3.03089,-4.24326 -8.08238,-6.06167 -5.05148,-2.02071 -12.52771,-2.02071 -3.03089,0 -6.26387,0.40368 -3.23293,0.40369 -6.26382,1.0115 -2.82884,0.40368 -5.25356,1.01151 -2.22278,0.60552 -3.23296,1.0115 v 87.29 z"
         inkscape:connector-curvature="0"
         transform="translate(-0.14284027,-284.42038)" />
      <path
         style="font-style:normal;font-variant:normal;font-weight:normal;font-stretch:normal;font-size:medium;line-height:5.62255px;font-family:Ubuntu;-inkscape-font-specification:Ubuntu;letter-spacing:0px;word-spacing:0px;display:inline;fill:#ffffff;fill-opacity:1;stroke:none;stroke-width:5.05149px;stroke-linecap:butt;stroke-linejoin:miter;stroke-opacity:1"
         d="m 614.9498,161.80143 c -3.02856,0.84238 -6.21241,1.32752 -9.50592,1.32752 -3.22141,0 -6.32346,-0.47299 -9.2926,-1.2801 v 102.13566 h 18.79852 z"
         id="path4779"
         inkscape:connector-curvature="0"
         transform="translate(-0.14284027,-284.42038)" />
      <path
         id="path4781"
         style="font-style:normal;font-variant:normal;font-weight:normal;font-stretch:normal;font-size:medium;line-height:5.62255px;font-family:Ubuntu;-inkscape-font-specification:Ubuntu;letter-spacing:0px;word-spacing:0px;display:inline;fill:#ffffff;fill-opacity:1;stroke:none;stroke-width:5.05149px;stroke-linecap:butt;stroke-linejoin:miter;stroke-opacity:1"
         d="m 665.03811,158.91345 h 39.80573 v 15.76065 h -39.80573 v 48.49437 q 0,7.88033 1.21242,13.13372 1.21243,5.05178 3.63709,8.08263 2.42471,2.82877 6.06179,4.0412 3.63706,1.21333 8.48649,1.21333 8.48651,0 13.53803,-1.81886 5.25355,-2.02072 7.27413,-2.82877 l 3.63708,15.55834 q -2.82885,1.41519 -9.90093,3.43521 -7.07211,2.22486 -16.16476,2.22486 -10.70917,0 -17.78128,-2.6267 -6.87003,-2.829 -11.11325,-8.28447 -4.24327,-5.4557 -6.06182,-13.33579 -1.61657,-8.08263 -1.61657,-18.58965 v -93.75559 l 18.79153,-3.23315 z"
         inkscape:connector-curvature="0"
         transform="translate(-0.14284027,-284.42038)" />
      <path
         id="path4783"
         style="font-style:normal;font-variant:normal;font-weight:normal;font-stretch:normal;font-size:medium;line-height:5.62255px;font-family:Ubuntu;-inkscape-font-specification:Ubuntu;letter-spacing:0px;word-spacing:0px;display:inline;fill:#ffffff;fill-opacity:1;stroke:none;stroke-width:5.05149px;stroke-linecap:butt;stroke-linejoin:miter;stroke-opacity:1"
         d="m 767.55181,156.6909 q 2.42473,0 5.45564,0.40368 3.23295,0.20643 6.26383,0.80966 3.03089,0.40369 5.45561,1.0115 2.62677,0.40369 3.83915,0.80966 l -3.23298,16.36664 q -2.22278,-0.80737 -7.4762,-1.81887 -5.05147,-1.21335 -13.13388,-1.21335 -5.25356,0 -10.5071,1.21335 -5.05151,1.0115 -6.66796,1.41518 v 88.30014 h -18.79156 v -100.62579 q 6.66797,-2.42463 16.56889,-4.44535 9.90094,-2.22255 22.22656,-2.22255 z"
         inkscape:connector-curvature="0"
         transform="translate(-0.14284027,-284.42038)" />
      <path
         id="path4785"
         style="font-style:normal;font-variant:normal;font-weight:normal;font-stretch:normal;font-size:medium;line-height:5.62255px;font-family:Ubuntu;-inkscape-font-specification:Ubuntu;letter-spacing:0px;word-spacing:0px;display:inline;fill:#ffffff;fill-opacity:1;stroke:none;stroke-width:5.05149px;stroke-linecap:butt;stroke-linejoin:miter;stroke-opacity:1"
         d="m 798.91212,283.58436 q 2.22278,1.0115 5.65769,1.81887 3.63706,1.01151 7.07207,1.01151 11.1133,0 17.37715,-5.05155 6.26384,-4.84949 11.31534,-15.96272 -12.72975,-24.24719 -23.84306,-51.32315 -10.91121,-27.27802 -18.18537,-55.16226 h 20.20597 q 2.22279,9.09275 5.25356,19.59977 3.23294,10.50702 7.07209,21.62049 3.83912,11.11324 8.28444,22.22647 4.44531,11.11324 9.29475,21.41842 7.67828,-21.21635 13.33595,-42.02832 5.65765,-20.81243 10.70914,-42.83683 h 19.39775 q -7.27416,29.70265 -16.16479,57.18298 -8.89061,27.27802 -19.19566,51.12083 -4.04119,9.09299 -8.4865,15.55859 -4.24325,6.66812 -9.49681,10.91139 -5.25356,4.24326 -11.92152,6.26375 -6.46591,2.02071 -14.75038,2.02071 -2.22279,0 -4.64734,-0.40368 -2.42473,-0.20643 -4.84945,-0.80966 -2.22278,-0.40369 -4.24326,-1.0115 -1.81842,-0.60553 -2.62677,-1.01151 z"
         inkscape:connector-curvature="0"
         transform="translate(-0.14284027,-284.42038)" />
      <path
         d="m 605.3066,-165.75493 c 4.91714,0 8.92327,4.00492 8.92327,8.93443 0,4.92119 -4.00668,8.92344 -8.92327,8.92344 -4.91708,0 -8.92331,-4.00047 -8.92331,-8.92344 0,-4.92861 4.00666,-8.93443 8.92331,-8.93443 m 0,33.92512 c 13.78132,0 24.99168,-11.20934 24.99168,-24.99069 0,-13.78193 -11.21036,-25.00197 -24.99168,-25.00197 -13.78134,0 -24.99172,11.22004 -24.99172,25.00197 0,13.78135 11.21038,24.99069 24.99172,24.99069"
         style="display:inline;fill:#faac1f;fill-opacity:1;fill-rule:nonzero;stroke:none;stroke-width:5.35613"
         id="path1324-6-8"
         inkscape:connector-curvature="0" />
      <g
         id="g2212"
         transform="matrix(22.936588,0,0,22.936588,-57.975873,-243.53228)">
        <g
           transform="matrix(0.07881215,0,0,-0.07881215,4.178485,8.5637065)"
           id="g1077">
          <path
             inkscape:connector-curvature="0"
             id="path1079"
             style="fill:#faac1f;fill-opacity:1;fill-rule:nonzero;stroke:none"
             d="m 0,0 c -1.479,0 -2.678,-1.199 -2.678,-2.678 0,-1.478 1.199,-2.677 2.678,-2.677 1.479,0 2.678,1.199 2.678,2.677 0,1.479 -1.199,2.678 -2.678,2.678" />
        </g>
        <g
           style="fill:#67b319;fill-opacity:1"
           transform="matrix(0.07881215,0,0,-0.07881215,4.4367759,9.2327585)"
           id="g1081">
          <path
             inkscape:connector-curvature="0"
             id="path1083"
             style="fill:#faac1f;fill-opacity:1;fill-rule:nonzero;stroke:none"
             d="m 0,0 c -0.969,-0.549 -2.086,-0.866 -3.277,-0.866 -3.683,0 -6.679,2.996 -6.679,6.678 0,3.681 2.996,6.677 6.679,6.677 3.682,0 6.678,-2.996 6.678,-6.677 0,-1.037 -0.244,-2.014 -0.667,-2.89 l 5.146,-5.146 v -5.912 h 3.157 v 27.465 c -2.709,0.853 -4.679,3.386 -4.679,6.371 0,3.684 2.996,6.68 6.679,6.68 3.682,0 6.678,-2.996 6.678,-6.68 0,-2.985 -1.97,-5.518 -4.678,-6.371 v -27.465 h 3.374 v 11.973 l 5.241,5.243 c -0.484,0.924 -0.762,1.973 -0.762,3.087 0,3.684 2.996,6.68 6.679,6.68 3.682,0 6.678,-2.996 6.678,-6.68 0,-3.682 -2.996,-6.678 -6.678,-6.678 -1.114,0 -2.163,0.279 -3.088,0.763 l -4.07,-4.071 v -10.317 h 19.684 l 6.57,16.631 -26.128,22.353 v 25.389 h -19 v -25.389 l -26.129,-22.353 6.57,-16.631 h 19.902 v 4.256 z" />
        </g>
        <g
           transform="matrix(0.07881215,0,0,-0.07881215,6.7671646,8.4848945)"
           id="g1085">
          <path
             inkscape:connector-curvature="0"
             id="path1087"
             style="fill:#faac1f;fill-opacity:1;fill-rule:nonzero;stroke:none"
             d="m 0,0 c 1.479,0 2.678,1.199 2.678,2.678 0,1.48 -1.199,2.679 -2.678,2.679 -1.48,0 -2.679,-1.199 -2.679,-2.679 0,-1.479 1.199,-2.678 2.679,-2.678" />
        </g>
        <g
           transform="matrix(0.07881215,0,0,-0.07881215,5.4581029,7.4176988)"
           id="g1089">
          <path
             inkscape:connector-curvature="0"
             id="path1091"
             style="fill:#faac1f;fill-opacity:1;fill-rule:nonzero;stroke:none"
             d="m 0,0 h 0.155 c 1.443,0.042 2.601,1.216 2.601,2.67 0,1.48 -1.199,2.68 -2.678,2.68 -1.48,0 -2.679,-1.2 -2.679,-2.68 0,-1.454 1.158,-2.628 2.601,-2.67" />
        </g>
        <g
           transform="matrix(0.07881215,0,0,-0.07881215,4.830955,2.8665256)"
           id="g1093">
          <path
             inkscape:connector-curvature="0"
             id="path1095"
             style="fill:#faac1f;fill-opacity:1;fill-rule:nonzero;stroke:none;stroke-width:1.09819"
             d="m -0.83710094,-0.8407434 c 1.00813753,0 1.82958292,-0.8214454 1.82958292,-1.8317793 0,-1.0092357 -0.82144539,-1.8295829 -1.82958292,-1.8295829 -1.00813756,0 -1.82958296,0.8203472 -1.82958296,1.8295829 0,1.0103339 0.8214454,1.8317793 1.82958296,1.8317793 m 0,-6.9559293 c 2.82564034,0 5.12415004,2.2985096 5.12415004,5.12415 0,2.82673856 -2.2985097,5.1263464 -5.12415004,5.1263464 -2.82564036,0 -5.12415006,-2.29960784 -5.12415006,-5.1263464 0,-2.8256404 2.2985097,-5.12415 5.12415006,-5.12415" />
        </g>
        <g
           transform="matrix(0.07881215,0,0,-0.07881215,6.1747655,2.3674868)"
           id="g1097">
          <path
             inkscape:connector-curvature="0"
             id="path1099"
             style="fill:#faac1f;fill-opacity:1;fill-rule:nonzero;stroke:none;stroke-width:1.09819"
             d="m 0.83710094,-0.21901013 c 1.00813756,0 1.82958296,-0.82144537 1.82958296,-1.83177927 0,-1.0092358 -0.8214454,-1.829583 -1.82958296,-1.829583 -1.00813753,0 -1.82958292,0.8203472 -1.82958292,1.829583 0,1.0103339 0.82144539,1.83177927 1.82958292,1.83177927 m 0,-6.95592927 c 2.82564036,0 5.12415006,2.2985096 5.12415006,5.12415 0,2.82673853 -2.2985097,5.1263464 -5.12415006,5.1263464 -2.82564034,0 -5.12415004,-2.29960787 -5.12415004,-5.1263464 0,-2.8256404 2.2985097,-5.12415 5.12415004,-5.12415" />
        </g>
        <g
           transform="matrix(0.07881215,0,0,-0.07881215,5.5028602,1.2541081)"
           id="g1101">
          <path
             inkscape:connector-curvature="0"
             id="path1103"
             style="fill:#faac1f;fill-opacity:1;fill-rule:nonzero;stroke:none;stroke-width:1.09819"
             d="m -6.2293083e-8,1.1681056 c 1.008137562293083,0 1.829582962293083,-0.82034718 1.829582962293083,-1.8295829 0,-1.0092357 -0.8214454,-1.8295829 -1.829582962293083,-1.8295829 -1.008137537706917,0 -1.829582937706917,0.8203472 -1.829582937706917,1.8295829 0,1.00923572 0.8214454,1.8295829 1.829582937706917,1.8295829 m 0,-6.9537329 c 2.825640362293083,0 5.124150062293083,2.2985096 5.124150062293083,5.12415 0,2.8256404 -2.2985097,5.12415 -5.124150062293083,5.12415 -2.825640337706917,0 -5.124150037706917,-2.2985096 -5.124150037706917,-5.12415 0,-2.8256404 2.2985097,-5.12415 5.124150037706917,-5.12415" />
        </g>
        <g
           transform="matrix(0.07881215,0,0,-0.07881215,8.0224219,10.268019)"
           id="g1105">
          <path
             inkscape:connector-curvature="0"
             id="path1107"
             style="fill:#ffffff;fill-opacity:1;fill-rule:nonzero;stroke:none"
             d="m 0,0 h -37.616 -4 -23.303 l -9.13,23.111 27.09,23.175 v 23.048 h -8.666 v 5.999 h 46.332 v -5.999 h -8.666 v -23.048 l 27.089,-23.175 z m -11.959,49.05 v 14.284 h 8.666 v 17.999 h -58.332 v -17.999 h 8.666 v -14.284 l -28.243,-24.161 12.202,-30.889 h 73.081 l 12.202,30.889 z" />
        </g>
      </g>
    </g>
  </g>
</svg>
