<?xml version="1.0" encoding="UTF-8"?>
<svg id="New_Here_Section" data-name="New Here Section" xmlns="http://www.w3.org/2000/svg" xmlns:xlink="http://www.w3.org/1999/xlink" viewBox="0 0 273.64 400.05">
  <defs>
    <style>
      .cls-1, .cls-2 {
        fill: #8e6d56;
      }

      .cls-3, .cls-4, .cls-5, .cls-6, .cls-7, .cls-8, .cls-9, .cls-10, .cls-11, .cls-12, .cls-13, .cls-2 {
        stroke: #131313;
        stroke-linecap: round;
        stroke-linejoin: round;
        stroke-width: 1.5px;
      }

      .cls-3, .cls-14 {
        fill: #8b3c28;
      }

      .cls-15 {
        clip-path: url(#clippath-21);
      }

      .cls-16 {
        clip-path: url(#clippath-6);
      }

      .cls-17 {
        clip-path: url(#clippath-7);
      }

      .cls-18 {
        clip-path: url(#clippath-17);
      }

      .cls-19 {
        fill: #b6bec7;
      }

      .cls-20 {
        clip-path: url(#clippath-15);
      }

      .cls-21 {
        clip-path: url(#clippath-18);
      }

      .cls-22 {
        clip-path: url(#clippath-4);
      }

      .cls-4 {
        fill: #b2915b;
      }

      .cls-5, .cls-23 {
        fill: #e7c6b8;
      }

      .cls-24 {
        clip-path: url(#clippath-9);
      }

      .cls-25 {
        clip-path: url(#clippath-10);
      }

      .cls-6, .cls-26 {
        fill: #849a78;
      }

      .cls-27 {
        fill: #ffda96;
      }

      .cls-7, .cls-28 {
        fill: none;
      }

      .cls-29, .cls-10 {
        fill: #f9ac1e;
      }

      .cls-30 {
        clip-path: url(#clippath-11);
      }

      .cls-31, .cls-8 {
        fill: #f2f1f9;
      }

      .cls-9, .cls-32 {
        fill: #e2eef9;
      }

      .cls-33 {
        clip-path: url(#clippath-1);
      }

      .cls-34 {
        fill: #b9a7a0;
      }

      .cls-35 {
        clip-path: url(#clippath-5);
      }

      .cls-36 {
        clip-path: url(#clippath-20);
      }

      .cls-37 {
        clip-path: url(#clippath-8);
      }

      .cls-38 {
        fill: #bfc0c6;
      }

      .cls-39 {
        clip-path: url(#clippath-3);
      }

      .cls-40 {
        clip-path: url(#clippath-12);
      }

      .cls-41 {
        clip-path: url(#clippath-14);
      }

      .cls-42, .cls-12 {
        fill: #65553f;
      }

      .cls-11 {
        fill: #1b75bc;
      }

      .cls-43 {
        clip-path: url(#clippath-19);
      }

      .cls-44 {
        clip-path: url(#clippath-16);
      }

      .cls-45 {
        clip-path: url(#clippath-2);
      }

      .cls-13 {
        fill: #a8c0b7;
      }

      .cls-46 {
        clip-path: url(#clippath-13);
      }

      .cls-47 {
        fill: #c5892b;
      }

      .cls-48 {
        fill: #5f5445;
      }

      .cls-49 {
        fill: #7e8b75;
      }

      .cls-50 {
        fill: #65493e;
      }

      .cls-51 {
        fill: #7e6959;
      }

      .cls-52 {
        clip-path: url(#clippath);
      }
    </style>
    <clipPath id="clippath">
      <rect class="cls-28" x="0" width="273.64" height="400.05"/>
    </clipPath>
    <clipPath id="clippath-1">
      <path class="cls-9" d="M153.09,211.53s13.3,2.87,16.32,4.47c3.03,1.6,20.72,6.06,20.72,6.06,0,0,5.86,6.77,6.48,9.71.62,2.94-26.35,97.82-26.35,97.82,0,0,.44,6.23-.21,12.23-.65,6,2.87,32.63,3.58,35.42.71,2.79,4.86,38.81,5.27,41.95s16.02,63.88,16.02,63.88c0,0-31.9,11.03-54.82,11.03s-81.83.74-88.13.74-6.53-14.99-5.58-19.15,17.95-92.48,17.95-92.48l1.85-16.11s-2.14-7.36-1.78-8.19c.36-.83,4.75-9.62,4.75-9.62l-.95-14.65-3.23-100.78,9.69-7.31,8.71-8.08,7.94-8.27s5.9-.69,7.86-.93,14.76-.11,17.55.12c2.79.24,20.89-8.22,20.89-8.22l15.45,10.33Z"/>
    </clipPath>
    <clipPath id="clippath-2">
      <path class="cls-6" d="M98.5,234.72s1.9,6.27,11.02,6.3c9.12.03,15.23-5.32,15.23-5.32,0,0,7.72-3.82,10.67-8.99,2.95-5.17,4.04-9.57,4.04-9.57l7.28,2.06-19.02,51.11-15.73,17.96-9.46,16.44-10.48-25.16-1.55-25.44.8-19.99,6.05-3.36,1.17,3.95Z"/>
    </clipPath>
    <clipPath id="clippath-3">
      <path class="cls-8" d="M132.37,289.75s-5.61,31.53-4.45,33.16c1.16,1.63,9.62,9.29,13.09,9.29s5.43-1.17,5.43-1.17c0,0,7.66-2.6,8.82-4.5s5.43-22.12,5.43-22.12c0,0,2.49-9.92,1.43-10.04s-10.59-.36-14.65-.95c-4.05-.59-15.1-3.68-15.1-3.68Z"/>
    </clipPath>
    <clipPath id="clippath-4">
      <path class="cls-8" d="M134.05,199.18s1.05-3.45,2.09-2.65c3.66,2.79,16.6,10.9,16.95,15,.44,5.26,1.97,28.81,1.97,28.81l-17.39,3.79s1.15,2.73,2.93,5.36c1.78,2.63,4.23,5.05,4.23,5.05,0,0,.78,1.68.67,2.94-.11,1.26-13.25,14.48-13.25,14.48l-23.19,23.93-6.53,8.82v-5.62l8.49-20.94,23.04-46.66,3.38-9.43s2.92-8.5,1.59-10.81c-.55-.94-4.97-12.06-4.97-12.06Z"/>
    </clipPath>
    <clipPath id="clippath-5">
      <path class="cls-8" d="M99.19,292.45s.15-.96-.97-6.43c-1.12-5.47-3.88-21.62-3.79-27.97.08-6.35,1.05-25.78,1.05-25.78,0,0,2.13-3.39,1.88-4.44-.25-1.06.72-21.36.72-21.36,0,0-18.14,24.98-20.31,28.39-2.17,3.41,1.26,3.37,1.26,3.37l9.05,4.58s.25,1.67-.67,2.06-11.76,7.77-12.35,8.41,1.62,4.35,1.62,4.35c0,0,12.13,29.44,13.8,33.17,1.67,3.73,12.03,22.49,12.03,22.49l-.64-8.57-2.68-12.26Z"/>
    </clipPath>
    <clipPath id="clippath-6">
      <polygon class="cls-6" points="98.73 402.16 91.49 440.63 85.85 494.56 110.95 494.85 102.52 435.01 99.64 420.53 98.73 402.16"/>
    </clipPath>
    <clipPath id="clippath-7">
      <path class="cls-10" d="M64.39,133.39s-.88-7.58-5.27-13.23c-4.39-5.64-8.27-13.63-8.27-13.63,0,0,3.78-1,5.62-.7s5.76,1.84,5.76,1.84c0,0-5.3-7.6-5.06-15.26.24-7.66-.33-16.19.86-19.22,1.19-3.03,5.34-11.52,5.34-11.52,0,0,.48,7.01,1.66,9.74s3.8,11.51,3.8,11.51c0,0,1.55-16.5,2.56-19.71,1.01-3.21,3.38-10.27,9.56-16.63,6.18-6.35,15.44-12.35,15.44-12.35,0,0-7.25,8.93-6.89,13.26s1.11,9.98,1.11,9.98c0,0,3.85-13.44,11.57-19.44,7.72-6,18.59-11.46,22.33-12.11,3.74-.65,11.64-1.9,11.64-1.9,0,0-7.71,8.12-10.02,13.16-2.32,5.05-2.73,7.24-2.73,7.24,0,0,9.44-4.93,17.7-6.89,8.25-1.96,21.16-1.35,29.65-.17,8.49,1.19,17.93,5.82,17.93,5.82,0,0-11.76,1.43-14.49,4.46s-7.8,9.68-7.8,9.68c0,0,6.61-2.56,11.06-1.31s13.6,7.54,20.37,7.42c6.77-.12,11.46-3.38,11.46-3.38,0,0-.83,10.09-5.88,15.97-5.05,5.88-7.48,9.26-12.71,9.56,5.7.24,10.33,2.67,15.2,7.18s11.22,10.63,15.97,25.95c-3.38-1.01-8.8-3.28-12.89-2.93-4.1.36-7.73.28-7.73.28,4.33,3.74,14.64,17.63,15.88,30.22-3.98-.18-15.74-7.27-24.3-3.35,3.44,4.33,7.98,10.83,8.27,19.62-6.29-2.32-10.53-5.9-18.37-4.06,2.08,6,4.51,11.31,4.03,15.53-3.68-2.26-10.5-.89-13.41-.89s-11.89,3.79-11.89,3.79l-44.61-11.21-49.31-19.46-3.16-12.89Z"/>
    </clipPath>
    <clipPath id="clippath-8">
      <path class="cls-5" d="M69.97,193.11l2.04,8.77s.67,11.53,2.76,12.73,13.15,7.25,17.47,7.38,8.51.13,9.84-.67,7.75-3.38,11.18-6.72c3.43-3.34,24.75-15.6,25.19-16.72.45-1.11,9.96-18.97,9.96-18.97,0,0,4.93,4.68,8.45,1.97,3.52-2.72,8.13-4.7,9.95-6.84s5.6-7.11,6.14-11.7c.53-4.59.89-7.75-1.16-10.87-2.05-3.12-3.83-4.14-6.95-3.47-3.12.67-10,5.85-10,5.85l-2.94-14.21v-8.06l5.63-8.18s.6-4.46.42-5.49-3.74-8.42-7.48-12.6c-3.74-4.19-8.82-8.64-11.49-8.64s-10.78-.27-15.81,1.29c-5.03,1.56-21.18,6.07-21.18,6.07l-12.38-11.62s-4.79,4.22-8.4,6.76c-3.61,2.54-5.46,8.31-7.73,12.59-2.27,4.28-5.64,14.33-5.93,17.72s-1.41,17.61-1.41,17.61l2.19,6.77s-3.96,5.17-3.25,9.89c.71,4.72,5.03,9.62,5.03,9.62,0,0-3.36,6.81-2.56,10.9.81,4.1,2.42,8.85,2.42,8.85Z"/>
    </clipPath>
    <clipPath id="clippath-9">
      <path class="cls-10" d="M89.21,170.79l-22.76-8.2,3.62,6.35s-6.47.48-8.36.08-11.52-5.42-11.52-5.42l7.27,10.44-15.98-4.11,11.66,11.75-12.71,6.11,17.25.32-6.82,7.59,15.29-8.47-9.31,12.99,20.83-16.01-2.69,7.56,13.34-9.02,12.23,14.76.78-6.24,15.59,14.45-4.74-11.38,20.45,18.13-3.99-12.36,10.94,9.3-.33-6.61,15.07,6.95-17.3-13.29,15.11-2.58-20.57-6.41,11.47-6.88s-13.5.53-17.04-.28c-3.54-.8-8.33-2.95-8.33-2.95l10.65-4.43-39.09-2.16Z"/>
    </clipPath>
    <clipPath id="clippath-10">
      <path class="cls-2" d="M67.56,157.97c1.65,1.59,9.1,1.21,9.1,1.21,8.63,0,15.62-7.74,15.62-17.29s-7-17.29-15.62-17.29c0,0-2.32-.6-4.47-.43-2.15.17-9.21,12.1-9.06,17.29.15,5.2,1.55,13.73,4.44,16.52Z"/>
    </clipPath>
    <clipPath id="clippath-11">
      <path class="cls-2" d="M119.87,129.62s12.04,1.26,16.63,3.85c4.59,2.58,10.24,8.66,10.24,8.66v12.39s-10.82,10.53-16.7,10.97-12.49-.27-12.49-.27l-6-18.71,8.31-16.89Z"/>
    </clipPath>
    <clipPath id="clippath-12">
      <polygon class="cls-12" points="146.73 154.52 155.81 153.34 155.92 141.99 146.73 140.77 146.73 154.52"/>
    </clipPath>
    <clipPath id="clippath-13">
      <polygon class="cls-12" points="155.92 142.1 155.81 153.44 163.52 150.43 171.34 150.83 169.41 141.88 155.92 142.1"/>
    </clipPath>
    <clipPath id="clippath-14">
      <path class="cls-2" d="M97.69,137.38c-2.46-.3-7.41-.18-7.37.59.04.77,0,7.72,0,7.72,0,0,4.39-1.37,6.55-1.07,2.16.3,6.44,1.9,6.44,1.9.3-3.68,1.58-6.77.53-7.48-1.95-.83-6.14-1.66-6.14-1.66Z"/>
    </clipPath>
    <clipPath id="clippath-15">
      <path class="cls-5" d="M98.04,161.77c3.89-.98,4.69-.61,6.43.81,1.74,1.43,2.04,6.03,1.94,6.67-.34,2.26-7.99,1.66-8.84.53-.6-.8-4.59,3.29-5.51,3.87s-7.07.48-8.02,0-3.92-5.7-3.8-6.89c.12-1.19,3.84-10.69,4.91-14.01.47-1.45,1.96-3.57,3.59-5.67,2.1-2.7,2.53-3.76,7.7-3.23,5.17.53,6.48,2.46,6.48,3.57,0,0-.35,2.53.65,7.61"/>
    </clipPath>
    <clipPath id="clippath-16">
      <path class="cls-10" d="M106.73,132.89c.57.6.39.7,1.6.1,1.52-.76,7.55-3.71,11.38-5.89,3.03-1.73,9.54-2.64,14.43-2.29,4.89.35,11.92,4.18,12.19,3.73s-1.58-3.16-2.32-4.41-2.98-2.73-4.82-3.36c1.34.21,2.61.3,3.03.53s3.21.31,3.62.01-.57-1.98-1.2-2.66-3.13-1.96-6.28-3.27-7.61.54-9.22,1.37c1.54-1.34,6.42-4.62,7.58-4.32-2.49-.45-6.42-.51-8.67.85-2.26,1.37-6.03,3.38-6.03,3.38,0,0,1.72-2.67,1.13-3.09-.59-.42-3.45,2.14-4.46,3.21-1.01,1.07-10.63,13.42-10.63,13.42,0,0-1.91,2.07-1.34,2.67Z"/>
    </clipPath>
    <clipPath id="clippath-17">
      <path class="cls-10" d="M90.6,134.86s-.74.8-2.17-1.9c-1.43-2.7-9.35-12.53-12.8-13.6-3.44-1.07-5.48-.84-10.65,2.84.56-3.24,1.31-5.54,3.54-5.87-2.09-2.14-3.72-2.4-3.72-2.4,2.11-3.29,5.4-.66,6.35-.31-1.84-2.26-2.71-5.96-2.71-5.96,4.01,0,7.16.39,10.21,4.87-.65-2.55-.68-3.53-1.07-3.98,1.31.53,6.5,5.17,8.67,10.69,2.17,5.52,4.57,10.01,4.33,15.62Z"/>
    </clipPath>
    <clipPath id="clippath-18">
      <path class="cls-9" d="M208.69,354.4s21.93-14.69,28.67-19.75c6.75-5.06,25.72-26.94,17.71-37.5-8.01-10.57-37.95-42.89-37.95-42.89l-2.53-7.31h-5.9l-18.57-24.89s-21.54,1.91-21.76,29.42c-.22,27.51,14.6,32.82,14.6,32.82l20.39,13.93,3.37,6.38-10.11,12.44-9.29,17.39,21.36,19.96Z"/>
    </clipPath>
    <clipPath id="clippath-19">
      <path class="cls-3" d="M196.62,313.29s15.17-1.63,23.32,6.63c8.15,8.27,15.18,22.32,14.34,25.13-.84,2.81-37.66,19.68-37.66,19.68l-7.04,7.03-1.69,4.5-3.09,3.65,4.5,2.81s1.37,2.7.02,5.04c-1.35,2.34-4.51,4.42-7.04,6.16s-8.64,1.73-11.81,1.73-9.7-7.87-9.7-7.87c0,0-4.94-5.48-6.69-9.7-1.74-4.22-.97-6.89-1.81-10.19-.84-3.3,1.4-8.9,5.16-11.8,3.76-2.89,17.26-11.04,17.26-11.04l21.94-31.76Z"/>
    </clipPath>
    <clipPath id="clippath-20">
      <path class="cls-3" d="M7.14,281.82s-1.97,16.57,16.87,22.89c18.83,6.32,27.27-5.3,27.27-5.3l2.53-39.62,2.81-2.45v-3.09l2.51-1.97,1.15-5.9,8.43-1.69,4.78-7.03v-8.18l6.76-8.09-8.73-12.12h-27.85l-5.88,31.76-30.64,40.78Z"/>
    </clipPath>
    <clipPath id="clippath-21">
      <path class="cls-3" d="M43.66,209.28l15.46-12.82,10.85-3.35h16.21s-.03,9.38-7.06,9.7c-7.02.32-14.42.56-15.79,3.51l-1.37,2.95h-18.29Z"/>
    </clipPath>
  </defs>
  <g class="cls-52">
    <g>
      <path class="cls-9" d="M82.62,219.2l-30.64,24.58-42.86,48.56s-9.85,30.71,10.81,37.25c20.66,6.54,39.21-24.88,39.21-24.88l13.91-18.34,32.24-43.85-22.68-23.32Z"/>
      <path class="cls-19" d="M49.68,313.43c5.45-6.74,14.6-18.77,14.6-18.77l4.92-6.43,33.32-45.43-14.77-14.62-24.74,22.38-.98,8.4-1.83-5.2s-3.36,25.4-3.76,32.96c-.4,7.56-6.76,26.71-6.76,26.71Z"/>
      <path class="cls-19" d="M15.93,305.57l17.57,5.4s-3.51,10.39-16.3,13.77c7.03,2.67,9.56,2.11,12.79,1.26s12.93-5.06,17.57-9.84l-5.2-.03s3.37-1.66,5.06-6.15c1.69-4.5,1.67-8.34,1.67-8.34l-1.39-13.41-24.6,1.52-7.17,15.82Z"/>
      <g>
        <g>
          <g>
            <path class="cls-32" d="M153.09,211.53s13.3,2.87,16.32,4.47c3.03,1.6,20.72,6.06,20.72,6.06,0,0,5.86,6.77,6.48,9.71.62,2.94-26.35,97.82-26.35,97.82,0,0,.44,6.23-.21,12.23-.65,6,2.87,32.63,3.58,35.42.71,2.79,4.86,38.81,5.27,41.95s16.02,63.88,16.02,63.88c0,0-31.9,11.03-54.82,11.03s-81.83.74-88.13.74-6.53-14.99-5.58-19.15,17.95-92.48,17.95-92.48l1.85-16.11s-2.14-7.36-1.78-8.19c.36-.83,4.75-9.62,4.75-9.62l-.95-14.65-3.23-100.78,9.69-7.31,8.71-8.08,7.94-8.27s5.9-.69,7.86-.93,14.76-.11,17.55.12c2.79.24,20.89-8.22,20.89-8.22l15.45,10.33Z"/>
            <g class="cls-33">
              <path class="cls-19" d="M162.38,271.61s5.49,5.98,11.77,8.63c6.28,2.65,12.34,3.14,12.34,3.14l-6.75,27.6-2.11,57.41,18.99,72.53,12.43,50.81-39.21,10.12-14.97-1.48,6.54-44.06s-.21-24.46-1.26-34.37c-1.05-9.91-9.91-47.65-9.91-47.65,0,0-13.07,4.43-18.34,4.64s4.22-2.95,4.22-2.95c0,0,13.49-6.11,12.86-8.85-.63-2.74-1.05-4.85-1.05-4.85l-2.84-.21,2.63-3.85,9.21-11.75v-4.85l-5.48,4.64s7.03-13.91,8.71-20.03c1.69-6.11,6.32-30.8,6.32-30.8l-4.08,4,5.98-17.6-5.98-10.21Z"/>
              <polygon class="cls-19" points="155.06 240.34 155.35 242.94 139.02 246.9 136.36 243.57 155.06 240.34"/>
              <polygon class="cls-19" points="146.26 256.86 146.26 260.93 102.52 306.6 102.52 303.45 146.26 256.86"/>
            </g>
            <path class="cls-7" d="M153.09,211.53s13.3,2.87,16.32,4.47c3.03,1.6,20.72,6.06,20.72,6.06,0,0,5.86,6.77,6.48,9.71.62,2.94-26.35,97.82-26.35,97.82,0,0,.44,6.23-.21,12.23-.65,6,2.87,32.63,3.58,35.42.71,2.79,4.86,38.81,5.27,41.95s16.02,63.88,16.02,63.88c0,0-31.9,11.03-54.82,11.03s-81.83.74-88.13.74-6.53-14.99-5.58-19.15,17.95-92.48,17.95-92.48l1.85-16.11s-2.14-7.36-1.78-8.19c.36-.83,4.75-9.62,4.75-9.62l-.95-14.65-3.23-100.78,9.69-7.31,8.71-8.08,7.94-8.27s5.9-.69,7.86-.93,14.76-.11,17.55.12c2.79.24,20.89-8.22,20.89-8.22l15.45,10.33Z"/>
          </g>
          <polyline class="cls-7" points="102.52 313.29 100.05 388.2 99.64 420.53 110.95 494.85"/>
          <ellipse class="cls-8" cx="96.48" cy="317.79" rx="2.58" ry="3.81"/>
          <ellipse class="cls-8" cx="94.78" cy="354.39" rx="2.58" ry="3.81"/>
          <ellipse class="cls-8" cx="92.98" cy="390.1" rx="2.58" ry="3.81"/>
          <polyline class="cls-7" points="99.95 395.65 91.49 440.63 85.85 494.56"/>
          <path class="cls-7" d="M110.95,364.17s10.18-.98,16.36-4.99,17.75-15.25,17.75-15.25"/>
          <path class="cls-7" d="M92.04,372.88s-6.86-2.81-10.1-7.03-5.83-7.65-5.83-7.65"/>
          <line class="cls-7" x1="66.21" y1="367.11" x2="71.09" y2="378.22"/>
          <path class="cls-7" d="M112.62,397.06s12.03,20.24,21.79,26.14"/>
          <line class="cls-7" x1="166.46" y1="295.42" x2="175.1" y2="285.26"/>
        </g>
        <path class="cls-5" d="M134.05,199.18l4.97,12.06-.03,7.03-4.94,25.68-14.66,15.85-18.81-2.43-8.54-14.67,3.44-10.43,1.86-1.5.69-6.54.05-19.76s12.19-3.14,20.86-2.64c8.67.5,15.11-2.65,15.11-2.65Z"/>
        <path class="cls-34" d="M104.62,222.06s2.96,7.43,6.94,7.43,9.75-4.75,9.75-4.75l-7.55,12.65s15.6-6.75,17.99-11.1c2.39-4.36,4.46-6.68,4.62-11.84.16-5.17-5.61-14.03-5.61-14.03l-29.14,17.13,3.01,4.52Z"/>
        <path class="cls-34" d="M98.04,218.9s3.61,9.63,5.58,11.88c1.97,2.25,0,4.08-.7,2.81s-5.55-5.6-5.55-5.6l.67-9.09Z"/>
        <g>
          <path class="cls-26" d="M98.5,234.72s1.9,6.27,11.02,6.3c9.12.03,15.23-5.32,15.23-5.32,0,0,7.72-3.82,10.67-8.99,2.95-5.17,4.04-9.57,4.04-9.57l7.28,2.06-19.02,51.11-15.73,17.96-9.46,16.44-10.48-25.16-1.55-25.44.8-19.99,6.05-3.36,1.17,3.95Z"/>
          <g class="cls-45">
            <polygon class="cls-49" points="97.37 257.34 97.56 228.62 90.49 229.49 83.85 240.67 88.15 281.82 95.71 299.42 100.53 303.94 102.16 299.42 99.64 285.92 97.37 268.61 97.37 257.34"/>
          </g>
          <path class="cls-7" d="M98.5,234.72s1.9,6.27,11.02,6.3c9.12.03,15.23-5.32,15.23-5.32,0,0,7.72-3.82,10.67-8.99,2.95-5.17,4.04-9.57,4.04-9.57l7.28,2.06-19.02,51.11-15.73,17.96-9.46,16.44-10.48-25.16-1.55-25.44.8-19.99,6.05-3.36,1.17,3.95Z"/>
        </g>
        <polygon class="cls-49" points="120.29 250.56 106.43 278.99 100.92 299.42 102.52 304.71 120.29 272.67 129.14 245.68 120.29 250.56"/>
        <g>
          <g>
            <path class="cls-31" d="M132.37,289.75s-5.61,31.53-4.45,33.16c1.16,1.63,9.62,9.29,13.09,9.29s5.43-1.17,5.43-1.17c0,0,7.66-2.6,8.82-4.5s5.43-22.12,5.43-22.12c0,0,2.49-9.92,1.43-10.04s-10.59-.36-14.65-.95c-4.05-.59-15.1-3.68-15.1-3.68Z"/>
            <g class="cls-39">
              <path class="cls-38" d="M129.7,321.61s8.01,8.6,11.95,8.88c3.94.28,13.23-4.87,14-6.21s3.87-14.46,3.87-14.46l1.17-5.4s-5.55,6.5-6.95,6.56-2.32-2.5-2.32-2.5l-.86,4.68,1.53,1.54,3.03,4.5-10.94-2.81,2.55,5.23,7.46-.56-1.08,1.68s-4.86,4.2-10.62,3.35c-5.33-.78-12.79-4.47-12.79-4.47Z"/>
            </g>
            <path class="cls-7" d="M132.37,289.75s-5.61,31.53-4.45,33.16c1.16,1.63,9.62,9.29,13.09,9.29s5.43-1.17,5.43-1.17c0,0,7.66-2.6,8.82-4.5s5.43-22.12,5.43-22.12c0,0,2.49-9.92,1.43-10.04s-10.59-.36-14.65-.95c-4.05-.59-15.1-3.68-15.1-3.68Z"/>
          </g>
          <path class="cls-7" d="M134.41,297.47s4.54,2.23,11.94,3.38c7.39,1.16,11.76,0,11.76,0"/>
          <g>
            <path class="cls-11" d="M154.72,293.55s-1.47,3.2-1.51,5.51c-.04,2.31-.45,6.52-.45,6.52l2.32-1.16s.27-5.61.71-6.95c.45-1.34,2.04-3.29,2.04-3.29,0,0-.49-3.12-.04-4.14s1.03-3.25,1.03-3.25c0,0-1.11-1.41-2.14-1.48s-2.14-.07-2.45.59-2.81,7.93-2.81,7.93l3.3-.27Z"/>
            <circle class="cls-11" cx="156.9" cy="283.38" r="1.56"/>
          </g>
        </g>
        <g>
          <path class="cls-31" d="M134.05,199.18s1.05-3.45,2.09-2.65c3.66,2.79,16.6,10.9,16.95,15,.44,5.26,1.97,28.81,1.97,28.81l-17.39,3.79s1.15,2.73,2.93,5.36c1.78,2.63,4.23,5.05,4.23,5.05,0,0,.78,1.68.67,2.94-.11,1.26-13.25,14.48-13.25,14.48l-23.19,23.93-6.53,8.82v-5.62l8.49-20.94,23.04-46.66,3.38-9.43s2.92-8.5,1.59-10.81c-.55-.94-4.97-12.06-4.97-12.06Z"/>
          <g class="cls-22">
            <polygon class="cls-38" points="136.92 201.2 143.38 205.2 145.56 212.32 145.69 217.64 145.07 223.68 142.83 232.29 132.39 237.35 139.02 217.64 138.19 211.63 136.92 201.2"/>
          </g>
          <path class="cls-7" d="M134.05,199.18s1.05-3.45,2.09-2.65c3.66,2.79,16.6,10.9,16.95,15,.44,5.26,1.97,28.81,1.97,28.81l-17.39,3.79s1.15,2.73,2.93,5.36c1.78,2.63,4.23,5.05,4.23,5.05,0,0,.78,1.68.67,2.94-.11,1.26-13.25,14.48-13.25,14.48l-23.19,23.93-6.53,8.82v-5.62l8.49-20.94,23.04-46.66,3.38-9.43s2.92-8.5,1.59-10.81c-.55-.94-4.97-12.06-4.97-12.06Z"/>
        </g>
        <g>
          <path class="cls-31" d="M99.19,292.45s.15-.96-.97-6.43c-1.12-5.47-3.88-21.62-3.79-27.97.08-6.35,1.05-25.78,1.05-25.78,0,0,2.13-3.39,1.88-4.44-.25-1.06.72-21.36.72-21.36,0,0-18.14,24.98-20.31,28.39-2.17,3.41,1.26,3.37,1.26,3.37l9.05,4.58s.25,1.67-.67,2.06-11.76,7.77-12.35,8.41,1.62,4.35,1.62,4.35c0,0,12.13,29.44,13.8,33.17,1.67,3.73,12.03,22.49,12.03,22.49l-.64-8.57-2.68-12.26Z"/>
          <g class="cls-35">
            <polygon class="cls-38" points="94.64 211.22 91.72 224.53 84.07 234.01 93.84 237.24 101.61 234.01 102.92 211.04 101.61 201.76 93.82 201.2 94.64 211.22"/>
          </g>
          <path class="cls-7" d="M99.19,292.45s.15-.96-.97-6.43c-1.12-5.47-3.88-21.62-3.79-27.97.08-6.35,1.05-25.78,1.05-25.78,0,0,2.13-3.39,1.88-4.44-.25-1.06.72-21.36.72-21.36,0,0-18.14,24.98-20.31,28.39-2.17,3.41,1.26,3.37,1.26,3.37l9.05,4.58s.25,1.67-.67,2.06-11.76,7.77-12.35,8.41,1.62,4.35,1.62,4.35c0,0,12.13,29.44,13.8,33.17,1.67,3.73,12.03,22.49,12.03,22.49l-.64-8.57-2.68-12.26Z"/>
        </g>
        <g>
          <polygon class="cls-26" points="98.73 402.16 91.49 440.63 85.85 494.56 110.95 494.85 102.52 435.01 99.64 420.53 98.73 402.16"/>
          <g class="cls-16">
            <polygon class="cls-49" points="99.95 413.14 94.78 442.03 90.49 484.9 92.04 497.74 84.07 497.74 71.09 411.07 98.4 393.91 100.92 397.06 99.95 413.14"/>
          </g>
          <polygon class="cls-7" points="98.73 402.16 91.49 440.63 85.85 494.56 110.95 494.85 102.52 435.01 99.64 420.53 98.73 402.16"/>
        </g>
      </g>
      <g>
        <g>
          <path class="cls-29" d="M64.39,133.39s-.88-7.58-5.27-13.23c-4.39-5.64-8.27-13.63-8.27-13.63,0,0,3.78-1,5.62-.7s5.76,1.84,5.76,1.84c0,0-5.3-7.6-5.06-15.26.24-7.66-.33-16.19.86-19.22,1.19-3.03,5.34-11.52,5.34-11.52,0,0,.48,7.01,1.66,9.74s3.8,11.51,3.8,11.51c0,0,1.55-16.5,2.56-19.71,1.01-3.21,3.38-10.27,9.56-16.63,6.18-6.35,15.44-12.35,15.44-12.35,0,0-7.25,8.93-6.89,13.26s1.11,9.98,1.11,9.98c0,0,3.85-13.44,11.57-19.44,7.72-6,18.59-11.46,22.33-12.11,3.74-.65,11.64-1.9,11.64-1.9,0,0-7.71,8.12-10.02,13.16-2.32,5.05-2.73,7.24-2.73,7.24,0,0,9.44-4.93,17.7-6.89,8.25-1.96,21.16-1.35,29.65-.17,8.49,1.19,17.93,5.82,17.93,5.82,0,0-11.76,1.43-14.49,4.46s-7.8,9.68-7.8,9.68c0,0,6.61-2.56,11.06-1.31s13.6,7.54,20.37,7.42c6.77-.12,11.46-3.38,11.46-3.38,0,0-.83,10.09-5.88,15.97-5.05,5.88-7.48,9.26-12.71,9.56,5.7.24,10.33,2.67,15.2,7.18s11.22,10.63,15.97,25.95c-3.38-1.01-8.8-3.28-12.89-2.93-4.1.36-7.73.28-7.73.28,4.33,3.74,14.64,17.63,15.88,30.22-3.98-.18-15.74-7.27-24.3-3.35,3.44,4.33,7.98,10.83,8.27,19.62-6.29-2.32-10.53-5.9-18.37-4.06,2.08,6,4.51,11.31,4.03,15.53-3.68-2.26-10.5-.89-13.41-.89s-11.89,3.79-11.89,3.79l-44.61-11.21-49.31-19.46-3.16-12.89Z"/>
          <g class="cls-17">
            <path class="cls-47" d="M217.13,146.31s-6.61-9.88-16.73-12.92-39.64-4.28-39.64-4.28l-3.23-5.71-6.26,9.99-5.71,25.83,5.71,17.73,10.91,14.83,21.78-4.25,1.48-11.42-5.69-13.52s.86-3.69,3-4.06c2.14-.37,16.19,6.62,16.19,6.62l-.9-3.83s-4.3-12.25-7.68-16.57c.48-.8,2.03-1.9,2.03-1.9l17.72,4.32,7.03-.86"/>
            <path class="cls-47" d="M156.97,115.53l3.58-7.87,16.23-1.13-18.53-3.58,15.1-5.69-19.57-1.9,3.18-2.95s-14.55-1.48-21.72,3.37c8.43-5.48,18.53-6.54,18.53-6.54l9.72-4.01s-15.94-1.26-26.42,3.79c-10.48,5.06-15.05,4.85-15.05,4.85l6.75-6.32-6.75,1.48-11.93,6.96s21.56-18.13,24.93-21.08c-6.75,2.53-16.23,9.28-18.13,11.38s-9.62,9.49-9.62,9.49l-1.56-3.37-4.43,3.58s-3.58-16.23.21-29.73c-3.79,6.75-5.41,15.18-4.81,20.24s2.05,11,4.49,16.78c2.44,5.78,6.1,19.29,6.1,19.29l32.79-1.68,16.88-5.37Z"/>
            <path class="cls-47" d="M99.86,100.49s-8.36-11.88-10.2-16.3c-1.84-4.43-3.49-15.18-3.49-15.18l-1.1,12.23s1.06,5.49,4.54,11.18,10.25,8.08,10.25,8.08Z"/>
            <path class="cls-47" d="M84.08,97.02s-2.34-2.92-3.83-7.77c-1.49-4.85-3.18-11.17-3.18-11.17,0,0-.42,10.12.42,13.28.84,3.16,2.76,11.81,2.76,11.81l6.73,4.51,2.69-1.56-5.58-9.09Z"/>
            <path class="cls-47" d="M80.24,106.75v-3.58l-4.27-4.64.9,6.24-2.37-.12-2.29-4.15-.84,5.62s-3.84-4.43-6.45-12.44c.76,6.32,5.19,18.08,5.19,18.08l1.76,3.54-4.32-3.54,2.63,8.02,5.8,4.68,4.31-4.64,1.89-7.15-1.92-5.92Z"/>
            <path class="cls-47" d="M225.28,129.01l-3.41-10.28s-7.97-8.83-15.56-9.46-12.86-.21-23.34,4.01c10.6-1.05,20.81,5.3,20.81,5.3l21.5,10.44Z"/>
            <path class="cls-47" d="M190.69,85.6s-12.64-5.84-18.33-5.42c11.81-2.11,29.73-6.54,33.73-11.17,4.01-4.64,6.96-8.85,6.96-8.85l2.53,15.18-11.6,5.69-13.29,4.58Z"/>
            <path class="cls-47" d="M166.39,57.34s-11.45,2.39-15.39,5.55c1.97-6.54,12.15-14.87,23.19-15.23,11.04-.37-7.8,9.68-7.8,9.68Z"/>
            <path class="cls-47" d="M126.82,40.97l-11.38,10.75s2.63-16.66,11.12-19.82,16.48-4.64,16.48-4.64l-2.15,5.48-9.16,5.9-2.48.84-2.41,1.48Z"/>
            <path class="cls-27" d="M50.85,106.53s10.76,2.53,11.99,3.51-.6-2.38-.6-2.38l-9.14-6.33-2.25,1.69v3.51Z"/>
            <path class="cls-27" d="M58.64,100.49s-.47-17.15.72-21.65c1.19-4.5,2.74-8.85,2.74-8.85l6.75,12.93-1.97-25.3-5.55-2.11s-5.98,8.57-5.84,9.28-9.7,25.02-9.7,25.02l12.84,10.68Z"/>
            <path class="cls-27" d="M69.45,76.98s5.16-18.37,8.39-22.17c3.23-3.79,9.46-12.09,15.06-15.6,5.6-3.51,6.02-9.14,6.02-9.14l-4.06-1.26-14.62,8.01-11.68,20.52-1.02,15.74,1.9,3.89Z"/>
            <path class="cls-27" d="M90.62,57.48s10.49-16.73,21.06-22.35c10.57-5.62,24.48-11.1,24.48-11.1l11.4-6.61-4.92-3.51-16.16,1.41-15.18,7.31-11.38,13.63-6.32,7.45-2.96,13.77Z"/>
            <path class="cls-27" d="M123.5,44.1s3.98-1.01,9.37-2.07,12.68-2.25,18.46-2.39c11.38-.28,26.44.98,33.75,4.78,7.31,3.79,15.74-.56,15.74-.56,0,0-1.41-7.17-1.55-7.73s-18.69-4.92-18.69-4.92l-35.14,1.97-16.21,6.32-5.73,4.61Z"/>
            <path class="cls-27" d="M167.13,57s5.85,1.04,14.56,4.56c8.71,3.51,11.2,7,16.82,5.31,5.62-1.69,17.06-6.72,17.06-6.72l.42-7.31-10.12,2.53c-.56.14-17.99,0-17.99,0l-8.43-1.97-6.1-.28-6.23,3.88Z"/>
            <path class="cls-27" d="M190.69,85.6s12.38,7.45,15.75,11.73c3.37,4.28,12.51,18.62,12.51,18.62l2.91,2.78,20,.73-8.85-27.97-16.16-6.32-14.06.98-12.1-.55Z"/>
            <path class="cls-27" d="M200.89,117.4s8.51,11.34,9.35,13.17,4.92,13.51,4.92,13.51l1.97,2.23,12.23.26-12.65-14.87-15.82-14.29Z"/>
          </g>
          <path class="cls-7" d="M64.39,133.39s-.88-7.58-5.27-13.23c-4.39-5.64-8.27-13.63-8.27-13.63,0,0,3.78-1,5.62-.7s5.76,1.84,5.76,1.84c0,0-5.3-7.6-5.06-15.26.24-7.66-.33-16.19.86-19.22,1.19-3.03,5.34-11.52,5.34-11.52,0,0,.48,7.01,1.66,9.74s3.8,11.51,3.8,11.51c0,0,1.55-16.5,2.56-19.71,1.01-3.21,3.38-10.27,9.56-16.63,6.18-6.35,15.44-12.35,15.44-12.35,0,0-7.25,8.93-6.89,13.26s1.11,9.98,1.11,9.98c0,0,3.85-13.44,11.57-19.44,7.72-6,18.59-11.46,22.33-12.11,3.74-.65,11.64-1.9,11.64-1.9,0,0-7.71,8.12-10.02,13.16-2.32,5.05-2.73,7.24-2.73,7.24,0,0,9.44-4.93,17.7-6.89,8.25-1.96,21.16-1.35,29.65-.17,8.49,1.19,17.93,5.82,17.93,5.82,0,0-11.76,1.43-14.49,4.46s-7.8,9.68-7.8,9.68c0,0,6.61-2.56,11.06-1.31s13.6,7.54,20.37,7.42c6.77-.12,11.46-3.38,11.46-3.38,0,0-.83,10.09-5.88,15.97-5.05,5.88-7.48,9.26-12.71,9.56,5.7.24,10.33,2.67,15.2,7.18s11.22,10.63,15.97,25.95c-3.38-1.01-8.8-3.28-12.89-2.93-4.1.36-7.73.28-7.73.28,4.33,3.74,14.64,17.63,15.88,30.22-3.98-.18-15.74-7.27-24.3-3.35,3.44,4.33,7.98,10.83,8.27,19.62-6.29-2.32-10.53-5.9-18.37-4.06,2.08,6,4.51,11.31,4.03,15.53-3.68-2.26-10.5-.89-13.41-.89s-11.89,3.79-11.89,3.79l-44.61-11.21-49.31-19.46-3.16-12.89Z"/>
        </g>
        <path class="cls-7" d="M68.37,132.92s-5.28-2.48-6.65-.67-3.56,8.82-2.14,14.04c1.43,5.23,6.59,16.21,9.62,16.27s6.77,0,6.77,0l-7.6-29.64Z"/>
        <g>
          <path class="cls-23" d="M69.97,193.11l2.04,8.77s.67,11.53,2.76,12.73,13.15,7.25,17.47,7.38,8.51.13,9.84-.67,7.75-3.38,11.18-6.72c3.43-3.34,24.75-15.6,25.19-16.72.45-1.11,9.96-18.97,9.96-18.97,0,0,4.93,4.68,8.45,1.97,3.52-2.72,8.13-4.7,9.95-6.84s5.6-7.11,6.14-11.7c.53-4.59.89-7.75-1.16-10.87-2.05-3.12-3.83-4.14-6.95-3.47-3.12.67-10,5.85-10,5.85l-2.94-14.21v-8.06l5.63-8.18s.6-4.46.42-5.49-3.74-8.42-7.48-12.6c-3.74-4.19-8.82-8.64-11.49-8.64s-10.78-.27-15.81,1.29c-5.03,1.56-21.18,6.07-21.18,6.07l-12.38-11.62s-4.79,4.22-8.4,6.76c-3.61,2.54-5.46,8.31-7.73,12.59-2.27,4.28-5.64,14.33-5.93,17.72s-1.41,17.61-1.41,17.61l2.19,6.77s-3.96,5.17-3.25,9.89c.71,4.72,5.03,9.62,5.03,9.62,0,0-3.36,6.81-2.56,10.9.81,4.1,2.42,8.85,2.42,8.85Z"/>
          <g class="cls-37">
            <polygon class="cls-34" points="142.98 97.05 146.35 118.13 148.69 127.83 145.83 133.39 145.83 157.28 154.84 153.85 162.08 138.23 168.36 112.44 159.08 98.73 142.98 97.05"/>
            <path class="cls-34" d="M86.18,219.2s11.01.12,16.34-1.98,14.23-7.8,14.23-7.8l-6.9-10.23,17.91-19.91,2.99-2.32s3.36-1.6,5.93-3.56,8.83-13.91,8.83-13.91l5.49-8.03,3.84,2.39-6.03,9.62-.12,13.48s1.45,3.08,4.41,2.44,5.56-3.03,8.61-5.35c3.05-2.32,9.63-2.96,9.63-2.96l3.97,9.66s-9.07,9.21-9.91,9.67-15.18,7.5-15.18,7.5l-14.58,19.58-29.58,12.71-18.25-2.86-1.64-8.14Z"/>
            <path class="cls-34" d="M107.3,160.71s2.88,6.89,15.92,8.6c6.3.83,11.86-1.32,11.86-1.32,0,0,2.79-1.37,4.96-3.27,2.17-1.9,13.37-9.83,13.37-9.83l.45-5.93-12.66,2.48-9.79,7.31-13.57,4.74-10.54-2.77Z"/>
            <polygon class="cls-34" points="93.33 202.67 83.6 199.18 83.6 195.08 87.19 196.11 92.04 199.72 93.33 202.67"/>
            <path class="cls-34" d="M74.97,204.36s-.44,6.11,1.46,7.91c1.9,1.79,6.18,3.06,6.18,3.06l-7.64-10.96Z"/>
            <path class="cls-34" d="M104.25,116.76s9.19-2.74,10.98-2.58,7.32-.51,7.32-.51c0,0,2.7-1.65,1.33-3.02-1.37-1.37-2.04-3-4.87-2.98s-6.96-.47-8.31.55c-1.35,1.02,2.77,2.65.86,3.54-1.91.89-7.3,2.84-7.3,2.84v2.16Z"/>
            <path class="cls-34" d="M67.08,157.01s2,2.26,6.36,2.26c3.47,0,9.18-1.34,9.18-1.34,0,0-.73,2.91-1.56,3.71-.83.81-7.34,1-9.38.93-2.04-.07-5.67-1.2-5.72-2.29s1.11-3.27,1.11-3.27Z"/>
            <polygon class="cls-34" points="163.74 152.5 158.02 154.15 154.53 153.82 155.14 150.05 160.27 147.05 170.95 147.05 173.84 149.98 174.05 152.65 163.74 152.5"/>
          </g>
          <path class="cls-7" d="M69.97,193.11l2.04,8.77s.67,11.53,2.76,12.73,13.15,7.25,17.47,7.38,8.51.13,9.84-.67,7.75-3.38,11.18-6.72c3.43-3.34,24.75-15.6,25.19-16.72.45-1.11,9.96-18.97,9.96-18.97,0,0,4.93,4.68,8.45,1.97,3.52-2.72,8.13-4.7,9.95-6.84s5.6-7.11,6.14-11.7c.53-4.59.89-7.75-1.16-10.87-2.05-3.12-3.83-4.14-6.95-3.47-3.12.67-10,5.85-10,5.85l-2.94-14.21v-8.06l5.63-8.18s.6-4.46.42-5.49-3.74-8.42-7.48-12.6c-3.74-4.19-8.82-8.64-11.49-8.64s-10.78-.27-15.81,1.29c-5.03,1.56-21.18,6.07-21.18,6.07l-12.38-11.62s-4.79,4.22-8.4,6.76c-3.61,2.54-5.46,8.31-7.73,12.59-2.27,4.28-5.64,14.33-5.93,17.72s-1.41,17.61-1.41,17.61l2.19,6.77s-3.96,5.17-3.25,9.89c.71,4.72,5.03,9.62,5.03,9.62,0,0-3.36,6.81-2.56,10.9.81,4.1,2.42,8.85,2.42,8.85Z"/>
        </g>
        <path class="cls-7" d="M86.18,196.46s.13-1.94,5.86,3.26"/>
        <path class="cls-7" d="M83.1,189.06s4.99-2.08,10.72,3.12"/>
        <path class="cls-34" d="M156.34,173.26s2-2.67,3.06-2.28c1.05.38,3.9.49,5.27-2.99,1.37-3.48.65-6.77,0-8.19s.32-2.88.74-3.09,2.22-.53,2.22-.53c0,0-1.3-2.76-2.22-2.48s-7.17,5.48-9.59,8.88v3.05l1.82,1.88.61,1.64-.5,1.94-1.4,2.18Z"/>
        <g>
          <path class="cls-29" d="M89.21,170.79l-22.76-8.2,3.62,6.35s-6.47.48-8.36.08-11.52-5.42-11.52-5.42l7.27,10.44-15.98-4.11,11.66,11.75-12.71,6.11,17.25.32-6.82,7.59,15.29-8.47-9.31,12.99,20.83-16.01-2.69,7.56,13.34-9.02,12.23,14.76.78-6.24,15.59,14.45-4.74-11.38,20.45,18.13-3.99-12.36,10.94,9.3-.33-6.61,15.07,6.95-17.3-13.29,15.11-2.58-20.57-6.41,11.47-6.88s-13.5.53-17.04-.28c-3.54-.8-8.33-2.95-8.33-2.95l10.65-4.43-39.09-2.16Z"/>
          <g class="cls-24">
            <polygon class="cls-47" points="47.76 187.53 59.9 185.73 58.35 188.2 49.87 192.18 49.1 197.91 56.67 191.62 64.89 186.04 68.71 184.46 66.73 187.53 53.59 199.18 53.66 205.48 62.94 194.31 70.88 187.53 78.17 181.87 77.67 184.22 75.52 187.53 70.04 195.01 75.97 190.41 80.52 184.59 86.84 178.99 88.46 180.46 88.31 182.76 87.05 191.43 78.75 195.43 63.43 208.79 49.59 209.28 44.88 203.59 42.42 194.8 47.76 187.53"/>
            <path class="cls-47" d="M88.31,182.76l.15-2.29,1.47-1.34,8.43,10.26-.78-4.85,17.51,17.9,4.09,10.03-16.25-1.44s-12.57-18.27-12.43-19.19-2.18-9.09-2.18-9.09"/>
            <polygon class="cls-47" points="119.58 206.19 121.3 218.41 142.21 217.08 147.13 216.66 140.88 207.24 129.42 196.46 120.01 193.47 130.19 204.94 131.09 207.74 114.03 190.41 115.85 194.8 108.83 190.41 115.7 198.5 119.58 206.19"/>
            <path class="cls-47" d="M150.63,194.14l-17.27,1.97,2.32,1.81s15.6,3.21,15.95,3.35-1-7.12-1-7.12Z"/>
            <path class="cls-47" d="M139.9,182.47l-11.54,3.19,3.18,1.82s9.06-.62,9.65-.76-1.3-4.25-1.3-4.25Z"/>
            <polygon class="cls-47" points="84.33 169.03 86.18 176.95 90.21 176.95 93.34 180.25 96.04 178.22 92.28 176.95 96.46 176.95 96.46 174.64 98.5 174.63 98.29 172.03 104.62 170.56 84.33 169.03"/>
            <polyline class="cls-27" points="49.17 181.66 53.14 181.69 55.56 182.29 40.42 187.8 33.07 185.81 40.42 182.43 53.14 181.69"/>
            <polygon class="cls-27" points="58.37 176.11 49.24 174.98 41.48 169.94 33.57 164.23 48.68 169.57 55.56 172.95 57.46 174.05 58.37 176.11"/>
            <polygon class="cls-27" points="47.48 161.84 50.19 163.6 56.57 169.43 61.11 172.03 72.71 170.7 70.07 168.94 64.35 165.63 66.45 162.58 73.9 169.15 84.33 169.03 72.19 158 56.57 157.24 47.48 161.84"/>
            <polygon class="cls-27" points="106.43 171.74 120.89 176.03 132.73 174.56 129.56 169.78 106.43 171.74"/>
            <polygon class="cls-27" points="121.3 178.86 125 182.36 131.18 183.77 143.02 180.6 149.38 177.51 121.3 178.86"/>
            <polygon class="cls-27" points="136.16 188.92 147.93 194.6 158.52 194.8 157.67 190.8 147.98 188.65 136.16 188.92"/>
            <polygon class="cls-27" points="137.52 198.29 150.15 209.28 156.41 211.88 158.1 208.72 149.59 203.87 141.61 199.14 137.52 198.29"/>
          </g>
          <path class="cls-7" d="M89.21,170.79l-22.76-8.2,3.62,6.35s-6.47.48-8.36.08-11.52-5.42-11.52-5.42l7.27,10.44-15.98-4.11,11.66,11.75-12.71,6.11,17.25.32-6.82,7.59,15.29-8.47-9.31,12.99,20.83-16.01-2.69,7.56,13.34-9.02,12.23,14.76.78-6.24,15.59,14.45-4.74-11.38,20.45,18.13-3.99-12.36,10.94,9.3-.33-6.61,15.07,6.95-17.3-13.29,15.11-2.58-20.57-6.41,11.47-6.88s-13.5.53-17.04-.28c-3.54-.8-8.33-2.95-8.33-2.95l10.65-4.43-39.09-2.16Z"/>
        </g>
        <g>
          <g>
            <path class="cls-1" d="M67.56,157.97c1.65,1.59,9.1,1.21,9.1,1.21,8.63,0,15.62-7.74,15.62-17.29s-7-17.29-15.62-17.29c0,0-2.32-.6-4.47-.43-2.15.17-9.21,12.1-9.06,17.29.15,5.2,1.55,13.73,4.44,16.52Z"/>
            <g class="cls-25">
              <polygon class="cls-51" points="78.75 159.01 78.33 155.1 84.94 146.53 89.11 143.85 93.82 143.29 96.32 151.86 90.32 161.56 78.59 163.81 78.75 159.01"/>
            </g>
            <path class="cls-7" d="M67.56,157.97c1.65,1.59,9.1,1.21,9.1,1.21,8.63,0,15.62-7.74,15.62-17.29s-7-17.29-15.62-17.29c0,0-2.32-.6-4.47-.43-2.15.17-9.21,12.1-9.06,17.29.15,5.2,1.55,13.73,4.44,16.52Z"/>
          </g>
          <ellipse class="cls-4" cx="72.19" cy="141.45" rx="15.62" ry="17.29"/>
          <g>
            <path class="cls-1" d="M119.87,129.62s12.04,1.26,16.63,3.85c4.59,2.58,10.24,8.66,10.24,8.66v12.39s-10.82,10.53-16.7,10.97-12.49-.27-12.49-.27l-6-18.71,8.31-16.89Z"/>
            <g class="cls-30">
              <path class="cls-51" d="M117.55,165.22s11.46-8.16,15.17-8.51c3.71-.35,10.53-.97,14.02-3.63s4.59,4.15,4.59,4.15c0,0-7.07,10.3-7.5,10.75s-21.36,3.09-21.36,3.09l-4.92-5.87"/>
            </g>
            <path class="cls-7" d="M119.87,129.62s12.04,1.26,16.63,3.85c4.59,2.58,10.24,8.66,10.24,8.66v12.39s-10.82,10.53-16.7,10.97-12.49-.27-12.49-.27l-6-18.71,8.31-16.89Z"/>
          </g>
          <ellipse class="cls-4" cx="119" cy="147.42" rx="16.08" ry="17.8"/>
          <ellipse class="cls-13" cx="71.93" cy="141.45" rx="11.67" ry="12.92"/>
          <ellipse class="cls-13" cx="118.41" cy="147.05" rx="12.34" ry="13.66"/>
          <path class="cls-2" d="M142.98,141.85s2.32-1.36,3.76-1.08c1.44.28,1.96,1.62,1.96,1.62v11.75l-2.21-1.31-3.5-.12v-10.87Z"/>
          <g>
            <polygon class="cls-42" points="146.73 154.52 155.81 153.34 155.92 141.99 146.73 140.77 146.73 154.52"/>
            <g class="cls-40">
              <path class="cls-48" d="M146.73,152.14l10.98-4.48s-1.08,8.63-.25,10.34c.83,1.71-14.49,2.71-14.49,2.71l3.76-8.57Z"/>
            </g>
            <polygon class="cls-7" points="146.73 154.52 155.81 153.34 155.92 141.99 146.73 140.77 146.73 154.52"/>
          </g>
          <g>
            <polygon class="cls-42" points="155.92 142.1 155.81 153.44 163.52 150.43 171.34 150.83 169.41 141.88 155.92 142.1"/>
            <g class="cls-46">
              <polygon class="cls-48" points="155.81 148.48 164.77 145.82 173.36 145.12 179.11 147.66 178.26 158 155.81 159.22 152.53 151.02 155.81 148.48"/>
            </g>
            <polygon class="cls-7" points="155.92 142.1 155.81 153.44 163.52 150.43 171.34 150.83 169.41 141.88 155.92 142.1"/>
          </g>
          <ellipse class="cls-13" cx="138.2" cy="140.13" rx="1.47" ry="1.95" transform="translate(-35.66 47.88) rotate(-17.45)"/>
          <ellipse class="cls-13" cx="136.72" cy="157.99" rx="1.95" ry="1.47" transform="translate(-70.9 181.4) rotate(-55.56)"/>
          <ellipse class="cls-13" cx="138.99" cy="148.48" rx="1.47" ry="1.95"/>
          <g>
            <path class="cls-1" d="M97.69,137.38c-2.46-.3-7.41-.18-7.37.59.04.77,0,7.72,0,7.72,0,0,4.39-1.37,6.55-1.07,2.16.3,6.44,1.9,6.44,1.9.3-3.68,1.58-6.77.53-7.48-1.95-.83-6.14-1.66-6.14-1.66Z"/>
            <g class="cls-41">
              <path class="cls-51" d="M87.81,143.71s4.57-3.09,9.07-2.88,10.88,5.01,10.88,5.01l-.48,10.34-19.47-4.88v-7.59Z"/>
            </g>
            <path class="cls-7" d="M97.69,137.38c-2.46-.3-7.41-.18-7.37.59.04.77,0,7.72,0,7.72,0,0,4.39-1.37,6.55-1.07,2.16.3,6.44,1.9,6.44,1.9.3-3.68,1.58-6.77.53-7.48-1.95-.83-6.14-1.66-6.14-1.66Z"/>
          </g>
        </g>
        <g>
          <path class="cls-23" d="M98.04,161.77c3.89-.98,4.69-.61,6.43.81,1.74,1.43,2.04,6.03,1.94,6.67-.34,2.26-7.99,1.66-8.84.53-.6-.8-4.59,3.29-5.51,3.87s-7.07.48-8.02,0-3.92-5.7-3.8-6.89c.12-1.19,3.84-10.69,4.91-14.01.47-1.45,1.96-3.57,3.59-5.67,2.1-2.7,2.53-3.76,7.7-3.23,5.17.53,6.48,2.46,6.48,3.57,0,0-.35,2.53.65,7.61"/>
          <g class="cls-20">
            <path class="cls-34" d="M89.51,174.03s3.38-2.56,4.43-3.67c1.05-1.1,2.49-2.9,3.88-2.58s5.99,1.58,7.48-.21c1.5-1.79,2.66-3.37,2.66-3.37l1.37,4.85-.95,9.28-11,.95-7.86-5.24Z"/>
          </g>
          <path class="cls-7" d="M98.04,161.77c3.89-.98,4.69-.61,6.43.81,1.74,1.43,2.04,6.03,1.94,6.67-.34,2.26-7.99,1.66-8.84.53-.6-.8-4.59,3.29-5.51,3.87s-7.07.48-8.02,0-3.92-5.7-3.8-6.89c.12-1.19,3.84-10.69,4.91-14.01.47-1.45,1.96-3.57,3.59-5.67,2.1-2.7,2.53-3.76,7.7-3.23,5.17.53,6.48,2.46,6.48,3.57,0,0-.35,2.53.65,7.61"/>
        </g>
        <g>
          <g>
            <path class="cls-29" d="M106.73,132.89c.57.6.39.7,1.6.1,1.52-.76,7.55-3.71,11.38-5.89,3.03-1.73,9.54-2.64,14.43-2.29,4.89.35,11.92,4.18,12.19,3.73s-1.58-3.16-2.32-4.41-2.98-2.73-4.82-3.36c1.34.21,2.61.3,3.03.53s3.21.31,3.62.01-.57-1.98-1.2-2.66-3.13-1.96-6.28-3.27-7.61.54-9.22,1.37c1.54-1.34,6.42-4.62,7.58-4.32-2.49-.45-6.42-.51-8.67.85-2.26,1.37-6.03,3.38-6.03,3.38,0,0,1.72-2.67,1.13-3.09-.59-.42-3.45,2.14-4.46,3.21-1.01,1.07-10.63,13.42-10.63,13.42,0,0-1.91,2.07-1.34,2.67Z"/>
            <g class="cls-44">
              <path class="cls-47" d="M120.41,126.51s4.74-2.34,7.54-3.03,8.32-1.26,11.26.14c2.94,1.41,8.99,5.19,8.99,5.19l-3.66,11.1-20.38-6.51-3.75-6.89"/>
              <path class="cls-7" d="M139.18,120.77s1.72-.84,4.03-.83,7.01-1.54,7.01-1.54l1.1,2.91-3.7,2.08-8.44-2.63"/>
            </g>
            <path class="cls-7" d="M106.73,132.89c.57.6.39.7,1.6.1,1.52-.76,7.55-3.71,11.38-5.89,3.03-1.73,9.54-2.64,14.43-2.29,4.89.35,11.92,4.18,12.19,3.73s-1.58-3.16-2.32-4.41-2.98-2.73-4.82-3.36c1.34.21,2.61.3,3.03.53s3.21.31,3.62.01-.57-1.98-1.2-2.66-3.13-1.96-6.28-3.27-7.61.54-9.22,1.37c1.54-1.34,6.42-4.62,7.58-4.32-2.49-.45-6.42-.51-8.67.85-2.26,1.37-6.03,3.38-6.03,3.38,0,0,1.72-2.67,1.13-3.09-.59-.42-3.45,2.14-4.46,3.21-1.01,1.07-10.63,13.42-10.63,13.42,0,0-1.91,2.07-1.34,2.67Z"/>
          </g>
          <g>
            <path class="cls-29" d="M90.6,134.86s-.74.8-2.17-1.9c-1.43-2.7-9.35-12.53-12.8-13.6-3.44-1.07-5.48-.84-10.65,2.84.56-3.24,1.31-5.54,3.54-5.87-2.09-2.14-3.72-2.4-3.72-2.4,2.11-3.29,5.4-.66,6.35-.31-1.84-2.26-2.71-5.96-2.71-5.96,4.01,0,7.16.39,10.21,4.87-.65-2.55-.68-3.53-1.07-3.98,1.31.53,6.5,5.17,8.67,10.69,2.17,5.52,4.57,10.01,4.33,15.62Z"/>
            <g class="cls-18">
              <path class="cls-47" d="M71.09,118.97s4.11-.35,7.32.91c2.12.84,9.4,8.65,9.4,8.65l5.51,6.44-1.29,13.51-13.59-17.75-8.54-7.96,1.2-3.8Z"/>
              <path class="cls-28" d="M64.81,113.94s3.05-.62,4.38.66c1.34,1.28.42,1.77.42,1.77l-1.09-.04-3.72-2.4"/>
              <path class="cls-47" d="M65.45,120.04s1.99-1.49,3.54-1.91,3.87-.21,4.71.84.63,3.8.63,3.8l-7.31,3.05-3.89-1.7,2.33-4.09Z"/>
              <polygon class="cls-27" points="67.55 104.38 68.45 107.67 72.68 109.99 78.9 114.6 78.67 112.54 75.97 105.96 72.19 103.86 67.55 104.38"/>
              <polyline class="cls-27" points="64.81 113.94 68.25 113.45 71.16 113.63 67.09 109.99 64.81 111.02 64.04 112.44 64.81 113.94"/>
              <polygon class="cls-27" points="77.6 108.56 82.62 116.08 85.45 120.51 87.81 122.2 91.72 123.46 88.6 112.44 80.24 108.71 77.6 108.56"/>
            </g>
            <path class="cls-7" d="M90.6,134.86s-.74.8-2.17-1.9c-1.43-2.7-9.35-12.53-12.8-13.6-3.44-1.07-5.48-.84-10.65,2.84.56-3.24,1.31-5.54,3.54-5.87-2.09-2.14-3.72-2.4-3.72-2.4,2.11-3.29,5.4-.66,6.35-.31-1.84-2.26-2.71-5.96-2.71-5.96,4.01,0,7.16.39,10.21,4.87-.65-2.55-.68-3.53-1.07-3.98,1.31.53,6.5,5.17,8.67,10.69,2.17,5.52,4.57,10.01,4.33,15.62Z"/>
          </g>
        </g>
        <path class="cls-7" d="M144.53,165.22s-4.82,8.04-13.79,11.73"/>
        <path class="cls-7" d="M91.72,112.44s3.27,4.32,9.91,4.32c6.64,0,12.76-2.95,12.76-2.95"/>
        <path class="cls-7" d="M94.78,108.22s3.48,3.54,7.7,3.54,8.22-3.54,8.22-3.54"/>
        <path class="cls-7" d="M99.73,126.67s-1.39,5.43,3.32,6.73"/>
        <path class="cls-7" d="M103.63,125.83s-1.51,4.56-.12,6.39"/>
        <path class="cls-7" d="M92.88,126.21s1.33,3.82-.6,6"/>
        <path class="cls-7" d="M168.36,158.75c0-.56-1.26-5.62-3.37-4.99-2.11.63-9.17,8.82-9.17,8.82v3.05s2.64,1.83,2.42,3.94c-.21,2.11-2.42,3.69-2.42,3.69"/>
        <path class="cls-7" d="M162.08,156.18s3.32,2.68,3.32,6.4-.74,5.41-.74,5.41"/>
        <path class="cls-7" d="M154.84,153.85s-2.93,1.16-4.62,6.86"/>
      </g>
      <g>
        <path class="cls-32" d="M208.69,354.4s21.93-14.69,28.67-19.75c6.75-5.06,25.72-26.94,17.71-37.5-8.01-10.57-37.95-42.89-37.95-42.89l-2.53-7.31h-5.9l-18.57-24.89s-21.54,1.91-21.76,29.42c-.22,27.51,14.6,32.82,14.6,32.82l20.39,13.93,3.37,6.38-10.11,12.44-9.29,17.39,21.36,19.96Z"/>
        <g class="cls-21">
          <path class="cls-19" d="M168.36,255.8s8,15.81,11.8,17.08,9.7,1.97,9.7,1.97l-4.85,2.06s25.3,14.74,26.78,14.11,7.8-2.78,7.8-2.78l-8.64,11.18h6.54l-2.95,2.98s9.91-2.53,15.28-1.37c-9.17.42-23.08,3.58-23.08,3.58,0,0-29.76,1.18-29.83,1.45s-15.6-36.13-15.71-36.55,3.37-12.76,3.37-12.76l3.8-.95Z"/>
          <path class="cls-19" d="M225.91,320.31s8.12,10.01,9.38,18.03c1.26,8.01,9.8,2.85,9.8,2.85l11.92-15.39s.1-19.61-2.11-23.93c-2.21-4.32-10.23-14.34-10.23-14.34,0,0,10.61,15.32.11,25.83-13.61,13.61-18.87,6.96-18.87,6.96Z"/>
          <path class="cls-19" d="M202.93,245.26s-13.91,6.54-18.34,17.08c7.59-3.37,21.72-9.91,21.72-9.91l17.92,13.07-9.28-9.91-2.26-6.54-4.07,1.51-5.69-5.3Z"/>
          <path class="cls-7" d="M217.48,299.42s5.13-5.29,16.37-4"/>
          <line class="cls-7" x1="236.66" y1="301.37" x2="229.81" y2="301.02"/>
          <path class="cls-7" d="M234.34,310.98s-10.21-5.81-21.65-5.4"/>
        </g>
        <path class="cls-7" d="M208.69,354.4s21.93-14.69,28.67-19.75c6.75-5.06,25.72-26.94,17.71-37.5-8.01-10.57-37.95-42.89-37.95-42.89l-2.53-7.31h-5.9l-18.57-24.89s-21.54,1.91-21.76,29.42c-.22,27.51,14.6,32.82,14.6,32.82l20.39,13.93,3.37,6.38-10.11,12.44-9.29,17.39,21.36,19.96Z"/>
      </g>
      <g>
        <path class="cls-14" d="M196.62,313.29s15.17-1.63,23.32,6.63c8.15,8.27,15.18,22.32,14.34,25.13-.84,2.81-37.66,19.68-37.66,19.68l-7.04,7.03-1.69,4.5-3.09,3.65,4.5,2.81s1.37,2.7.02,5.04c-1.35,2.34-4.51,4.42-7.04,6.16s-8.64,1.73-11.81,1.73-9.7-7.87-9.7-7.87c0,0-4.94-5.48-6.69-9.7-1.74-4.22-.97-6.89-1.81-10.19-.84-3.3,1.4-8.9,5.16-11.8,3.76-2.89,17.26-11.04,17.26-11.04l21.94-31.76Z"/>
        <g class="cls-43">
          <path class="cls-50" d="M185.64,361s7.4-6.96,13.71-9.07,22.55-13.28,22.55-13.28l10.33-6.45s10.33,16.78,6.75,21.21c-3.58,4.43-22.14,14.55-22.14,14.55l-20.23,7.59-10.97-14.55Z"/>
          <path class="cls-50" d="M192.28,372.6s-5.59-6.96-5.59-5.69-1.26,5.9-3.16,7.8-9.24,6.87-9.24,6.87l2.91,2.62,7.59-4.29,7.48-7.31Z"/>
          <path class="cls-50" d="M189.3,382.72s-1.76,5.48-5.13,7.38c-3.37,1.9-9.24,5.07-9.24,5.07l3.33,6.99,21.08-1.52,1.05-17.5-11.1-.42"/>
          <path class="cls-7" d="M196.62,319.05s11.58-1.98,18.75,7.66c7.17,9.63,11.17,21.31,11.17,21.31"/>
          <line class="cls-7" x1="176.94" y1="386.57" x2="184.8" y2="379.91"/>
        </g>
        <path class="cls-7" d="M196.62,313.29s15.17-1.63,23.32,6.63c8.15,8.27,15.18,22.32,14.34,25.13-.84,2.81-37.66,19.68-37.66,19.68l-7.04,7.03-1.69,4.5-3.09,3.65,4.5,2.81s1.37,2.7.02,5.04c-1.35,2.34-4.51,4.42-7.04,6.16s-8.64,1.73-11.81,1.73-9.7-7.87-9.7-7.87c0,0-4.94-5.48-6.69-9.7-1.74-4.22-.97-6.89-1.81-10.19-.84-3.3,1.4-8.9,5.16-11.8,3.76-2.89,17.26-11.04,17.26-11.04l21.94-31.76Z"/>
      </g>
      <g>
        <path class="cls-14" d="M7.14,281.82s-1.97,16.57,16.87,22.89c18.83,6.32,27.27-5.3,27.27-5.3l2.53-39.62,2.81-2.45v-3.09l2.51-1.97,1.15-5.9,8.43-1.69,4.78-7.03v-8.18l6.76-8.09-8.73-12.12h-27.85l-5.88,31.76-30.64,40.78Z"/>
        <g class="cls-36">
          <path class="cls-50" d="M80.24,269.51l-16.25-3.79,3.55,26.14-18.47,15.62-21.56,5.82,4.98-10.26,12.1-40.06,6.25-2.04-7.19-1.13,7.19-4.21.7-11.33,6.11.58,7.6-2.1,4.84-7.17-2.56-7.38,4.38-5.06-2.24-5.98,1.83-7.86,8.73,12.12,11.79,11.02s-2.91,31.18-2.93,33.07c-.02,1.9-28.84-19.12-28.84-19.12"/>
          <polyline class="cls-7" points="50.85 215.11 69.9 219.2 71.93 223.12 72.19 226.45 69.79 229.49 53.24 223.54"/>
          <polyline class="cls-7" points="57.67 244.84 56.57 241.25 56.57 237.39 65.93 237.39 52.61 237.39"/>
          <path class="cls-7" d="M12.13,281.82s4.01,10.93,14.34,14.8c10.33,3.87,21.88-2,21.88-2"/>
          <path class="cls-7" d="M33.43,250.56s-.55,9.6,5.95,11.07"/>
          <path class="cls-7" d="M40.42,257.94s5.86,2,11.55,0"/>
        </g>
        <path class="cls-7" d="M7.14,281.82s-1.97,16.57,16.87,22.89c18.83,6.32,27.27-5.3,27.27-5.3l2.53-39.62,2.81-2.45v-3.09l2.51-1.97,1.15-5.9,8.43-1.69,4.78-7.03v-8.18l6.76-8.09-8.73-12.12h-27.85l-5.88,31.76-30.64,40.78Z"/>
      </g>
      <g>
        <path class="cls-14" d="M43.66,209.28l15.46-12.82,10.85-3.35h16.21s-.03,9.38-7.06,9.7c-7.02.32-14.42.56-15.79,3.51l-1.37,2.95h-18.29Z"/>
        <g class="cls-15">
          <path class="cls-50" d="M56.57,209.28s7.11-8.76,11.86-8.87c4.75-.11,16.68-.69,16.68-.69l5.52,1.48-8,4.22-13.98,3.87-8.37,3.2-3.7-3.2Z"/>
        </g>
        <path class="cls-7" d="M43.66,209.28l15.46-12.82,10.85-3.35h16.21s-.03,9.38-7.06,9.7c-7.02.32-14.42.56-15.79,3.51l-1.37,2.95h-18.29Z"/>
      </g>
    </g>
  </g>
</svg>