<?xml version="1.0" encoding="UTF-8"?>
<svg id="charges" xmlns="http://www.w3.org/2000/svg" xmlns:xlink="http://www.w3.org/1999/xlink" viewBox="0 0 400 400">
  <defs>
    <style>
      .cls-1, .cls-2, .cls-3, .cls-4, .cls-5, .cls-6, .cls-7, .cls-8, .cls-9, .cls-10, .cls-11 {
        stroke-linejoin: round;
      }

      .cls-1, .cls-2, .cls-3, .cls-4, .cls-5, .cls-6, .cls-7, .cls-8, .cls-9, .cls-11 {
        stroke: #231f20;
      }

      .cls-1, .cls-2, .cls-3, .cls-4, .cls-5, .cls-7, .cls-10, .cls-11 {
        stroke-linecap: round;
      }

      .cls-1, .cls-12 {
        fill: #a8c0b7;
      }

      .cls-13, .cls-7 {
        fill: #8e6d56;
      }

      .cls-14 {
        clip-path: url(#clippath-6);
      }

      .cls-15 {
        clip-path: url(#clippath-7);
      }

      .cls-2, .cls-16 {
        fill: #e7c6b8;
      }

      .cls-17 {
        clip-path: url(#clippath-4);
      }

      .cls-3, .cls-18, .cls-9 {
        fill: #65553f;
      }

      .cls-4, .cls-19 {
        fill: #f9ac1e;
      }

      .cls-20 {
        clip-path: url(#clippath-9);
      }

      .cls-21 {
        clip-path: url(#clippath-10);
      }

      .cls-22 {
        fill: #ffda96;
      }

      .cls-23 {
        clip-path: url(#clippath-11);
      }

      .cls-24, .cls-5, .cls-6, .cls-10 {
        fill: none;
      }

      .cls-25 {
        fill: #453326;
      }

      .cls-26 {
        clip-path: url(#clippath-1);
      }

      .cls-27 {
        fill: #b9a7a0;
      }

      .cls-28 {
        clip-path: url(#clippath-5);
      }

      .cls-29 {
        clip-path: url(#clippath-8);
      }

      .cls-30 {
        clip-path: url(#clippath-3);
      }

      .cls-8, .cls-31, .cls-11 {
        fill: #b2915b;
      }

      .cls-32 {
        fill: #90cef1;
      }

      .cls-33 {
        clip-path: url(#clippath-2);
      }

      .cls-34 {
        fill: #c5892b;
      }

      .cls-10 {
        stroke: #cae8e1;
        stroke-width: 7px;
      }

      .cls-35 {
        fill: #998563;
      }

      .cls-36 {
        fill: #65493e;
      }

      .cls-37 {
        clip-path: url(#clippath);
      }
    </style>
    <clipPath id="clippath">
      <path class="cls-4" d="M270.03,214.69s1.17-10.14,7.04-17.68c5.87-7.54,11.05-18.22,11.05-18.22,0,0-5.05-1.34-7.51-.94-2.46.4-7.7,2.45-7.7,2.45,0,0,7.08-10.15,6.76-20.39-.32-10.24.43-21.64-1.15-25.69-1.59-4.05-7.14-15.4-7.14-15.4,0,0-.63,9.37-2.22,13.02-1.59,3.65-5.07,15.39-5.07,15.39,0,0-2.07-22.05-3.42-26.34-1.35-4.29-4.52-13.73-12.78-22.22-8.25-8.49-20.64-16.51-20.64-16.51,0,0,9.69,11.93,9.21,17.73-.48,5.79-1.49,13.34-1.49,13.34,0,0-5.15-17.97-15.47-25.98-10.32-8.02-24.84-15.32-29.84-16.19-5-.87-15.56-2.54-15.56-2.54,0,0,10.3,10.85,13.4,17.59,3.1,6.75,3.65,9.68,3.65,9.68,0,0-12.62-6.59-23.65-9.21-11.03-2.62-28.28-1.81-39.63-.22-11.35,1.59-23.97,7.78-23.97,7.78,0,0,15.72,1.91,19.37,5.96s10.42,12.94,10.42,12.94c0,0-8.83-3.42-14.79-1.75-5.95,1.67-18.18,10.08-27.23,9.92-9.05-.16-15.32-4.52-15.32-4.52,0,0,1.11,13.49,7.86,21.35,6.75,7.86,10,12.38,16.98,12.78-7.62.32-13.81,3.57-20.32,9.6-6.51,6.03-15,14.21-21.35,34.68,4.52-1.35,11.76-4.39,17.23-3.91,5.48.48,10.33.38,10.33.38-5.79,5-19.56,23.56-21.23,40.39,5.32-.24,21.04-9.71,32.47-4.47-4.6,5.79-10.66,14.48-11.06,26.23,8.41-3.1,14.07-7.89,24.55-5.43-2.78,8.02-6.02,15.12-5.39,20.75,4.92-3.02,14.03-1.19,17.92-1.19s15.9,5.07,15.9,5.07l59.63-14.98,65.91-26.01,4.22-17.23Z"/>
    </clipPath>
    <clipPath id="clippath-1">
      <path class="cls-2" d="M262.58,294.51l-2.72,11.72s-.89,15.41-3.69,17.01-17.57,9.69-23.35,9.87c-5.77.18-11.37.18-13.16-.89-1.79-1.07-10.36-4.51-14.95-8.98-4.58-4.46-33.08-20.86-33.67-22.34s-13.31-25.36-13.31-25.36c0,0-6.59,6.26-11.29,2.63-4.7-3.63-10.86-6.28-13.3-9.14s-7.49-9.51-8.2-15.64c-.71-6.13-1.19-10.36,1.55-14.52,2.74-4.17,5.12-5.54,9.29-4.64,4.17.89,13.37,7.82,13.37,7.82l3.93-18.99v-10.78l-7.53-10.94s-.81-5.96-.57-7.33c.24-1.37,5-11.25,10-16.85,5-5.6,11.79-11.55,15.36-11.55s14.41-.36,21.13,1.73c6.73,2.08,28.31,8.12,28.31,8.12l16.55-15.54s6.41,5.64,11.23,9.03c4.82,3.39,7.3,11.11,10.33,16.82,3.04,5.71,7.54,19.16,7.93,23.68.4,4.52,1.89,23.54,1.89,23.54l-2.93,9.04s5.3,6.9,4.35,13.21c-.95,6.31-6.73,12.86-6.73,12.86,0,0,4.5,9.1,3.42,14.57-1.08,5.48-3.24,11.84-3.24,11.84Z"/>
    </clipPath>
    <clipPath id="clippath-2">
      <path class="cls-4" d="M236.86,264.67l30.43-10.97-4.84,8.49s8.65.65,11.18.11c2.53-.54,15.39-7.24,15.39-7.24l-9.72,13.96,21.36-5.49-15.59,15.71,16.99,8.16-23.05.43,9.11,10.15-20.43-11.32,12.44,17.36-27.85-21.4,3.6,10.1-17.83-12.06-16.34,19.73-1.04-8.34-20.84,19.32,6.34-15.22-27.33,24.23,5.33-16.53-14.62,12.44.44-8.84-20.15,9.28,23.13-17.76-20.2-3.44,27.49-8.56-15.33-9.2s18.05.7,22.78-.37c4.73-1.08,11.13-3.95,11.13-3.95l-14.23-5.92,52.25-2.88Z"/>
    </clipPath>
    <clipPath id="clippath-3">
      <path class="cls-7" d="M266.19,247.45c-2.12,1.76-12.55,1.7-12.55,1.7-11.53,0-20.88-10.35-20.88-23.12s9.35-23.12,20.88-23.12c0,0,3.1-.8,5.97-.57,2.87.22,12.32,16.17,12.12,23.12-.2,6.94-3.41,20.23-5.54,21.99Z"/>
    </clipPath>
    <clipPath id="clippath-4">
      <path class="cls-7" d="M195.89,209.64s-19.09,1.69-25.22,5.14c-6.13,3.45-13.69,11.57-13.69,11.57v16.57s14.46,14.07,22.32,14.66c7.86.59,19.69-.36,19.69-.36l8.01-25-11.11-22.58Z"/>
    </clipPath>
    <clipPath id="clippath-5">
      <path class="cls-3" d="M225.52,220.02c3.29-.4,9.91-.24,9.85.79-.06,1.03,0,10.32,0,10.32,0,0-5.87-1.83-8.76-1.43s-8.6,2.54-8.6,2.54c-.4-4.92-2.12-9.05-.7-10,2.61-1.11,8.21-2.22,8.21-2.22Z"/>
    </clipPath>
    <clipPath id="clippath-6">
      <polygon class="cls-9" points="159.45 244.47 149.1 241.75 148.46 225.46 158.82 224.58 159.45 244.47"/>
    </clipPath>
    <clipPath id="clippath-7">
      <path class="cls-9" d="M148.46,225.46l.64,16.29-8.43-5.82-6.84-1.97-3.24.68,3.25-4.45s3.95-1.61,6.41-2.65c2.47-1.04,8.2-2.08,8.2-2.08Z"/>
    </clipPath>
    <clipPath id="clippath-8">
      <polygon class="cls-8" points="162.18 228.19 159.45 226.82 154.89 227.97 155.64 241.76 160.04 241.58 163.41 240.88 162.18 228.19"/>
    </clipPath>
    <clipPath id="clippath-9">
      <path class="cls-2" d="M225.05,252.62c-5.2-1.31-6.27-.82-8.59,1.09-2.32,1.9-2.72,8.06-2.59,8.92.45,3.02,10.68,2.22,11.81.7.8-1.08,6.14,4.4,7.36,5.17s9.45.63,10.72,0,5.24-7.62,5.08-9.21c-.16-1.59-5.13-14.29-6.56-18.73-.62-1.94-2.62-4.77-4.8-7.57-2.81-3.62-3.38-5.03-10.29-4.32-6.9.7-8.66,3.29-8.66,4.77,0,0,.46,3.38-.87,10.18"/>
    </clipPath>
    <clipPath id="clippath-10">
      <path class="cls-4" d="M213.45,214.01c-.76.81-.52.93-2.13.13-2.03-1.01-10.09-4.96-15.21-7.87-4.05-2.31-12.75-3.52-19.29-3.05-6.54.47-15.94,5.58-16.3,4.99s2.11-4.23,3.1-5.89c.99-1.67,3.98-3.65,6.44-4.49-1.79.28-3.49.4-4.05.71-.56.32-4.28.42-4.84.02-.56-.4.77-2.65,1.6-3.56.83-.91,4.18-2.62,8.39-4.37,4.21-1.75,10.18.72,12.32,1.83-2.06-1.79-8.58-6.17-10.13-5.78,3.33-.6,8.58-.69,11.59,1.14,3.02,1.83,8.06,4.52,8.06,4.52,0,0-2.3-3.57-1.51-4.13.79-.56,4.61,2.86,5.96,4.29s14.2,17.94,14.2,17.94c0,0,2.56,2.77,1.8,3.57Z"/>
    </clipPath>
    <clipPath id="clippath-11">
      <path class="cls-4" d="M235,216.65s.99,1.07,2.9-2.54c1.9-3.61,12.5-16.75,17.1-18.18s7.33-1.12,14.24,3.8c-.75-4.33-1.75-7.41-4.73-7.84,2.79-2.87,4.97-3.21,4.97-3.21-2.82-4.4-7.22-.88-8.49-.41,2.46-3.02,3.62-7.97,3.62-7.97-5.36,0-9.56.52-13.65,6.51.87-3.41.91-4.72,1.43-5.32-1.75.71-8.69,6.9-11.59,14.29-2.9,7.38-6.11,13.37-5.79,20.87Z"/>
    </clipPath>
  </defs>
  <path class="cls-32" d="M200,44.29c85.99,0,155.71,69.71,155.71,155.71s-69.71,155.71-155.71,155.71S44.29,285.99,44.29,200,114.01,44.29,200,44.29M200,34.29c-44.26,0-85.87,17.24-117.17,48.53s-48.53,72.91-48.53,117.17,17.24,85.87,48.53,117.17c31.3,31.3,72.91,48.53,117.17,48.53s85.87-17.24,117.17-48.53c31.3-31.3,48.53-72.91,48.53-117.17s-17.24-85.87-48.53-117.17-72.91-48.53-117.17-48.53h0Z"/>
  <g>
    <g>
      <path class="cls-19" d="M270.03,214.69s1.17-10.14,7.04-17.68c5.87-7.54,11.05-18.22,11.05-18.22,0,0-5.05-1.34-7.51-.94-2.46.4-7.7,2.45-7.7,2.45,0,0,7.08-10.15,6.76-20.39-.32-10.24.43-21.64-1.15-25.69-1.59-4.05-7.14-15.4-7.14-15.4,0,0-.63,9.37-2.22,13.02-1.59,3.65-5.07,15.39-5.07,15.39,0,0-2.07-22.05-3.42-26.34-1.35-4.29-4.52-13.73-12.78-22.22-8.25-8.49-20.64-16.51-20.64-16.51,0,0,9.69,11.93,9.21,17.73-.48,5.79-1.49,13.34-1.49,13.34,0,0-5.15-17.97-15.47-25.98-10.32-8.02-24.84-15.32-29.84-16.19-5-.87-15.56-2.54-15.56-2.54,0,0,10.3,10.85,13.4,17.59,3.1,6.75,3.65,9.68,3.65,9.68,0,0-12.62-6.59-23.65-9.21-11.03-2.62-28.28-1.81-39.63-.22-11.35,1.59-23.97,7.78-23.97,7.78,0,0,15.72,1.91,19.37,5.96s10.42,12.94,10.42,12.94c0,0-8.83-3.42-14.79-1.75-5.95,1.67-18.18,10.08-27.23,9.92-9.05-.16-15.32-4.52-15.32-4.52,0,0,1.11,13.49,7.86,21.35,6.75,7.86,10,12.38,16.98,12.78-7.62.32-13.81,3.57-20.32,9.6-6.51,6.03-15,14.21-21.35,34.68,4.52-1.35,11.76-4.39,17.23-3.91,5.48.48,10.33.38,10.33.38-5.79,5-19.56,23.56-21.23,40.39,5.32-.24,21.04-9.71,32.47-4.47-4.6,5.79-10.66,14.48-11.06,26.23,8.41-3.1,14.07-7.89,24.55-5.43-2.78,8.02-6.02,15.12-5.39,20.75,4.92-3.02,14.03-1.19,17.92-1.19s15.9,5.07,15.9,5.07l59.63-14.98,65.91-26.01,4.22-17.23Z"/>
      <g class="cls-37">
        <path class="cls-34" d="M65.88,231.95s8.83-13.2,22.36-17.26c13.53-4.06,52.98-5.72,52.98-5.72l4.32-7.64,8.37,13.36,7.64,34.52-7.64,23.69-14.59,19.82-29.11-5.68-1.97-15.27,7.61-18.08s-1.15-4.94-4.01-5.43c-2.85-.49-21.64,8.85-21.64,8.85l1.2-5.12s5.75-16.37,10.26-22.15c-.65-1.07-2.71-2.53-2.71-2.53l-23.68,5.77-9.39-1.16"/>
        <path class="cls-34" d="M146.29,190.81l-4.79-10.51-21.7-1.51,24.76-4.79-20.18-7.61,26.16-2.54-4.26-3.94s19.44-1.98,29.03,4.5c-11.27-7.33-24.77-8.74-24.77-8.74l-12.99-5.35s21.31-1.69,35.31,5.07c14,6.76,20.12,6.48,20.12,6.48l-9.02-8.45,9.02,1.97,15.94,9.3s-28.82-24.23-33.33-28.18c9.02,3.38,21.7,12.4,24.23,15.22,2.54,2.82,12.85,12.68,12.85,12.68l2.08-4.5,5.92,4.79s4.79-21.7-.28-39.73c5.07,9.02,7.23,20.29,6.43,27.05-.8,6.76-2.74,14.7-6,22.43-3.26,7.72-8.16,25.78-8.16,25.78l-43.83-2.24-22.57-7.17Z"/>
        <path class="cls-34" d="M222.62,170.71s11.17-15.87,13.64-21.79c2.46-5.92,4.66-20.29,4.66-20.29l1.47,16.34s-1.42,7.34-6.06,14.94c-4.64,7.6-13.7,10.8-13.7,10.8Z"/>
        <path class="cls-34" d="M243.72,166.07s3.13-3.91,5.12-10.39c1.99-6.48,4.25-14.94,4.25-14.94,0,0,.56,13.53-.56,17.75s-3.68,15.78-3.68,15.78l-9,6.02-3.59-2.08,7.46-12.16Z"/>
        <path class="cls-34" d="M248.84,179.07v-4.79l5.71-6.2-1.2,8.34,3.16-.17,3.06-5.54,1.13,7.51s5.14-5.92,8.63-16.63c-1.02,8.45-6.94,24.17-6.94,24.17l-2.35,4.73,5.78-4.73-3.51,10.72-7.75,6.26-5.76-6.2-2.52-9.55,2.57-7.92Z"/>
        <path class="cls-34" d="M54.99,208.83l4.56-13.74s10.66-11.8,20.8-12.65c10.14-.85,17.19-.28,31.2,5.35-14.17-1.41-27.82,7.08-27.82,7.08l-28.74,13.95Z"/>
        <path class="cls-34" d="M101.21,150.81s16.9-7.81,24.5-7.25c-15.78-2.82-39.73-8.74-45.09-14.94-5.35-6.2-9.3-11.84-9.3-11.84l-3.38,20.29,15.5,7.61,17.77,6.12Z"/>
        <path class="cls-34" d="M133.7,113.03s15.31,3.19,20.57,7.42c-2.63-8.74-16.25-19.87-30.99-20.36-14.75-.49,10.42,12.94,10.42,12.94Z"/>
        <path class="cls-34" d="M186.59,91.15l15.22,14.37s-3.52-22.26-14.86-26.49c-11.34-4.23-22.03-6.2-22.03-6.2l2.88,7.33,12.25,7.89,3.32,1.13,3.23,1.97Z"/>
        <path class="cls-22" d="M288.13,178.79s-14.38,3.38-16.02,4.7c-1.64,1.32.8-3.18.8-3.18l12.21-8.47,3.01,2.25v4.7Z"/>
        <path class="cls-22" d="M277.73,170.71s.62-22.92-.97-28.93-3.66-11.84-3.66-11.84l-9.02,17.28,2.63-33.82,7.42-2.82s7.99,11.46,7.8,12.4,12.96,33.44,12.96,33.44l-17.16,14.28Z"/>
        <path class="cls-22" d="M263.28,139.28s-6.9-24.56-11.22-29.63c-4.32-5.07-12.65-16.16-20.13-20.85-7.48-4.7-8.05-12.21-8.05-12.21l5.43-1.69,19.54,10.71,15.61,27.43,1.36,21.04-2.54,5.21Z"/>
        <path class="cls-22" d="M234.98,113.22s-14.02-22.36-28.15-29.87-32.72-14.84-32.72-14.84l-15.23-8.83,6.58-4.7,21.6,1.88,20.29,9.77,15.22,18.22,8.45,9.96,3.96,18.41Z"/>
        <path class="cls-22" d="M191.02,95.34s-5.31-1.35-12.52-2.77c-7.46-1.47-16.94-3.01-24.68-3.2-15.22-.38-35.34,1.31-45.1,6.39s-21.04-.75-21.04-.75c0,0,1.88-9.58,2.07-10.33s24.99-6.58,24.99-6.58l46.97,2.63,21.66,8.45,7.67,6.16Z"/>
        <path class="cls-22" d="M132.71,112.58s-7.82,1.39-19.47,6.09-14.97,9.35-22.49,7.1c-7.51-2.25-22.81-8.98-22.81-8.98l-.56-9.77s12.77,3.19,13.53,3.38,24.05,0,24.05,0l11.27-2.63,8.15-.38,8.33,5.19Z"/>
        <path class="cls-22" d="M101.21,150.81s-16.54,9.95-21.05,15.68c-4.51,5.73-16.72,24.89-16.72,24.89l-3.89,3.72-26.73.97,11.84-37.39,21.6-8.45,18.79,1.32,16.17-.74Z"/>
        <path class="cls-22" d="M87.59,193.31s-11.38,15.15-12.5,17.6c-1.13,2.44-6.58,18.06-6.58,18.06l-2.63,2.98-16.34.34,16.91-19.88,21.15-19.1Z"/>
        <path class="cls-22" d="M209.5,123.16s7.09,12.64,7.84,19.04c.75,6.4-.34,7.65-.34,7.65l-3.12-8.27s-2.19,8.35-4.21,6.48c-2.03-1.87-5.62-11.63-5.62-11.63l-2.03,3.9-2.39-5.54-3.52-2.34,5.22,11.85-13.11-17.81-8.41-7.88,15.64,6.45-3.57-8.3s6.23,5.69,11.36,10.75c.48.47-.45-4.13,0-3.67.22.22,1.84,5.51,2.05,5.73,2.4,2.45,4.25,4.5,4.54,5.3.94,2.58-.31-11.71-.31-11.71Z"/>
        <path class="cls-22" d="M139.64,134.79s11.78.16,15.61,1.25c3.82,1.09,10.84,8.27,10.84,8.27l-14.27-4.99-12.18-4.53Z"/>
        <path class="cls-22" d="M122.63,144.23s21.07-3.98,24.2-3.67c3.12.31,7.49,2.97,7.49,2.97l2.19,4.53s-8.74-3.59-13.58-3.75c-4.84-.16-20.29-.08-20.29-.08Z"/>
        <polygon class="cls-22" points="104.76 198.08 117.71 192.62 125.52 194.34 118.03 198.55 104.76 198.08"/>
        <polygon class="cls-22" points="244.36 116.76 245.67 127.87 246.83 140.55 249.94 130.58 244.36 116.76"/>
        <polygon class="cls-22" points="259.61 151 257.12 162 259.61 159.91 258.36 167.39 262.75 157.55 259.96 145.61 259.61 151"/>
      </g>
      <path class="cls-5" d="M270.03,214.69s1.17-10.14,7.04-17.68c5.87-7.54,11.05-18.22,11.05-18.22,0,0-5.05-1.34-7.51-.94-2.46.4-7.7,2.45-7.7,2.45,0,0,7.08-10.15,6.76-20.39-.32-10.24.43-21.64-1.15-25.69-1.59-4.05-7.14-15.4-7.14-15.4,0,0-.63,9.37-2.22,13.02-1.59,3.65-5.07,15.39-5.07,15.39,0,0-2.07-22.05-3.42-26.34-1.35-4.29-4.52-13.73-12.78-22.22-8.25-8.49-20.64-16.51-20.64-16.51,0,0,9.69,11.93,9.21,17.73-.48,5.79-1.49,13.34-1.49,13.34,0,0-5.15-17.97-15.47-25.98-10.32-8.02-24.84-15.32-29.84-16.19-5-.87-15.56-2.54-15.56-2.54,0,0,10.3,10.85,13.4,17.59,3.1,6.75,3.65,9.68,3.65,9.68,0,0-12.62-6.59-23.65-9.21-11.03-2.62-28.28-1.81-39.63-.22-11.35,1.59-23.97,7.78-23.97,7.78,0,0,15.72,1.91,19.37,5.96s10.42,12.94,10.42,12.94c0,0-8.83-3.42-14.79-1.75-5.95,1.67-18.18,10.08-27.23,9.92-9.05-.16-15.32-4.52-15.32-4.52,0,0,1.11,13.49,7.86,21.35,6.75,7.86,10,12.38,16.98,12.78-7.62.32-13.81,3.57-20.32,9.6-6.51,6.03-15,14.21-21.35,34.68,4.52-1.35,11.76-4.39,17.23-3.91,5.48.48,10.33.38,10.33.38-5.79,5-19.56,23.56-21.23,40.39,5.32-.24,21.04-9.71,32.47-4.47-4.6,5.79-10.66,14.48-11.06,26.23,8.41-3.1,14.07-7.89,24.55-5.43-2.78,8.02-6.02,15.12-5.39,20.75,4.92-3.02,14.03-1.19,17.92-1.19s15.9,5.07,15.9,5.07l59.63-14.98,65.91-26.01,4.22-17.23Z"/>
    </g>
    <g>
      <path class="cls-16" d="M262.58,294.51l-2.72,11.72s-.89,15.41-3.69,17.01-17.57,9.69-23.35,9.87c-5.77.18-11.37.18-13.16-.89-1.79-1.07-10.36-4.51-14.95-8.98-4.58-4.46-33.08-20.86-33.67-22.34s-13.31-25.36-13.31-25.36c0,0-6.59,6.26-11.29,2.63-4.7-3.63-10.86-6.28-13.3-9.14s-7.49-9.51-8.2-15.64c-.71-6.13-1.19-10.36,1.55-14.52,2.74-4.17,5.12-5.54,9.29-4.64,4.17.89,13.37,7.82,13.37,7.82l3.93-18.99v-10.78l-7.53-10.94s-.81-5.96-.57-7.33c.24-1.37,5-11.25,10-16.85,5-5.6,11.79-11.55,15.36-11.55s14.41-.36,21.13,1.73c6.73,2.08,28.31,8.12,28.31,8.12l16.55-15.54s6.41,5.64,11.23,9.03c4.82,3.39,7.3,11.11,10.33,16.82,3.04,5.71,7.54,19.16,7.93,23.68.4,4.52,1.89,23.54,1.89,23.54l-2.93,9.04s5.3,6.9,4.35,13.21c-.95,6.31-6.73,12.86-6.73,12.86,0,0,4.5,9.1,3.42,14.57-1.08,5.48-3.24,11.84-3.24,11.84Z"/>
      <g class="cls-26">
        <polygon class="cls-27" points="164.99 166.11 160.49 194.29 157.36 207.25 161.18 214.69 161.18 246.62 149.14 242.03 139.46 221.15 131.07 186.68 143.47 168.36 164.99 166.11"/>
        <path class="cls-27" d="M240.92,329.38s-14.71.17-21.84-2.65-19.02-10.43-19.02-10.43l9.22-13.68-23.93-26.61-4-3.1s-4.5-2.13-7.93-4.75c-3.43-2.62-11.8-18.59-11.8-18.59l-7.33-10.73-5.14,3.2,8.07,12.86.15,18.01s-1.94,4.11-5.9,3.27c-3.96-.85-7.43-4.05-11.51-7.15-4.08-3.1-12.87-3.96-12.87-3.96l-5.31,12.91s12.12,12.31,13.24,12.92c1.13.61,20.29,10.03,20.29,10.03l19.49,26.18,39.53,16.98,24.39-3.83,2.19-10.87Z"/>
        <path class="cls-27" d="M212.68,251.2s-3.85,9.21-21.28,11.5c-8.42,1.1-15.85-1.77-15.85-1.77,0,0-3.73-1.83-6.63-4.37s-17.87-13.13-17.87-13.13l-.6-7.93,16.92,3.31,13.09,9.76,18.13,6.33,14.09-3.7Z"/>
        <polygon class="cls-27" points="231.36 307.29 244.36 302.62 244.36 297.14 239.57 298.51 233.08 303.34 231.36 307.29"/>
        <path class="cls-27" d="M255.89,309.54s.58,8.17-1.95,10.57c-2.54,2.4-8.26,4.09-8.26,4.09l10.22-14.65Z"/>
        <path class="cls-27" d="M216.76,192.45s-12.28-3.66-14.67-3.45c-2.4.21-7.65-2.32-7.65-2.32,0,0-5.73-.56-3.9-2.4,1.83-1.83,2.72-4.02,6.51-3.98,3.78.03,5.46.13,7.26,1.49,1.81,1.37.14,2.78,2.7,3.97,2.55,1.19,9.76,3.8,9.76,3.8v2.89Z"/>
        <path class="cls-27" d="M214.77,196.14s5.46,3.62,8.24,2.94,4.83-4.06,4.83-4.06l-5.47,1.85-7.6-.73Z"/>
        <path class="cls-27" d="M210.24,187.12s5.61,5.96,10.8,5.32,11.02-4.28,11.02-4.28c0,0-5.65,1.29-10.57,1.93s-11.24-2.98-11.24-2.98Z"/>
        <path class="cls-27" d="M266.44,246.26s-2.68,3.02-8.5,3.02c-4.64,0-12.27-1.79-12.27-1.79,0,0,.98,3.89,2.09,4.96s9.81,1.34,12.53,1.25c2.72-.09,7.58-1.6,7.64-3.06s-1.49-4.38-1.49-4.38Z"/>
        <polygon class="cls-27" points="137.24 240.22 144.88 242.43 149.55 242 148.73 236.96 141.88 232.95 127.6 232.95 123.75 236.86 123.47 240.43 137.24 240.22"/>
      </g>
      <path class="cls-5" d="M262.58,294.51l-2.72,11.72s-.89,15.41-3.69,17.01-17.57,9.69-23.35,9.87c-5.77.18-11.37.18-13.16-.89-1.79-1.07-10.36-4.51-14.95-8.98-4.58-4.46-33.08-20.86-33.67-22.34s-13.31-25.36-13.31-25.36c0,0-6.59,6.26-11.29,2.63-4.7-3.63-10.86-6.28-13.3-9.14s-7.49-9.51-8.2-15.64c-.71-6.13-1.19-10.36,1.55-14.52,2.74-4.17,5.12-5.54,9.29-4.64,4.17.89,13.37,7.82,13.37,7.82l3.93-18.99v-10.78l-7.53-10.94s-.81-5.96-.57-7.33c.24-1.37,5-11.25,10-16.85,5-5.6,11.79-11.55,15.36-11.55s14.41-.36,21.13,1.73c6.73,2.08,28.31,8.12,28.31,8.12l16.55-15.54s6.41,5.64,11.23,9.03c4.82,3.39,7.3,11.11,10.33,16.82,3.04,5.71,7.54,19.16,7.93,23.68.4,4.52,1.89,23.54,1.89,23.54l-2.93,9.04s5.3,6.9,4.35,13.21c-.95,6.31-6.73,12.86-6.73,12.86,0,0,4.5,9.1,3.42,14.57-1.08,5.48-3.24,11.84-3.24,11.84Z"/>
    </g>
    <path class="cls-5" d="M240.92,298.99s-.18-2.6-7.83,4.35"/>
    <path class="cls-5" d="M250.46,287.72s-11.74-4.89-25.2,7.33"/>
    <path class="cls-27" d="M147.14,267.98s-2.68-3.56-4.09-3.05-5.21.65-7.04-4c-1.83-4.65-.87-9.05,0-10.95s-.42-3.84-.99-4.13-2.97-.71-2.97-.71c0,0,1.74-3.69,2.97-3.31s9.58,7.32,12.82,11.87v4.08l-2.43,2.51-.81,2.19.67,2.59,1.87,2.91Z"/>
    <g>
      <path class="cls-19" d="M236.86,264.67l30.43-10.97-4.84,8.49s8.65.65,11.18.11c2.53-.54,15.39-7.24,15.39-7.24l-9.72,13.96,21.36-5.49-15.59,15.71,16.99,8.16-23.05.43,9.11,10.15-20.43-11.32,12.44,17.36-27.85-21.4,3.6,10.1-17.83-12.06-16.34,19.73-1.04-8.34-20.84,19.32,6.34-15.22-27.33,24.23,5.33-16.53-14.62,12.44.44-8.84-20.15,9.28,23.13-17.76-20.2-3.44,27.49-8.56-15.33-9.2s18.05.7,22.78-.37c4.73-1.08,11.13-3.95,11.13-3.95l-14.23-5.92,52.25-2.88Z"/>
      <g class="cls-33">
        <polygon class="cls-34" points="292.26 287.05 276.04 284.64 278.1 287.94 289.44 293.26 290.48 300.93 280.36 292.52 269.37 285.05 264.26 282.94 266.9 287.05 284.47 302.62 284.37 311.04 271.97 296.11 261.36 287.05 251.61 279.48 252.29 282.63 255.16 287.05 262.48 297.05 254.55 290.9 248.47 283.12 240.03 275.63 237.86 277.6 238.06 280.67 239.75 292.26 250.84 297.61 271.31 315.46 289.82 316.12 296.11 308.51 299.4 296.77 292.26 287.05"/>
        <path class="cls-34" d="M238.06,280.67l-.2-3.06-1.96-1.78-11.27,13.71,1.05-6.48-23.4,23.93-5.47,13.41,21.72-1.93s16.81-24.42,16.62-25.64,2.91-12.15,2.91-12.15"/>
        <polygon class="cls-34" points="196.26 311.98 193.97 328.33 166.02 326.54 159.44 325.98 167.8 313.39 183.11 298.99 195.7 294.98 182.09 310.32 180.88 314.05 203.68 290.9 201.26 296.77 210.63 290.9 201.45 301.71 196.26 311.98"/>
        <path class="cls-34" d="M154.77,295.89l23.09,2.63-3.1,2.41s-20.85,4.29-21.32,4.48,1.34-9.52,1.34-9.52Z"/>
        <path class="cls-34" d="M169.1,280.29l15.42,4.27-4.25,2.43s-12.12-.83-12.9-1.02c-.78-.19,1.74-5.68,1.74-5.68Z"/>
        <polygon class="cls-34" points="243.38 262.32 240.92 272.91 235.53 272.91 231.34 277.32 227.73 274.6 232.75 272.91 227.17 272.91 227.17 269.82 224.44 269.81 224.72 266.33 216.26 264.36 243.38 262.32"/>
        <polyline class="cls-22" points="290.38 279.2 285.08 279.25 281.83 280.05 302.07 287.41 311.89 284.74 302.07 280.23 285.08 279.25"/>
        <polygon class="cls-22" points="278.08 271.78 290.29 270.28 300.66 263.54 311.24 255.91 291.04 263.04 281.83 267.55 279.3 269.03 278.08 271.78"/>
        <polygon class="cls-22" points="292.64 252.71 289.02 255.07 280.49 262.86 274.41 266.33 258.92 264.55 262.45 262.2 270.09 257.78 267.29 253.7 257.32 262.48 243.38 262.32 259.61 247.58 280.49 246.56 292.64 252.71"/>
        <polygon class="cls-22" points="213.84 265.94 194.52 271.67 178.7 269.71 182.92 263.33 213.84 265.94"/>
        <polygon class="cls-22" points="193.97 275.45 189.03 280.14 180.76 282.02 164.93 277.79 156.43 273.66 193.97 275.45"/>
        <polygon class="cls-22" points="174.11 288.9 158.37 296.5 144.22 296.77 145.35 291.41 158.31 288.54 174.11 288.9"/>
        <polygon class="cls-22" points="172.28 301.44 155.4 316.12 147.04 319.59 144.79 315.36 156.15 308.88 166.82 302.57 172.28 301.44"/>
      </g>
      <path class="cls-5" d="M236.86,264.67l30.43-10.97-4.84,8.49s8.65.65,11.18.11c2.53-.54,15.39-7.24,15.39-7.24l-9.72,13.96,21.36-5.49-15.59,15.71,16.99,8.16-23.05.43,9.11,10.15-20.43-11.32,12.44,17.36-27.85-21.4,3.6,10.1-17.83-12.06-16.34,19.73-1.04-8.34-20.84,19.32,6.34-15.22-27.33,24.23,5.33-16.53-14.62,12.44.44-8.84-20.15,9.28,23.13-17.76-20.2-3.44,27.49-8.56-15.33-9.2s18.05.7,22.78-.37c4.73-1.08,11.13-3.95,11.13-3.95l-14.23-5.92,52.25-2.88Z"/>
    </g>
    <g>
      <g>
        <path class="cls-13" d="M266.19,247.45c-2.12,1.76-12.55,1.7-12.55,1.7-11.53,0-20.88-10.35-20.88-23.12s9.35-23.12,20.88-23.12c0,0,3.1-.8,5.97-.57,2.87.22,12.32,16.17,12.12,23.12-.2,6.94-3.41,20.23-5.54,21.99Z"/>
        <g class="cls-30">
          <polygon class="cls-36" points="250.84 248.93 251.4 243.69 242.57 232.24 237 228.67 230.7 227.91 227.35 239.37 235.37 252.34 251.06 255.34 250.84 248.93"/>
        </g>
        <path class="cls-5" d="M266.19,247.45c-2.12,1.76-12.55,1.7-12.55,1.7-11.53,0-20.88-10.35-20.88-23.12s9.35-23.12,20.88-23.12c0,0,3.1-.8,5.97-.57,2.87.22,12.32,16.17,12.12,23.12-.2,6.94-3.41,20.23-5.54,21.99Z"/>
      </g>
      <ellipse class="cls-11" cx="259.61" cy="225.46" rx="20.88" ry="23.12"/>
      <g>
        <path class="cls-13" d="M195.89,209.64s-19.09,1.69-25.22,5.14c-6.13,3.45-13.69,11.57-13.69,11.57v16.57s14.46,14.07,22.32,14.66c7.86.59,19.69-.36,19.69-.36l8.01-25-11.11-22.58Z"/>
        <g class="cls-17">
          <path class="cls-36" d="M198.99,257.23s-15.31-10.9-20.27-11.37c-4.96-.47-14.08-1.3-18.74-4.85-4.67-3.55-6.14,5.55-6.14,5.55,0,0,9.46,13.76,10.02,14.38s28.56,4.14,28.56,4.14l6.58-7.84"/>
        </g>
        <path class="cls-5" d="M195.89,209.64s-19.09,1.69-25.22,5.14c-6.13,3.45-13.69,11.57-13.69,11.57v16.57s14.46,14.07,22.32,14.66c7.86.59,19.69-.36,19.69-.36l8.01-25-11.11-22.58Z"/>
      </g>
      <ellipse class="cls-11" cx="197.04" cy="233.44" rx="21.49" ry="23.79"/>
      <ellipse class="cls-1" cx="259.96" cy="225.46" rx="15.6" ry="17.26"/>
      <ellipse class="cls-1" cx="197.84" cy="232.95" rx="16.49" ry="18.26"/>
      <ellipse class="cls-12" cx="171.17" cy="222.37" rx="2.6" ry="1.96" transform="translate(-93.68 315.12) rotate(-71.71)"/>
      <ellipse class="cls-12" cx="173.35" cy="247.56" rx="1.96" ry="2.6" transform="translate(-109.62 141.43) rotate(-34.44)"/>
      <ellipse class="cls-12" cx="169.33" cy="234.85" rx="1.96" ry="2.6"/>
      <g>
        <path class="cls-18" d="M225.52,220.02c3.29-.4,9.91-.24,9.85.79-.06,1.03,0,10.32,0,10.32,0,0-5.87-1.83-8.76-1.43s-8.6,2.54-8.6,2.54c-.4-4.92-2.12-9.05-.7-10,2.61-1.11,8.21-2.22,8.21-2.22Z"/>
        <g class="cls-28">
          <path class="cls-25" d="M238.73,228.48s-6.11-4.13-12.12-3.85c-6.01.28-14.54,6.7-14.54,6.7l.64,13.82,26.03-6.53v-10.14Z"/>
        </g>
        <path class="cls-5" d="M225.52,220.02c3.29-.4,9.91-.24,9.85.79-.06,1.03,0,10.32,0,10.32,0,0-5.87-1.83-8.76-1.43s-8.6,2.54-8.6,2.54c-.4-4.92-2.12-9.05-.7-10,2.61-1.11,8.21-2.22,8.21-2.22Z"/>
      </g>
      <line class="cls-10" x1="200.65" y1="242.46" x2="204.5" y2="238.82"/>
      <line class="cls-10" x1="191.18" y1="234.53" x2="201.32" y2="223.43"/>
      <line class="cls-10" x1="262.75" y1="235.13" x2="266.6" y2="231.48"/>
      <line class="cls-10" x1="253.28" y1="227.19" x2="263.43" y2="216.1"/>
      <g>
        <polygon class="cls-18" points="159.45 244.47 149.1 241.75 148.46 225.46 158.82 224.58 159.45 244.47"/>
        <g class="cls-14">
          <polygon class="cls-25" points="164.37 238.44 146.63 235.65 144.71 242.18 149.1 244.98 162.98 244.98 164.37 238.44"/>
        </g>
        <polygon class="cls-6" points="159.45 244.47 149.1 241.75 148.46 225.46 158.82 224.58 159.45 244.47"/>
      </g>
      <g>
        <path class="cls-18" d="M148.46,225.46l.64,16.29-8.43-5.82-6.84-1.97-3.24.68,3.25-4.45s3.95-1.61,6.41-2.65c2.47-1.04,8.2-2.08,8.2-2.08Z"/>
        <g class="cls-15">
          <path class="cls-25" d="M148.88,236.11l-7.84-3.22-7.8-1.33-2.29,1.99-3.82,5.31s7.69,7.23,9.6,7.14,12.37-.57,12.37-.57l3.36-3.42-3.59-5.91Z"/>
        </g>
        <path class="cls-6" d="M148.46,225.46l.64,16.29-8.43-5.82-6.84-1.97-3.24.68,3.25-4.45s3.95-1.61,6.41-2.65c2.47-1.04,8.2-2.08,8.2-2.08Z"/>
      </g>
      <g>
        <polygon class="cls-31" points="162.18 228.19 159.45 226.82 154.89 227.97 155.64 241.76 160.04 241.58 163.41 240.88 162.18 228.19"/>
        <g class="cls-29">
          <polygon class="cls-35" points="165.22 237.67 160.28 239.83 159.15 226.82 157.48 225.49 154.74 227.82 155.31 243.16 164.03 243.16 167.5 241.34 165.22 237.67"/>
        </g>
        <polygon class="cls-6" points="162.18 228.19 159.45 226.82 154.89 227.97 155.64 241.76 160.04 241.58 163.41 240.88 162.18 228.19"/>
      </g>
    </g>
    <g>
      <path class="cls-16" d="M225.05,252.62c-5.2-1.31-6.27-.82-8.59,1.09-2.32,1.9-2.72,8.06-2.59,8.92.45,3.02,10.68,2.22,11.81.7.8-1.08,6.14,4.4,7.36,5.17s9.45.63,10.72,0,5.24-7.62,5.08-9.21c-.16-1.59-5.13-14.29-6.56-18.73-.62-1.94-2.62-4.77-4.8-7.57-2.81-3.62-3.38-5.03-10.29-4.32-6.9.7-8.66,3.29-8.66,4.77,0,0,.46,3.38-.87,10.18"/>
      <g class="cls-20">
        <path class="cls-27" d="M236.46,269s-4.51-3.42-5.92-4.9-3.32-3.87-5.18-3.45-8,2.11-10-.28c-2-2.4-3.55-4.51-3.55-4.51l-1.83,6.48,1.27,12.4,14.71,1.27,10.5-7.01Z"/>
      </g>
      <path class="cls-5" d="M225.05,252.62c-5.2-1.31-6.27-.82-8.59,1.09-2.32,1.9-2.72,8.06-2.59,8.92.45,3.02,10.68,2.22,11.81.7.8-1.08,6.14,4.4,7.36,5.17s9.45.63,10.72,0,5.24-7.62,5.08-9.21c-.16-1.59-5.13-14.29-6.56-18.73-.62-1.94-2.62-4.77-4.8-7.57-2.81-3.62-3.38-5.03-10.29-4.32-6.9.7-8.66,3.29-8.66,4.77,0,0,.46,3.38-.87,10.18"/>
    </g>
    <g>
      <g>
        <path class="cls-19" d="M213.45,214.01c-.76.81-.52.93-2.13.13-2.03-1.01-10.09-4.96-15.21-7.87-4.05-2.31-12.75-3.52-19.29-3.05-6.54.47-15.94,5.58-16.3,4.99s2.11-4.23,3.1-5.89c.99-1.67,3.98-3.65,6.44-4.49-1.79.28-3.49.4-4.05.71-.56.32-4.28.42-4.84.02-.56-.4.77-2.65,1.6-3.56.83-.91,4.18-2.62,8.39-4.37,4.21-1.75,10.18.72,12.32,1.83-2.06-1.79-8.58-6.17-10.13-5.78,3.33-.6,8.58-.69,11.59,1.14,3.02,1.83,8.06,4.52,8.06,4.52,0,0-2.3-3.57-1.51-4.13.79-.56,4.61,2.86,5.96,4.29s14.2,17.94,14.2,17.94c0,0,2.56,2.77,1.8,3.57Z"/>
        <g class="cls-21">
          <path class="cls-34" d="M194.22,203.04s-5.4-.68-9.14-1.62c-3.74-.93-11.12-1.69-15.05.19s-12.01,6.94-12.01,6.94l4.89,14.83,45.23-5.7,2.91-4.57-16.83-10.07Z"/>
          <path class="cls-34" d="M170.06,197.82s-2.3-1.12-5.39-1.1c-3.09.02-9.37-2.05-9.37-2.05l-1.47,3.89,4.95,2.78,11.28-3.51"/>
          <path class="cls-22" d="M170.33,185.22l5.22,3.2s5.86-.33,7.3.22,10.35,5.04,9.62,3.21-7.19-10.81-7.19-10.81l-14.94,4.18Z"/>
          <path class="cls-22" d="M177.93,189.57l3.49,2.72s-6.53-.72-7.58-.33-11.93,4.88-12.8,4.27,2.37-5.82,2.37-5.82l7.45-1.44,7.07.59Z"/>
          <polygon class="cls-22" points="190.49 186.68 192.06 189.57 197.84 195.05 206.8 206.75 211.44 209.2 212.59 207.26 199.35 187.54 190.49 186.68"/>
        </g>
        <path class="cls-5" d="M213.45,214.01c-.76.81-.52.93-2.13.13-2.03-1.01-10.09-4.96-15.21-7.87-4.05-2.31-12.75-3.52-19.29-3.05-6.54.47-15.94,5.58-16.3,4.99s2.11-4.23,3.1-5.89c.99-1.67,3.98-3.65,6.44-4.49-1.79.28-3.49.4-4.05.71-.56.32-4.28.42-4.84.02-.56-.4.77-2.65,1.6-3.56.83-.91,4.18-2.62,8.39-4.37,4.21-1.75,10.18.72,12.32,1.83-2.06-1.79-8.58-6.17-10.13-5.78,3.33-.6,8.58-.69,11.59,1.14,3.02,1.83,8.06,4.52,8.06,4.52,0,0-2.3-3.57-1.51-4.13.79-.56,4.61,2.86,5.96,4.29s14.2,17.94,14.2,17.94c0,0,2.56,2.77,1.8,3.57Z"/>
      </g>
      <g>
        <path class="cls-19" d="M235,216.65s.99,1.07,2.9-2.54c1.9-3.61,12.5-16.75,17.1-18.18s7.33-1.12,14.24,3.8c-.75-4.33-1.75-7.41-4.73-7.84,2.79-2.87,4.97-3.21,4.97-3.21-2.82-4.4-7.22-.88-8.49-.41,2.46-3.02,3.62-7.97,3.62-7.97-5.36,0-9.56.52-13.65,6.51.87-3.41.91-4.72,1.43-5.32-1.75.71-8.69,6.9-11.59,14.29-2.9,7.38-6.11,13.37-5.79,20.87Z"/>
        <g class="cls-23">
          <path class="cls-34" d="M261.08,195.41s-5.49-.47-9.79,1.22c-2.84,1.12-12.56,11.56-12.56,11.56l-7.37,8.6,1.73,18.05,18.17-23.72,11.42-10.65-1.6-5.07Z"/>
          <path class="cls-24" d="M269.47,188.68s-4.07-.83-5.86.88c-1.78,1.71-.56,2.37-.56,2.37l1.46-.05,4.97-3.21"/>
          <path class="cls-34" d="M268.62,196.84s-2.66-1.99-4.73-2.55c-2.07-.56-5.17-.28-6.29,1.13-1.13,1.41-.85,5.08-.85,5.08l9.77,4.08,5.21-2.27-3.11-5.47Z"/>
          <polygon class="cls-22" points="265.81 175.91 264.6 180.3 258.96 183.41 250.64 189.57 250.95 186.81 254.55 178.02 259.61 175.21 265.81 175.91"/>
          <polyline class="cls-22" points="269.47 188.68 264.87 188.03 260.98 188.27 266.42 183.41 269.47 184.79 270.51 186.68 269.47 188.68"/>
          <polygon class="cls-22" points="252.38 181.49 245.67 191.55 241.88 197.47 238.73 199.72 233.51 201.41 237.68 186.68 248.84 181.69 252.38 181.49"/>
        </g>
        <path class="cls-5" d="M235,216.65s.99,1.07,2.9-2.54c1.9-3.61,12.5-16.75,17.1-18.18s7.33-1.12,14.24,3.8c-.75-4.33-1.75-7.41-4.73-7.84,2.79-2.87,4.97-3.21,4.97-3.21-2.82-4.4-7.22-.88-8.49-.41,2.46-3.02,3.62-7.97,3.62-7.97-5.36,0-9.56.52-13.65,6.51.87-3.41.91-4.72,1.43-5.32-1.75.71-8.69,6.9-11.59,14.29-2.9,7.38-6.11,13.37-5.79,20.87Z"/>
      </g>
    </g>
    <path class="cls-5" d="M162.92,257.23s6.44,10.75,18.43,15.68"/>
    <path class="cls-5" d="M233.51,186.68s-4.37,5.78-13.24,5.78c-8.88,0-17.05-3.95-17.05-3.95"/>
    <path class="cls-5" d="M229.42,181.04s-4.65,4.73-10.29,4.73-10.99-4.73-10.99-4.73"/>
    <path class="cls-5" d="M222.8,205.7s1.86,7.25-4.44,8.99"/>
    <path class="cls-5" d="M217.59,204.57s2.01,6.09.16,8.54"/>
    <path class="cls-5" d="M231.96,205.09s-1.78,5.1.8,8.02"/>
    <path class="cls-5" d="M131.07,248.57c0-.75,1.69-7.51,4.51-6.66s12.26,11.79,12.26,11.79v4.08s-3.52,2.45-3.24,5.26,3.24,4.93,3.24,4.93"/>
    <path class="cls-5" d="M139.46,245.15s-4.44,3.59-4.44,8.56.99,7.23.99,7.23"/>
    <path class="cls-5" d="M149.14,242.03s3.92,1.56,6.17,9.17"/>
  </g>
  <path class="cls-32" d="M326.63,170.31c0,2.95-.95,5.27-2.86,6.96-1.91,1.69-4.16,2.54-6.75,2.54s-4.84-.84-6.75-2.54c-1.91-1.69-2.86-4.01-2.86-6.96s.95-5.27,2.86-6.96c1.91-1.69,4.16-2.54,6.75-2.54s4.84.85,6.75,2.54c1.91,1.69,2.86,4.01,2.86,6.96ZM325.12,243.48h-16.08v-56.76h16.08v56.76Z"/>
</svg>