<?xml version="1.0" encoding="UTF-8"?>
<svg id="charges" xmlns="http://www.w3.org/2000/svg" xmlns:xlink="http://www.w3.org/1999/xlink" viewBox="0 0 400 400">
  <defs>
    <style>
      .cls-1, .cls-2 {
        fill: #8e6d56;
      }

      .cls-3 {
        clip-path: url(#clippath-6);
      }

      .cls-4 {
        clip-path: url(#clippath-7);
      }

      .cls-2, .cls-5, .cls-6, .cls-7, .cls-8, .cls-9, .cls-10, .cls-11, .cls-12 {
        stroke: #231f20;
      }

      .cls-2, .cls-5, .cls-6, .cls-7, .cls-8, .cls-10, .cls-11, .cls-13, .cls-12 {
        stroke-linejoin: round;
      }

      .cls-14 {
        clip-path: url(#clippath-4);
      }

      .cls-15 {
        clip-path: url(#clippath-9);
      }

      .cls-16 {
        clip-path: url(#clippath-10);
      }

      .cls-17 {
        fill: #fff;
      }

      .cls-18 {
        fill: #ffda96;
      }

      .cls-19 {
        fill: #b7596b;
      }

      .cls-5, .cls-20 {
        fill: #e7c6b8;
      }

      .cls-21, .cls-7 {
        fill: #f9ac1e;
      }

      .cls-22 {
        clip-path: url(#clippath-11);
      }

      .cls-23, .cls-6, .cls-9, .cls-13 {
        fill: none;
      }

      .cls-24, .cls-10 {
        fill: #453326;
      }

      .cls-25 {
        clip-path: url(#clippath-1);
      }

      .cls-26, .cls-12 {
        fill: #a8c0b7;
      }

      .cls-27 {
        fill: #b9a7a0;
      }

      .cls-28 {
        clip-path: url(#clippath-5);
      }

      .cls-29 {
        clip-path: url(#clippath-8);
      }

      .cls-30 {
        clip-path: url(#clippath-3);
      }

      .cls-31 {
        fill: #fffefa;
      }

      .cls-32 {
        clip-path: url(#clippath-12);
      }

      .cls-33 {
        clip-path: url(#clippath-14);
      }

      .cls-34, .cls-11 {
        fill: #65553f;
      }

      .cls-8, .cls-35 {
        fill: #b2915b;
      }

      .cls-9 {
        stroke-miterlimit: 10;
      }

      .cls-36 {
        clip-path: url(#clippath-2);
      }

      .cls-37 {
        fill: #8f4654;
      }

      .cls-38 {
        clip-path: url(#clippath-13);
      }

      .cls-39 {
        fill: #c5892b;
      }

      .cls-13 {
        stroke: #cae8e1;
        stroke-linecap: round;
        stroke-width: 7px;
      }

      .cls-40 {
        fill: #998563;
      }

      .cls-41 {
        fill: #65493e;
      }

      .cls-42 {
        fill: #ffe46f;
      }

      .cls-43 {
        clip-path: url(#clippath);
      }

      .cls-44 {
        fill: #cae8e1;
      }
    </style>
    <clipPath id="clippath">
      <path class="cls-7" d="M273.1,212.63s5.5-7.37,9.95-15.71c4.45-8.34,6.2-20.4,6.2-20.4,0,0-4.69,3.19-7.02,3.99-2.33.8-6.09.64-6.09.64,0,0,9.63-20.65,7.58-30.58-6.27-30.29-8.67-31.02-8.67-31.02,0,0-1.62,7.28-2.55,11.1-.93,3.83-6,10.31-6,10.31,0,0-.78-18.44-2.82-22.39-2.04-3.95-4.54-14.59-14.06-24.06-8.31-8.26-10.13-9.73-10.13-9.73,0,0,.22,7.35.73,13.08.51,5.73-.35,15.67-.35,15.67,0,0-11.55-28.27-22.97-34.35-11.41-6.07-30.32-11.14-35.35-11.14s-11.56-2.98-11.56-2.98l19.04,29.28s-19.06-12.3-42.63-12.24c-23.57.06-36.93,8.52-41.46,8.69-2.31.08,26.38,21.54,24.09,21.79-4.6.5-11.7-2.52-22.93.55-4.71,1.29-8.77,4.43-8.77,4.43l18.19,4.45s-12.87,4.14-21.72,5.51c-8.85,1.37-16.37-5.73-16.37-5.73,0,0,3.72,12.26,5.68,16.46,1.96,4.2,13.2,14.8,20.08,14.01-15.35,9.17-43.41,41.2-46.14,62.24,4.18-2.08,31.47-3.18,31.47-3.18-4.8,5.85-15.09,22.74-13.88,39.43,5.14-1.13,19.23-9.81,31.26-6.63-3.51,6.43-8.62,15.73-7.02,27.24,7.68-4.44,15.5-6.17,26.13-5.54-1.35,8.28-4.8,12.91-4.8,12.91,0,0,29.3-4,32.57-1.96,4.83,3.02,28.57-4.66,28.57-4.66l34.23-12.54,48.85-32.15,8.66-14.81Z"/>
    </clipPath>
    <clipPath id="clippath-1">
      <path class="cls-5" d="M254.54,297.62l-.29,5.96s1.38,20.21-1.04,21.74-15.68,7.37-20.8,7.75c-5.12.38-13.16-.1-14.79-.98-1.63-.88-15.68-8.64-19.92-12.43-4.24-3.79-33.99-28.47-33.99-28.47l-4.98-16.15s1.1,2.74-8.15,1.43c-9.25-1.31-16.41-7.85-19.02-12.68-3.07-5.67-8.96-16.02-8.38-24.11.47-6.57,6.05-11.73,9.83-11.49,8.67.55,17.58,8.64,17.58,8.64l1.68-15.65v-12.94l-7.96-9.94s-3.69-9.79-.83-16.12c2.86-6.33,8.15-13.59,13.3-17.82,5.77-4.74,17.6-4.95,20.77-5.09,3.17-.14,13.43,2.6,19.48,4.19,6.05,1.6,19.45,4.68,19.45,4.68l14.89-13.03s8.12,3.76,14.46,9.54c6.34,5.78,11.96,11.42,13.13,16.48s3.64,18.11,1.73,22.7c-1.55,3.73-.28,25.81-.28,25.81l6.67,1.01s.61,11.16,0,16.8c-.61,5.64-7.6,12.5-7.6,12.5,0,0-1.91,16.08-2.66,20.99-.75,4.91-2.26,16.71-2.26,16.71Z"/>
    </clipPath>
    <clipPath id="clippath-2">
      <path class="cls-10" d="M244.4,274.31s.92,20.06,0,24.63,0,4.2-8.46,6.21c-6.56,1.56-19.34,3.05-19.58-2.04s-.61-24.84,1.26-27.69c2.67-4.09,26.28-3.58,26.78-1.1Z"/>
    </clipPath>
    <clipPath id="clippath-3">
      <path class="cls-19" d="M240.31,305.14s-7.48-7.87-13.14-11.18c-5.66-3.3-6.99-1.83-6.99-1.83,0,0-7.34-3.17-11.51,1.2-4.17,4.36-3.43,7.55-3.43,7.55l3.56,11.69,26.96-3.02,4.55-4.41Z"/>
    </clipPath>
    <clipPath id="clippath-4">
      <path class="cls-7" d="M241.61,257.71l28.22-1.33-9.32,5.16s3.3,1.59,5.71,1.59,8.63-2.86,8.63-2.86l-2.02,5.97,11.16-6.04s-.36,6.81-2.28,9.64c-1.92,2.84-8.73,6.06-8.73,6.06l16.29-.07s-4.68,10.26-10.78,11.23c-6.1.97-11.15-.04-11.15-.04l5.58,7.88-19.8-9.79.11,5.42-17.12-16.39-18.48,18.99,3.9-10.45-23,20.44,6.82-13.15s-8.26,9.62-14.22,10.31c-5.97.68-20.11,2.72-20.11,2.72,0,0,14.8-7.26,15.46-8.54-6.74,3-43,1.45-43,1.45,0,0,12.82-6.7,16.02-9.71-2.41-.64-15.38-9.72-15.38-9.72,0,0,16.01-1.57,24.13-3.16,1.03-.2-8.78-7.59-7.77-7.79,4.61-.88,33.83.7,33.83.7l-7.23-6.99,30.56.59,9.33-4.03,14.67,1.93Z"/>
    </clipPath>
    <clipPath id="clippath-5">
      <path class="cls-2" d="M261.8,243.92c-1.96,1.99-10.81,1.52-10.81,1.52-10.25.01-18.58-9.64-18.59-21.56-.01-11.92,8.29-21.6,18.54-21.61,0,0,2.75-.75,5.31-.54,2.55.21,10.97,15.09,10.79,21.57-.17,6.49-1.83,17.15-5.25,20.62Z"/>
    </clipPath>
    <clipPath id="clippath-6">
      <path class="cls-11" d="M226.29,216.41c3.46-.29,6.99.89,7.87,1.18,2.3.76.01,9.65.01,9.65,0,0-3.61-.92-6.98-.94s-8.45,1.99-8.45,1.99c-.36-4.6-1.89-8.46-.63-9.35,2.32-1.04,4.72-2.24,8.19-2.54Z"/>
    </clipPath>
    <clipPath id="clippath-7">
      <path class="cls-2" d="M197.77,206.28s-18.51.2-24.54,3.79c-6.04,3.59-14.98,12.14-14.98,12.14l.95,16.28s14.84,15.33,22.58,15.94c7.74.61,18.21-.36,18.21-.36l10.39-25.93-12.6-21.85Z"/>
    </clipPath>
    <clipPath id="clippath-8">
      <polygon class="cls-11" points="160.92 240.2 150.57 237.48 149.93 221.19 160.29 220.31 160.92 240.2"/>
    </clipPath>
    <clipPath id="clippath-9">
      <path class="cls-11" d="M149.93,221.19l.64,16.29-8.43-5.82-6.76-2.99,1.46-2.91s2.42-1.45,4.88-2.49c2.47-1.04,8.2-2.08,8.2-2.08Z"/>
    </clipPath>
    <clipPath id="clippath-10">
      <polygon class="cls-8" points="164.68 223.83 161.81 222.77 156.36 223.7 157.11 237.48 162.64 237.76 165.91 236.52 164.68 223.83"/>
    </clipPath>
    <clipPath id="clippath-11">
      <path class="cls-5" d="M221.63,250.32c-1.55-.41-5.54-2.24-7.53-.46-1.99,1.78-.64,8.91-.4,9.64.24.73,6.94.02,8.11.24s8.6,5.51,9.72,6.15,11.06.08,12.17-.54c1.1-.61,2.96-7.39,2.76-8.79-.2-1.4-3.54-10.16-4.97-14.05-1.44-3.89-6.1-15.27-9.09-16.36,0,0-12.68-1.12-12.76,3.63,0,0,1.26,8.27-.76,11.83"/>
    </clipPath>
    <clipPath id="clippath-12">
      <path class="cls-7" d="M216.19,206.56c-.62.89-1.73,2.49-3.25,1.62-5.94-3.42-13.73-8.03-15.27-8.43-2.01-.53-10.14-.34-13.9.45-3.75.79-19.45,11.13-18.84,10.84.84-.4-.45-3.48.27-5.23.72-1.75,4.19-4.23,6.44-5.39-1.68.52-8.14,1.4-8.12.74.04-1.77,2.68-4.47,4.15-5.63,1.07-.85,6-4.69,8.22-3.93-2.24-1.43-2.51-1.69-6.11-2.68,3.79-1.76,8.38-2.62,11.78-2.1,4.3.65,8.27,2.12,8.27,2.12,0,0-2.98-3.61-2.29-4.26.69-.65,8.48,1.95,9.98,3.13,1.5,1.18,14.5,11.72,14.5,11.72,0,0,4.77,6.14,4.15,7.02Z"/>
    </clipPath>
    <clipPath id="clippath-13">
      <path class="cls-7" d="M239.61,193.35s.89.74,2-2.28c1.12-3.02,10.82-11.84,14.28-13.43,3.45-1.59,7.81-.73,13.71,2.41-1.03-3.3-2.14-5.8-4.51-5.84,2.96-.55,5.23-.44,5.23-.44-1.95-1.39-4.39-7.52-9.87-6.45,1.61-2.61,2.57-4.97,2.57-4.97-3.32.51-7.68.28-10.26,3.16.24-1.64,2.17-4.79,2.51-5.3-1.29.74-11.56,10.61-13.07,16.68-1.51,6.07-3.62,10.62-2.6,16.45Z"/>
    </clipPath>
    <clipPath id="clippath-14">
      <path class="cls-44" d="M154.43,178.51l-10.89,26.77s-1.6,11.34,9.18,11.82c10.78.48,8.11-16.81,8.11-16.81l-6.41-21.78Z"/>
    </clipPath>
  </defs>
  <path class="cls-42" d="M200,44.29c85.99,0,155.71,69.71,155.71,155.71s-69.71,155.71-155.71,155.71S44.29,285.99,44.29,200,114.01,44.29,200,44.29M200,34.29c-44.26,0-85.87,17.24-117.17,48.53s-48.53,72.91-48.53,117.17,17.24,85.87,48.53,117.17c31.3,31.3,72.91,48.53,117.17,48.53s85.87-17.24,117.17-48.53c31.3-31.3,48.53-72.91,48.53-117.17s-17.24-85.87-48.53-117.17-72.91-48.53-117.17-48.53h0Z"/>
  <g>
    <g>
      <path class="cls-21" d="M273.1,212.63s5.5-7.37,9.95-15.71c4.45-8.34,6.2-20.4,6.2-20.4,0,0-4.69,3.19-7.02,3.99-2.33.8-6.09.64-6.09.64,0,0,9.63-20.65,7.58-30.58-6.27-30.29-8.67-31.02-8.67-31.02,0,0-1.62,7.28-2.55,11.1-.93,3.83-6,10.31-6,10.31,0,0-.78-18.44-2.82-22.39-2.04-3.95-4.54-14.59-14.06-24.06-8.31-8.26-10.13-9.73-10.13-9.73,0,0,.22,7.35.73,13.08.51,5.73-.35,15.67-.35,15.67,0,0-11.55-28.27-22.97-34.35-11.41-6.07-30.32-11.14-35.35-11.14s-11.56-2.98-11.56-2.98l19.04,29.28s-19.06-12.3-42.63-12.24c-23.57.06-36.93,8.52-41.46,8.69-2.31.08,26.38,21.54,24.09,21.79-4.6.5-11.7-2.52-22.93.55-4.71,1.29-8.77,4.43-8.77,4.43l18.19,4.45s-12.87,4.14-21.72,5.51c-8.85,1.37-16.37-5.73-16.37-5.73,0,0,3.72,12.26,5.68,16.46,1.96,4.2,13.2,14.8,20.08,14.01-15.35,9.17-43.41,41.2-46.14,62.24,4.18-2.08,31.47-3.18,31.47-3.18-4.8,5.85-15.09,22.74-13.88,39.43,5.14-1.13,19.23-9.81,31.26-6.63-3.51,6.43-8.62,15.73-7.02,27.24,7.68-4.44,15.5-6.17,26.13-5.54-1.35,8.28-4.8,12.91-4.8,12.91,0,0,29.3-4,32.57-1.96,4.83,3.02,28.57-4.66,28.57-4.66l34.23-12.54,48.85-32.15,8.66-14.81Z"/>
      <g class="cls-43">
        <path class="cls-39" d="M268.4,224.43l14.31-37.92-23.11,14.39,2.54-14.85,4.69-11.35,5.08-17.16s-12.3,21.51-16,24.12c-3.7,2.61-8.77,1.15-8.77,1.15l3.06-11.41s4.99-7.09,6.12-15.06c1.13-7.97-2.02-18.88-2.02-18.88,0,0-4.37,17.87-9.79,22.89-5.42,5.02-9.51,7.39-9.51,7.39l5.15-10.91s7.88-9.14.56-25.14c-.24,7.36-6.66,24.42-9.23,27.95-2.56,3.53-4.58,8.86-4.58,8.86,0,0,2.31-14.99,2.68-21,.38-6.01,3.39-12.51-3.14-23.58s-12.8-13.59-12.8-13.59c0,0,10.04,19.94,10.79,26.36.75,6.43-2.17,28.02-5.03,33.04s-7.3-15.58-21.88-29.05c-14.58-13.47-30.05-15.4-30.05-15.4,0,0,20.66,19.46,23.7,27.92-14.25-4.36-53.33-12.52-64.81-1.77,17.62,1.58,29.77,6.53,29.42,8.42-.36,1.89-8.47,3.61-14.31,2.61-5.84-1-15.13,3.86-15.13,3.86,0,0,22.9,2.57,12.24,4.63-11.76,1.87-29,8.29-29,8.29l36.13,5.72,12.46,9.3,69.63,32.75,40.59-2.59Z"/>
        <path class="cls-39" d="M160.88,215.36s-13.08-3.2-25.78-1.98c-12.7,1.22-41.26,11.39-48.07,18.42,5.33-11.7,17.26-25.04,28.97-31.51-9.42-.13-32.62-3.36-48.1,5.96,6.61-12.35,11.34-25.62,32.92-38.44-7.65,2.36-10.69,3.72-10.69,3.72l32.99-27.64s-23.55,3.59-43.33-17.67c-7.48,12.58-34.24,42.25-34.24,42.25l-18.39,96.48,19.83,26.25,65.5,12.31,25.14-19.54,17.8,2.62,33.97-16.84-1.72-36.4-23.65-20.03-3.15,2.04Z"/>
        <path class="cls-39" d="M129.06,112.6s10.99-2.8,18.54,2.91c-8.22-11.11-24.13-24.71-41.04-22.66-16.91,2.05-20.35,6.88-20.35,6.88l22.16,7.15,20.69,5.73Z"/>
        <path class="cls-39" d="M165.75,64.98s15.41,4.5,19.35,8.79c3.94,4.28,14.55,11.25,12.16,26.24-8.2-5.65-14.48-10.93-14.48-10.93l-17.03-24.09Z"/>
        <path class="cls-18" d="M101.89,93.53s20.79-7.16,34.23-6.78,36.04,2.31,52.09,10.35c-5.44-8.04-9.36-13.58-9.36-13.58l-35.87-9.52-42.52,3.95-17.08,13.23,15.31,1.93,3.19.41Z"/>
        <polygon class="cls-18" points="88.66 117.43 92.18 122.74 104.46 119.32 136.35 115.65 121.78 110.59 98.05 107.99 91.33 111.32 88.66 117.43"/>
        <path class="cls-18" d="M107.38,122.6l15.37-.76s-15.23,6.31-31.25,7.7c-16.02,1.38-13.5-6.03-13.5-6.03l-12.36-11.77,26.9,7.73,3.18,7.47,11.65-4.33Z"/>
        <path class="cls-18" d="M174.23,64.42s12.87,8.6,19.73,9.78c6.86,1.18,20.9,7.04,24.73,12.75,3.83,5.71,17.28,30.63,17.28,30.63,0,0,5.46,1.39,3.94-5.06l-11.3-37.22-30.31-10.81-24.06-.07Z"/>
        <path class="cls-18" d="M237.52,87.05s16.59,17.53,20.09,25.39c5.8,13.03,5.56,27.2,5.56,27.2l-.54,6.4,3.87-5.06,3.18-20.11.25-32.29-13.09-11.22-28.24-2.06,8.92,11.76Z"/>
        <path class="cls-18" d="M269.99,135.96l-4.5,10.14s9.77-8.33,10.42-12.67c2.03,8.52,5.49,23.55,1.95,32.89s-12.61,23.12-12.61,23.12c0,0,16.33-3.5,19.83-6.34,3.5-2.84-2.02,13.81-2.02,13.81l15.88,3.28,8.51-19.6,2.2-20.37-5.83-36.38-26.16-19.58-4.62,2.59-1.7,10.89-1.36,18.23Z"/>
        <path class="cls-18" d="M212.89,115.87s6.9,12.98,7.51,19.48c.61,6.5-.52,7.75-.52,7.75l-2.98-8.46s-2.41,8.42-4.42,6.47c-2.01-1.94-5.43-11.92-5.43-11.92l-2.15,3.91-9.75-24.12s16.89,16.13,17.78,18.76c.89,2.63-.05-11.87-.05-11.87Z"/>
        <path class="cls-18" d="M182.35,115.02s15.28,18.87,16.07,18.25,3.28-8.09,3.28-8.09l-3.22-7.97-1.45,6.85-10.36-11,1.83,5.74-7.96-7.78,1.81,4Z"/>
        <path class="cls-18" d="M141.81,126.07s11.94.43,15.8,1.62c3.85,1.19,10.8,8.63,10.8,8.63l-14.35-5.39-12.24-4.87Z"/>
        <path class="cls-18" d="M124.35,135.25s21.45-3.56,24.61-3.17c3.16.39,7.53,3.18,7.53,3.18l2.11,4.64s-8.78-3.84-13.68-4.11c-4.9-.27-20.57-.54-20.57-.54Z"/>
        <polygon class="cls-18" points="105.01 189.44 118.27 184.19 126.14 186.11 118.45 190.21 105.01 189.44"/>
      </g>
      <path class="cls-6" d="M273.1,212.63s5.5-7.37,9.95-15.71c4.45-8.34,6.2-20.4,6.2-20.4,0,0-4.69,3.19-7.02,3.99-2.33.8-6.09.64-6.09.64,0,0,9.63-20.65,7.58-30.58-6.27-30.29-8.67-31.02-8.67-31.02,0,0-1.62,7.28-2.55,11.1-.93,3.83-6,10.31-6,10.31,0,0-.78-18.44-2.82-22.39-2.04-3.95-4.54-14.59-14.06-24.06-8.31-8.26-10.13-9.73-10.13-9.73,0,0,.22,7.35.73,13.08.51,5.73-.35,15.67-.35,15.67,0,0-11.55-28.27-22.97-34.35-11.41-6.07-30.32-11.14-35.35-11.14s-11.56-2.98-11.56-2.98l19.04,29.28s-19.06-12.3-42.63-12.24c-23.57.06-36.93,8.52-41.46,8.69-2.31.08,26.38,21.54,24.09,21.79-4.6.5-11.7-2.52-22.93.55-4.71,1.29-8.77,4.43-8.77,4.43l18.19,4.45s-12.87,4.14-21.72,5.51c-8.85,1.37-16.37-5.73-16.37-5.73,0,0,3.72,12.26,5.68,16.46,1.96,4.2,13.2,14.8,20.08,14.01-15.35,9.17-43.41,41.2-46.14,62.24,4.18-2.08,31.47-3.18,31.47-3.18-4.8,5.85-15.09,22.74-13.88,39.43,5.14-1.13,19.23-9.81,31.26-6.63-3.51,6.43-8.62,15.73-7.02,27.24,7.68-4.44,15.5-6.17,26.13-5.54-1.35,8.28-4.8,12.91-4.8,12.91,0,0,29.3-4,32.57-1.96,4.83,3.02,28.57-4.66,28.57-4.66l34.23-12.54,48.85-32.15,8.66-14.81Z"/>
    </g>
    <g>
      <path class="cls-20" d="M254.54,297.62l-.29,5.96s1.38,20.21-1.04,21.74-15.68,7.37-20.8,7.75c-5.12.38-13.16-.1-14.79-.98-1.63-.88-15.68-8.64-19.92-12.43-4.24-3.79-33.99-28.47-33.99-28.47l-4.98-16.15s1.1,2.74-8.15,1.43c-9.25-1.31-16.41-7.85-19.02-12.68-3.07-5.67-8.96-16.02-8.38-24.11.47-6.57,6.05-11.73,9.83-11.49,8.67.55,17.58,8.64,17.58,8.64l1.68-15.65v-12.94l-7.96-9.94s-3.69-9.79-.83-16.12c2.86-6.33,8.15-13.59,13.3-17.82,5.77-4.74,17.6-4.95,20.77-5.09,3.17-.14,13.43,2.6,19.48,4.19,6.05,1.6,19.45,4.68,19.45,4.68l14.89-13.03s8.12,3.76,14.46,9.54c6.34,5.78,11.96,11.42,13.13,16.48s3.64,18.11,1.73,22.7c-1.55,3.73-.28,25.81-.28,25.81l6.67,1.01s.61,11.16,0,16.8c-.61,5.64-7.6,12.5-7.6,12.5,0,0-1.91,16.08-2.66,20.99-.75,4.91-2.26,16.71-2.26,16.71Z"/>
      <g class="cls-25">
        <path class="cls-27" d="M194.13,159.35s-27.76,1.08-31.61,9.02c-3.85,7.94-5.69,11.49-4.12,16.11,1.05,3.09-2.92,19.09,8.5,22.68,5.69,1.79,14.36-12.34,24.54-10.23s21.59,10.19,21.59,10.19l3.77,12.83s5.74,17.96.08,27.17c-1.54,2.5-9.23,9.38-11.76,9.43-2.88.06-11.39,1.77-19.04.6-5.78-.89-10.13-2.74-13.36-2.53-4.34.29-6.13,2.7-1.17,8.16,5.62,6.18,10.94,8.21,10.94,8.21l6.11,26.21s23.65,30.53,32.28,30.99c8.64.46,28.06.62,28.06.62l-28.06,15.57-63.07-12.18-14.88-17.12-10.87-26.98-23.75-46.41,22.98-44.1,13.03-38.55,21.73-4.93,22.55.98,5.53,4.26Z"/>
        <path class="cls-27" d="M222.59,311.69s10.05,1.11,14,.4,7.81-3.95,7.81-3.95c0,0-.31,6.63-8.17,7.25-7.86.62-13.64-3.7-13.64-3.7Z"/>
        <path class="cls-27" d="M240.79,240.87s9.27,8.92,16.41,6.91c7.14-2,13.56-6.91,13.56-6.91l-2.07-15.19-15.88-.95-3.04,11.4-8.97,4.74Z"/>
        <path class="cls-27" d="M218.33,192.77s3.81,2.52,5.75,2.05,3.37-2.83,3.37-2.83l-3.81,1.29-5.3-.51Z"/>
        <path class="cls-27" d="M215.56,183s3.81,1.75,5.75,1.42,3.37-1.97,3.37-1.97l-3.81.89-5.3-.35Z"/>
        <path class="cls-27" d="M213.61,187.66s3.29,3.36,8.48,2.72,6.56-4.3,6.56-4.3c0,0-1.19,1.31-6.11,1.96s-8.93-.37-8.93-.37Z"/>
      </g>
      <path class="cls-6" d="M254.54,297.62l-.29,5.96s1.38,20.21-1.04,21.74-15.68,7.37-20.8,7.75c-5.12.38-13.16-.1-14.79-.98-1.63-.88-15.68-8.64-19.92-12.43-4.24-3.79-33.99-28.47-33.99-28.47l-4.98-16.15s1.1,2.74-8.15,1.43c-9.25-1.31-16.41-7.85-19.02-12.68-3.07-5.67-8.96-16.02-8.38-24.11.47-6.57,6.05-11.73,9.83-11.49,8.67.55,17.58,8.64,17.58,8.64l1.68-15.65v-12.94l-7.96-9.94s-3.69-9.79-.83-16.12c2.86-6.33,8.15-13.59,13.3-17.82,5.77-4.74,17.6-4.95,20.77-5.09,3.17-.14,13.43,2.6,19.48,4.19,6.05,1.6,19.45,4.68,19.45,4.68l14.89-13.03s8.12,3.76,14.46,9.54c6.34,5.78,11.96,11.42,13.13,16.48s3.64,18.11,1.73,22.7c-1.55,3.73-.28,25.81-.28,25.81l6.67,1.01s.61,11.16,0,16.8c-.61,5.64-7.6,12.5-7.6,12.5,0,0-1.91,16.08-2.66,20.99-.75,4.91-2.26,16.71-2.26,16.71Z"/>
    </g>
    <g>
      <path class="cls-6" d="M133.95,241.96s2.16-3.64,4.63-3.18,13.57,12.56,13.57,12.56c0,0-6.44,5.4-4.26,8.25,2.18,2.85,9.66,4.62,9.66,4.62"/>
      <path class="cls-6" d="M139.2,256.87s-4.05-9.31,4.07-14.57"/>
      <line class="cls-6" x1="150.57" y1="237.76" x2="158.86" y2="251.48"/>
      <path class="cls-6" d="M162.54,251.48s9.37,15.22,16.92,15.85"/>
    </g>
    <path class="cls-23" d="M193.41,263.37s-6.5.98-8.56-.1-7.14-4.35-8.98-6.76c-1.85-2.42-2.7-8.74-2.7-8.74"/>
    <g>
      <path class="cls-24" d="M244.4,274.31s.92,20.06,0,24.63,0,4.2-8.46,6.21c-6.56,1.56-19.34,3.05-19.58-2.04s-.61-24.84,1.26-27.69c2.67-4.09,26.28-3.58,26.78-1.1Z"/>
      <g class="cls-36">
        <g>
          <path class="cls-19" d="M240.31,305.14s-7.48-7.87-13.14-11.18c-5.66-3.3-6.99-1.83-6.99-1.83,0,0-7.34-3.17-11.51,1.2-4.17,4.36-3.43,7.55-3.43,7.55l3.56,11.69,26.96-3.02,4.55-4.41Z"/>
          <g class="cls-30">
            <path class="cls-37" d="M206.01,294.17s4.11,6.82,7.02,6.34c2.91-.47,6.59-3.53,8.96-3.59s8.33.17,12.55-.58c4.22-.75.35-6.13.35-6.13l-7.06-1.16h-8.18l-12.41,1.04-1.23,4.06Z"/>
          </g>
        </g>
        <path class="cls-31" d="M244.05,271.49s2.43,8.12,2.43,9.52c0,1.85-26.32,2.24-31.07,1.79s-6.85-6.64-6.85-6.64l-.88-3.97,13.99-.38,22.38-.32Z"/>
      </g>
      <path class="cls-6" d="M244.4,274.31s.92,20.06,0,24.63,0,4.2-8.46,6.21c-6.56,1.56-19.34,3.05-19.58-2.04s-.61-24.84,1.26-27.69c2.67-4.09,26.28-3.58,26.78-1.1Z"/>
    </g>
    <g>
      <path class="cls-21" d="M241.61,257.71l28.22-1.33-9.32,5.16s3.3,1.59,5.71,1.59,8.63-2.86,8.63-2.86l-2.02,5.97,11.16-6.04s-.36,6.81-2.28,9.64c-1.92,2.84-8.73,6.06-8.73,6.06l16.29-.07s-4.68,10.26-10.78,11.23c-6.1.97-11.15-.04-11.15-.04l5.58,7.88-19.8-9.79.11,5.42-17.12-16.39-18.48,18.99,3.9-10.45-23,20.44,6.82-13.15s-8.26,9.62-14.22,10.31c-5.97.68-20.11,2.72-20.11,2.72,0,0,14.8-7.26,15.46-8.54-6.74,3-43,1.45-43,1.45,0,0,12.82-6.7,16.02-9.71-2.41-.64-15.38-9.72-15.38-9.72,0,0,16.01-1.57,24.13-3.16,1.03-.2-8.78-7.59-7.77-7.79,4.61-.88,33.83.7,33.83.7l-7.23-6.99,30.56.59,9.33-4.03,14.67,1.93Z"/>
      <g class="cls-14">
        <polygon class="cls-39" points="211.15 256.69 212.5 259.06 228.46 269.23 231.47 273.97 236.15 269.46 242.72 274.41 245.69 268.08 247.08 260.44 242.72 255.78 222.59 253.13 211.15 256.69"/>
        <path class="cls-39" d="M236.09,274.12l.06-4.66,13.58,7.82-1.76-4.96,11.36,8.32-.68-4.19,10.87,6.14s9.87,1.1,12.59-.67,2.33,15.7,2.33,15.7l-12.26,4.45-18.97-11.56-17.12-16.39Z"/>
        <polygon class="cls-18" points="241.39 255.78 262.33 252.62 270.46 247.12 264.31 246.1 245.11 250.32 241.39 255.78"/>
        <polygon class="cls-18" points="190.79 257.98 214.23 260.52 201.95 262.51 183.29 259.83 190.79 257.98"/>
        <path class="cls-18" d="M194.29,266.21l4.11,1.75s-11.14,2.72-13.15,2.66c-2-.06-17.27-1.39-17.27-1.39l9.98,4.74-26.81,4.39,8.76,4.37,4.95,2.17-24.34,15.84-4.68-24.29.1-1.91,21.29-14.22,10.1.93,26.96,4.96Z"/>
        <path class="cls-18" d="M253.82,255.78s.96,5.17,2.77,6.2,6.01,3.39,8.88,3.39,5.6-.74,5.6-.74l-2.36,2.65s1.1,1.84,3.39,1.33,7.51-4.82,7.51-4.82l-.93,7.73,9-9.94,2.53-17.97-5.3-1.35-11.19,9.28-19.89,4.26Z"/>
        <path class="cls-39" d="M236.39,266.23l-12.27,18.2v-7.07l-3.15-4.54-14,18.21,1.31-7.34-18.4,14.13-13.44,6.48-4.19,8.1s11.81.29,12.18.15,29.74-9.45,29.74-9.45l19.41-20.37,5.03-8.61-2.21-7.89Z"/>
        <path class="cls-39" d="M190.12,306l6.21-13.14,1.23-3.75-8.43,4.01,7.21-5.45-11.04,3.83,6.13-3.83s-33.47,3.79-36.12,3.45-15.95-.94-15.95-.94l-9.91,14.97,14.01,2.7,34.96.29,11.7-2.13Z"/>
        <path class="cls-18" d="M271.28,274.93s4.79,5.19,8.39,5.17,17.37-5.61,17.37-5.61l-1.91-4.71-11.93,3.83-11.93,1.33Z"/>
      </g>
      <path class="cls-6" d="M241.61,257.71l28.22-1.33-9.32,5.16s3.3,1.59,5.71,1.59,8.63-2.86,8.63-2.86l-2.02,5.97,11.16-6.04s-.36,6.81-2.28,9.64c-1.92,2.84-8.73,6.06-8.73,6.06l16.29-.07s-4.68,10.26-10.78,11.23c-6.1.97-11.15-.04-11.15-.04l5.58,7.88-19.8-9.79.11,5.42-17.12-16.39-18.48,18.99,3.9-10.45-23,20.44,6.82-13.15s-8.26,9.62-14.22,10.31c-5.97.68-20.11,2.72-20.11,2.72,0,0,14.8-7.26,15.46-8.54-6.74,3-43,1.45-43,1.45,0,0,12.82-6.7,16.02-9.71-2.41-.64-15.38-9.72-15.38-9.72,0,0,16.01-1.57,24.13-3.16,1.03-.2-8.78-7.59-7.77-7.79,4.61-.88,33.83.7,33.83.7l-7.23-6.99,30.56.59,9.33-4.03,14.67,1.93Z"/>
    </g>
    <g>
      <g>
        <path class="cls-1" d="M261.8,243.92c-1.96,1.99-10.81,1.52-10.81,1.52-10.25.01-18.58-9.64-18.59-21.56-.01-11.92,8.29-21.6,18.54-21.61,0,0,2.75-.75,5.31-.54,2.55.21,10.97,15.09,10.79,21.57-.17,6.49-1.83,17.15-5.25,20.62Z"/>
        <g class="cls-28">
          <path class="cls-41" d="M233.55,232.96s7.05,5.32,10.64,5.55c3.59.22,15.5,3.23,15.5,3.23h10.18l-3.22,10.32-25.58,1.1-14.87-4.14,3.56-10.5,3.79-5.55Z"/>
        </g>
        <path class="cls-6" d="M261.8,243.92c-1.96,1.99-10.81,1.52-10.81,1.52-10.25.01-18.58-9.64-18.59-21.56-.01-11.92,8.29-21.6,18.54-21.61,0,0,2.75-.75,5.31-.54,2.55.21,10.97,15.09,10.79,21.57-.17,6.49-1.83,17.15-5.25,20.62Z"/>
      </g>
      <g>
        <path class="cls-34" d="M226.29,216.41c3.46-.29,6.99.89,7.87,1.18,2.3.76.01,9.65.01,9.65,0,0-3.61-.92-6.98-.94s-8.45,1.99-8.45,1.99c-.36-4.6-1.89-8.46-.63-9.35,2.32-1.04,4.72-2.24,8.19-2.54Z"/>
        <g class="cls-3">
          <path class="cls-24" d="M216.55,227.23s5.51-3.67,10.27-3.86,10.72,1.3,11.58,2.28.12,9,.12,9l-9.48-.12-12.61-.12.12-7.18Z"/>
        </g>
        <path class="cls-6" d="M226.29,216.41c3.46-.29,6.99.89,7.87,1.18,2.3.76.01,9.65.01,9.65,0,0-3.61-.92-6.98-.94s-8.45,1.99-8.45,1.99c-.36-4.6-1.89-8.46-.63-9.35,2.32-1.04,4.72-2.24,8.19-2.54Z"/>
      </g>
      <ellipse class="cls-8" cx="256.28" cy="223.27" rx="18.57" ry="21.62"/>
      <g>
        <path class="cls-1" d="M197.77,206.28s-18.51.2-24.54,3.79c-6.04,3.59-14.98,12.14-14.98,12.14l.95,16.28s14.84,15.33,22.58,15.94c7.74.61,18.21-.36,18.21-.36l10.39-25.93-12.6-21.85Z"/>
        <g class="cls-4">
          <path class="cls-41" d="M191.36,248.68s-9.78-4.5-13.11-5.52c-3.99-1.23-12.92-6.56-12.92-6.56h-6.07l2.08,12.21,4.81,14.97,32.01-5.84,6.96-1.38v-7.5l-13.76-.37Z"/>
        </g>
        <path class="cls-6" d="M197.77,206.28s-18.51.2-24.54,3.79c-6.04,3.59-14.98,12.14-14.98,12.14l.95,16.28s14.84,15.33,22.58,15.94c7.74.61,18.21-.36,18.21-.36l10.39-25.93-12.6-21.85Z"/>
      </g>
      <ellipse class="cls-8" cx="199.03" cy="230.1" rx="20.61" ry="24"/>
      <ellipse class="cls-12" cx="256.59" cy="223.27" rx="13.87" ry="16.15"/>
      <ellipse class="cls-12" cx="199.35" cy="230.32" rx="15.59" ry="18.16"/>
      <line class="cls-13" x1="201.7" y1="238.47" x2="205.33" y2="235.04"/>
      <line class="cls-13" x1="192.77" y1="230.99" x2="202.34" y2="220.52"/>
      <line class="cls-13" x1="258.7" y1="232.24" x2="262.33" y2="228.81"/>
      <line class="cls-13" x1="249.76" y1="224.76" x2="259.33" y2="214.29"/>
      <g>
        <polygon class="cls-34" points="160.92 240.2 150.57 237.48 149.93 221.19 160.29 220.31 160.92 240.2"/>
        <g class="cls-29">
          <polygon class="cls-24" points="165.84 234.17 148.1 231.38 146.18 237.91 150.57 240.7 164.45 240.7 165.84 234.17"/>
        </g>
        <polygon class="cls-6" points="160.92 240.2 150.57 237.48 149.93 221.19 160.29 220.31 160.92 240.2"/>
      </g>
      <g>
        <path class="cls-34" d="M149.93,221.19l.64,16.29-8.43-5.82-6.76-2.99,1.46-2.91s2.42-1.45,4.88-2.49c2.47-1.04,8.2-2.08,8.2-2.08Z"/>
        <g class="cls-15">
          <path class="cls-24" d="M150.35,231.84l-7.84-3.22-7.8-1.33-2.29,1.99-3.82,5.31s7.69,7.23,9.6,7.14,12.37-.57,12.37-.57l3.36-3.42-3.59-5.91Z"/>
        </g>
        <path class="cls-6" d="M149.93,221.19l.64,16.29-8.43-5.82-6.76-2.99,1.46-2.91s2.42-1.45,4.88-2.49c2.47-1.04,8.2-2.08,8.2-2.08Z"/>
      </g>
      <ellipse class="cls-26" cx="174.59" cy="217.64" rx="2.49" ry="1.8" transform="translate(-83.85 322.82) rotate(-73.41)"/>
      <ellipse class="cls-26" cx="175.18" cy="241.74" rx="1.82" ry="2.46" transform="translate(-97.13 119.38) rotate(-29.87)"/>
      <ellipse class="cls-26" cx="171.79" cy="230.46" rx="1.79" ry="2.5"/>
      <g>
        <polygon class="cls-35" points="164.68 223.83 161.81 222.77 156.36 223.7 157.11 237.48 162.64 237.76 165.91 236.52 164.68 223.83"/>
        <g class="cls-16">
          <polygon class="cls-40" points="166.69 233.4 162.87 235.06 161.81 223.75 158.95 221.22 156.21 223.55 156.78 238.89 165.5 238.89 168.97 237.06 166.69 233.4"/>
        </g>
        <polygon class="cls-6" points="164.68 223.83 161.81 222.77 156.36 223.7 157.11 237.48 162.64 237.76 165.91 236.52 164.68 223.83"/>
      </g>
    </g>
    <g>
      <path class="cls-20" d="M221.63,250.32c-1.55-.41-5.54-2.24-7.53-.46-1.99,1.78-.64,8.91-.4,9.64.24.73,6.94.02,8.11.24s8.6,5.51,9.72,6.15,11.06.08,12.17-.54c1.1-.61,2.96-7.39,2.76-8.79-.2-1.4-3.54-10.16-4.97-14.05-1.44-3.89-6.1-15.27-9.09-16.36,0,0-12.68-1.12-12.76,3.63,0,0,1.26,8.27-.76,11.83"/>
      <g class="cls-22">
        <path class="cls-27" d="M233.57,265.39s-4.51-3.42-5.92-4.9-3.32-3.87-5.18-3.45-8,2.11-10-.28c-2-2.4-3.55-4.51-3.55-4.51l-1.83,6.48,1.27,12.4,14.71,1.27,10.5-7.01Z"/>
      </g>
      <path class="cls-6" d="M221.63,250.32c-1.55-.41-5.54-2.24-7.53-.46-1.99,1.78-.64,8.91-.4,9.64.24.73,6.94.02,8.11.24s8.6,5.51,9.72,6.15,11.06.08,12.17-.54c1.1-.61,2.96-7.39,2.76-8.79-.2-1.4-3.54-10.16-4.97-14.05-1.44-3.89-6.1-15.27-9.09-16.36,0,0-12.68-1.12-12.76,3.63,0,0,1.26,8.27-.76,11.83"/>
    </g>
    <g>
      <g>
        <path class="cls-21" d="M216.19,206.56c-.62.89-1.73,2.49-3.25,1.62-5.94-3.42-13.73-8.03-15.27-8.43-2.01-.53-10.14-.34-13.9.45-3.75.79-19.45,11.13-18.84,10.84.84-.4-.45-3.48.27-5.23.72-1.75,4.19-4.23,6.44-5.39-1.68.52-8.14,1.4-8.12.74.04-1.77,2.68-4.47,4.15-5.63,1.07-.85,6-4.69,8.22-3.93-2.24-1.43-2.51-1.69-6.11-2.68,3.79-1.76,8.38-2.62,11.78-2.1,4.3.65,8.27,2.12,8.27,2.12,0,0-2.98-3.61-2.29-4.26.69-.65,8.48,1.95,9.98,3.13,1.5,1.18,14.5,11.72,14.5,11.72,0,0,4.77,6.14,4.15,7.02Z"/>
        <g class="cls-32">
          <path class="cls-18" d="M217.79,208.5l-9.4-9.92s-11.58-8.9-15.3-10.37c-3.72-1.47-6.21-2.1-6.21-2.1l4.28,4.36s-10.91-2.38-12.92-2.21-10.56,2.74-10.56,2.74l-2.83-2.34,3.29-2.59,14.19-3.66,12.91-1.12,10.78,5.22,14.83,13.02-1.15,10.89-1.9-1.91Z"/>
          <path class="cls-18" d="M171.42,191.36s5.13-.85,6.85,1.74c-1.52,1.05-13.94,9.1-13.94,9.1l-3.45,2.69-3.3-1.13,5.6-5.94,8.24-6.47Z"/>
          <path class="cls-39" d="M209.66,209.43s-1.5-7.76-4.71-8.78c-3.21-1.02-14.32-4.23-16.12-4.14-1.8.09-7.88.5-9.63,1.88-1.75,1.39-7.73,5.35-8.8,6.97s-2.66,6.8-2.66,6.8l8.52-.31,26.69-3.39,6.72.96Z"/>
        </g>
        <path class="cls-6" d="M216.19,206.56c-.62.89-1.73,2.49-3.25,1.62-5.94-3.42-13.73-8.03-15.27-8.43-2.01-.53-10.14-.34-13.9.45-3.75.79-19.45,11.13-18.84,10.84.84-.4-.45-3.48.27-5.23.72-1.75,4.19-4.23,6.44-5.39-1.68.52-8.14,1.4-8.12.74.04-1.77,2.68-4.47,4.15-5.63,1.07-.85,6-4.69,8.22-3.93-2.24-1.43-2.51-1.69-6.11-2.68,3.79-1.76,8.38-2.62,11.78-2.1,4.3.65,8.27,2.12,8.27,2.12,0,0-2.98-3.61-2.29-4.26.69-.65,8.48,1.95,9.98,3.13,1.5,1.18,14.5,11.72,14.5,11.72,0,0,4.77,6.14,4.15,7.02Z"/>
      </g>
      <g>
        <path class="cls-21" d="M239.61,193.35s.89.74,2-2.28c1.12-3.02,10.82-11.84,14.28-13.43,3.45-1.59,7.81-.73,13.71,2.41-1.03-3.3-2.14-5.8-4.51-5.84,2.96-.55,5.23-.44,5.23-.44-1.95-1.39-4.39-7.52-9.87-6.45,1.61-2.61,2.57-4.97,2.57-4.97-3.32.51-7.68.28-10.26,3.16.24-1.64,2.17-4.79,2.51-5.3-1.29.74-11.56,10.61-13.07,16.68-1.51,6.07-3.62,10.62-2.6,16.45Z"/>
        <g class="cls-38">
          <path class="cls-18" d="M237.62,187.18l1.99,6.18,1.92-7.24,2.88-9.49s2.43-5.35,5.54-7.66,13.49-4.11,13.49-4.11l2.85-4.74-5.38-4.06-10.35,1.87-6.58,7.59-3.42,9.7-2.95,11.97Z"/>
          <path class="cls-18" d="M265.26,165.55l-4.8,1.78-3.54,2.93s5.43-.56,7.31.68c1.88,1.24,4,2.88,4,2.88l3.5.87,3.17-1.95-1.29-6.42-8.35-.78Z"/>
          <path class="cls-39" d="M243.4,189.93s1.93-7.5,4.12-9.28c2.19-1.79,7.82-5.67,9.68-5.79,1.86-.12,9.81,1.08,12.3,2.18,2.49,1.09,3.7,6.68,3.7,6.68l-1.39,1.95-23.19,5.47-5.2-1.21Z"/>
        </g>
        <path class="cls-6" d="M239.61,193.35s.89.74,2-2.28c1.12-3.02,10.82-11.84,14.28-13.43,3.45-1.59,7.81-.73,13.71,2.41-1.03-3.3-2.14-5.8-4.51-5.84,2.96-.55,5.23-.44,5.23-.44-1.95-1.39-4.39-7.52-9.87-6.45,1.61-2.61,2.57-4.97,2.57-4.97-3.32.51-7.68.28-10.26,3.16.24-1.64,2.17-4.79,2.51-5.3-1.29.74-11.56,10.61-13.07,16.68-1.51,6.07-3.62,10.62-2.6,16.45Z"/>
      </g>
    </g>
    <path class="cls-6" d="M220.96,311.46s7.75,1.8,15.63.63,7.81-3.95,7.81-3.95"/>
    <g>
      <path class="cls-44" d="M154.43,178.51l-10.89,26.77s-1.6,11.34,9.18,11.82c10.78.48,8.11-16.81,8.11-16.81l-6.41-21.78Z"/>
      <g class="cls-33">
        <path class="cls-17" d="M152.3,189.64s-7.67,14.93-6.53,18.38,2.96,1.19,3.21,0,3.32-18.38,3.32-18.38Z"/>
      </g>
    </g>
    <path class="cls-9" d="M213.61,187.66s3.61,3.19,9.09,2.64,5.62-4.12,5.62-4.12"/>
    <path class="cls-9" d="M215.15,182.54s.78,2.58,6.78,1.73c2.74-.39,3.16-2.67,3.16-2.67"/>
  </g>
  <path class="cls-42" d="M328.24,233c0,3.52-1.14,6.24-3.42,8.16-2.28,1.92-4.86,2.88-7.74,2.88s-5.46-.96-7.74-2.88-3.42-4.64-3.42-8.16,1.14-6.24,3.42-8.16,4.86-2.88,7.74-2.88,5.46.96,7.74,2.88c2.28,1.92,3.42,4.64,3.42,8.16ZM326.68,180.8c0,6.48-.24,12.52-.72,18.12-.48,5.6-1.12,11.28-1.92,17.04h-13.68c-.8-5.76-1.46-11.44-1.98-17.04-.52-5.6-.78-11.64-.78-18.12v-21.48h19.08v21.48Z"/>
</svg>