<?xml version="1.0" encoding="UTF-8"?>
<svg id="New_Here_Section" data-name="New Here Section" xmlns="http://www.w3.org/2000/svg" viewBox="0 0 50 50">
  <defs>
    <style>
      .cls-1 {
        fill: #f9ac1e;
        fill-rule: evenodd;
      }
    </style>
  </defs>
  <path class="cls-1" d="M28.83,19.71h-.19c-.37,0-.66-.29-.67-.66-.02-.93-.14-1.74-.91-2.5-.83-.83-1.95-1.14-3.06-1.37-.36-.07-.6-.42-.53-.78l.03-.19c.03-.18.13-.33.29-.43.16-.1.33-.14.51-.1,1.42.29,2.76.7,3.85,1.78,1.1,1.1,1.32,2.2,1.35,3.56,0,.19-.06.35-.19.49-.13.14-.29.2-.48.2M40.26,20.79h-.19c-.36.01-.67-.27-.68-.63-.08-1.52-.38-2.74-1.58-3.97-1.21-1.24-2.46-1.61-4.01-1.77-.36-.04-.63-.36-.6-.72v-.19c.03-.19.11-.35.25-.47.15-.12.31-.17.5-.15,1.92.21,3.48.71,4.95,2.23,1.47,1.52,1.9,3.05,2.01,4.96.01.19-.05.36-.18.49-.13.14-.29.21-.48.21ZM27.7,24.7c-3.04-.8-4.88-3.29-5.33-6.23-.03-.19.02-.37.14-.52.12-.15.28-.24.48-.25h.19c.35-.04.66.21.71.55.38,2.43,1.9,4.49,4.46,5.03.85.18,2.07.13,2.9-.08.94-.24,1.81-.67,2.5-1.23.99-.8,1.31-1.47,1.56-2.47.09-.35.44-.57.79-.5l.18.04c.19.04.33.14.43.3.1.16.13.34.08.52-.34,1.35-.82,2.28-2.08,3.3-.87.71-1.95,1.24-3.1,1.53-.72.18-1.46.27-2.22.25.42,1.2.6,1.9.65,2.96,0,.19-.05.36-.19.49-.13.14-.3.21-.49.21h-.2c-.36,0-.65-.28-.67-.64-.05-1-.23-1.6-.64-2.74-.06-.17-.12-.34-.18-.52ZM26.88,31.92l.09-.17c.17-.32.57-.45.89-.28,1.5.76,2.93,1.22,4.79.75,1.5-.38,2.04-.94,2.52-1.94.16-.32.54-.46.87-.32l.17.07c.18.08.3.21.37.39.07.18.06.36-.03.53-.71,1.42-1.58,2.27-3.52,2.76-2.26.57-4.02.05-5.86-.87-.17-.08-.28-.22-.34-.4-.06-.18-.04-.35.05-.52ZM19.93,27.42c.24-.85.33-1.68.18-2.44-.24-1.22-.97-1.88-1.86-2.51-.3-.21-.37-.62-.17-.93l.11-.16c.11-.16.25-.25.44-.29.19-.03.36,0,.51.11,1.24.88,2.16,1.79,2.49,3.47.2,1.02.08,2.08-.22,3.15-.05.18-.16.32-.33.41-.17.09-.35.1-.53.04l-.18-.06c-.34-.12-.52-.47-.43-.82ZM21.05,14.89c-2.1,2.92-4.13,3.24-7.77,2.37-.15-.04-.29-.07-.41-.1-.22.17-.32.33-.43.51-.39.63-.78.99-1.26,1.37-.15.12-.31.16-.5.14-.19-.02-.34-.11-.45-.26l-.11-.15c-.22-.29-.17-.71.12-.94.34-.27.64-.54.91-.98.17-.28.33-.53.65-.8l-.55-1.74c-.11-.35.09-.73.44-.84l.18-.06c.35-.11.73.09.84.44l.58,1.83c.11.03.23.05.35.08,2.94.71,4.49.53,6.17-1.77.21-.29.78-.48,1.08-.28.38.25.49.73.17,1.18ZM6.74,20.77c1.2.73,1.98.92,3.3,1.08-.26.82-.56,1.67-.61,2.21-.04.49.16.84.43,1.16.24.28.21.69-.06.93l-.13.12c-.14.13-.31.18-.5.17-.19-.01-.35-.09-.47-.24-.54-.64-.89-1.25-.8-2.28.03-.33.11-.67.26-1.02-.68-.12-1.48-.38-2.21-.82-.89-.54-1.66-1.34-2.02-2.47-.06-.18-.1-.37-.13-.56-.76.66-1.15,1.68-1.27,2.81-.13,1.24.06,2.57.45,3.7.24.7.56,1.31.92,1.75,1.06,1.3,2.43,2.18,4.03,2.6,1.47.38,3.16.39,5.01,0v-.15s.03,0,.03,0c.05-.92.2-1.77.52-2.53.55-1.3,1.32-1.9,2.38-2.49.16-.09.34-.11.52-.06.18.05.32.17.4.33l.09.16c.17.32.05.73-.27.9-.74.4-1.31.82-1.71,1.74-.31.74-.41,1.65-.41,2.69v.09c.06,1.51.79,2.51,1.8,3.15,1.64,1.04,4.01,1.25,5.67,1.24,6.15-.05,6.42,4.35,7.41,7.67.12.41.24.8.35,1.15.16,0,.33.01.5.02.69.03,2.45.06,3.05-.02-.09-.61-.19-1.46-.22-2.25-.03-.84,0-1.66.2-2.15l.18-.46.49-.03c9.1-.57,8.81-5.47,8.66-7.87v-.08s0-.04,0-.04c-.16-2.13-.73-3.52-1.61-4.41-1.02-1.02-2.29-1.29-3.62-1.45-.36-.04-.63-.37-.59-.74l.02-.19c.02-.19.1-.34.25-.46s.31-.16.5-.14c1.7.21,3.22.58,4.52,1.89,1,1,1.68,2.45,1.96,4.49.95-.27,1.7-.66,2.25-1.13.53-.45.88-.96,1.07-1.5.19-.53.23-1.09.13-1.62-.11-.56-.36-1.1-.75-1.56l-.27-.32.12-.4c.04-.12.07-.23.09-.32.47-1.73.35-3.19-.17-4.29-.5-1.06-1.38-1.8-2.45-2.13-.06-.02-.11-.03-.14-.04l-.52-.14-.04-.54c-.08-.98-.47-2.74-1.71-3.91-.79-.75-1.97-1.26-3.68-1.2l-.54.02-.2-.51c-.36-.9-.89-1.71-1.81-2.17-.98-.49-2.43-.63-4.61-.18-.14.04-.27.08-.4.14-.41.18-.77.48-.97.89-.42.83-.14,1.72.21,2.53.14.34,0,.73-.34.88l-.17.08c-.17.08-.35.08-.52.01-.17-.07-.3-.19-.37-.37-.52-1.23-.86-2.47-.17-3.82.32-.62.81-1.1,1.38-1.43-.15-.15-.32-.27-.5-.38-.59-.34-1.29-.45-1.96-.43-.69.02-1.32.18-1.75.4-.18.09-.29.16-.32.21l-.45.79-.7-.58c-.08-.06-.16-.12-.24-.16-.47-.27-1.17-.41-1.91-.3-.74.11-1.52.49-2.17,1.27-.18.21-.34.44-.48.7l-.5.89-.71-.72c-.72-.73-1.53-1.07-2.32-1.11-.56-.03-1.11.07-1.62.28-.52.21-1,.53-1.39.92-.62.61-1.04,1.39-1.08,2.18l-.04.72h-.72c-.35,0-.79.05-1.28.14-.93.18-1.99.55-2.8,1.27-1.88,1.66-2.02,6.37.28,7.77Z"/>
</svg>