<?xml version="1.0" encoding="UTF-8"?>
<svg id="New_Here_Section" data-name="New Here Section" xmlns="http://www.w3.org/2000/svg" viewBox="0 0 50 50">
  <defs>
    <style>
      .cls-1 {
        fill: #f9ac1e;
      }
    </style>
  </defs>
  <path class="cls-1" d="M13.31,35.54c-5.81,0-10.54-4.73-10.54-10.54s4.73-10.54,10.54-10.54,10.54,4.73,10.54,10.54-4.73,10.54-10.54,10.54ZM13.31,15.65c-5.15,0-9.35,4.19-9.35,9.35s4.19,9.35,9.35,9.35,9.35-4.19,9.35-9.35-4.19-9.35-9.35-9.35Z"/>
  <path class="cls-1" d="M13.31,32.89c-4.35,0-7.89-3.54-7.89-7.89s3.54-7.89,7.89-7.89,7.89,3.54,7.89,7.89-3.54,7.89-7.89,7.89ZM13.31,18.3c-3.69,0-6.7,3.01-6.7,6.7s3.01,6.7,6.7,6.7,6.7-3.01,6.7-6.7-3.01-6.7-6.7-6.7Z"/>
  <path class="cls-1" d="M36.69,32.89c-4.35,0-7.89-3.54-7.89-7.89s3.54-7.89,7.89-7.89,7.89,3.54,7.89,7.89-3.54,7.89-7.89,7.89ZM36.69,18.3c-3.69,0-6.7,3.01-6.7,6.7s3.01,6.7,6.7,6.7,6.7-3.01,6.7-6.7-3.01-6.7-6.7-6.7Z"/>
  <path class="cls-1" d="M36.69,35.54c-5.81,0-10.54-4.73-10.54-10.54s4.73-10.54,10.54-10.54,10.54,4.73,10.54,10.54-4.73,10.54-10.54,10.54ZM36.69,15.65c-5.15,0-9.35,4.19-9.35,9.35s4.19,9.35,9.35,9.35,9.35-4.19,9.35-9.35-4.19-9.35-9.35-9.35Z"/>
  <g>
    <path class="cls-1" d="M11.23,25.84c-.15,0-.29-.05-.41-.16-.24-.23-.25-.6-.03-.84l3.67-3.91c.23-.24.6-.25.84-.03.24.23.25.6.03.84l-3.67,3.91c-.12.12-.28.19-.43.19Z"/>
    <path class="cls-1" d="M14.26,26.92c-.14,0-.28-.05-.4-.15-.25-.22-.27-.6-.05-.84l2.35-2.64c.22-.25.6-.27.84-.05.25.22.27.6.05.84l-2.35,2.64c-.12.13-.28.2-.45.2Z"/>
  </g>
  <g>
    <path class="cls-1" d="M34.18,25.84c-.15,0-.29-.05-.41-.16-.24-.23-.25-.6-.03-.84l3.67-3.91c.23-.24.61-.25.84-.03.24.23.25.6.03.84l-3.67,3.91c-.12.13-.28.19-.43.19Z"/>
    <path class="cls-1" d="M37.22,26.92c-.14,0-.28-.05-.4-.15-.25-.22-.27-.6-.05-.84l2.35-2.64c.22-.25.6-.27.84-.05.25.22.27.6.05.84l-2.35,2.64c-.12.13-.28.2-.45.2Z"/>
  </g>
  <path class="cls-1" d="M26.8,26.44c-.59-.08-1.42-.17-1.71-.17s-1.12.09-1.71.17l-.77-5.51c.27-.04,1.64-.22,2.48-.22s2.22.19,2.48.22l-.77,5.51Z"/>
  <path class="cls-1" d="M44.54,31.64c-.15,0-.3-.06-.42-.17-.24-.23-.24-.61-.01-.84l4.1-4.21v-3.5l-4.63-4.22c-.24-.22-.26-.6-.04-.84.22-.24.6-.26.84-.04l4.82,4.39c.12.11.19.27.19.44v4c0,.16-.06.3-.17.42l-4.27,4.38c-.12.12-.27.18-.43.18Z"/>
  <path class="cls-1" d="M5.46,31.64c-.16,0-.31-.06-.43-.18L.76,27.08c-.11-.11-.17-.26-.17-.42v-4c0-.17.07-.33.19-.44l4.82-4.39c.24-.22.62-.2.84.04.22.24.2.62-.04.84l-4.63,4.22v3.5l4.1,4.21c.23.24.23.61-.01.84-.12.11-.27.17-.42.17Z"/>
</svg>