<?xml version="1.0" encoding="UTF-8" standalone="no"?>
<!-- Created with Inkscape (http://www.inkscape.org/) -->

<svg
   xmlns:dc="http://purl.org/dc/elements/1.1/"
   xmlns:cc="http://creativecommons.org/ns#"
   xmlns:rdf="http://www.w3.org/1999/02/22-rdf-syntax-ns#"
   xmlns:svg="http://www.w3.org/2000/svg"
   xmlns="http://www.w3.org/2000/svg"
   xmlns:sodipodi="http://sodipodi.sourceforge.net/DTD/sodipodi-0.dtd"
   xmlns:inkscape="http://www.inkscape.org/namespaces/inkscape"
   width="1in"
   height="1in"
   viewBox="0 0 167.58085 214.59625"
   version="1.1"
   id="svg8"
   inkscape:version="0.92.2 2405546, 2018-03-11"
   sodipodi:docname="alchitry_beaker.svg"
   inkscape:export-filename="/tmp/logo.png"
   inkscape:export-xdpi="43.888885"
   inkscape:export-ydpi="43.888885">
  <sodipodi:namedview
     id="base"
     pagecolor="#404040"
     bordercolor="#666666"
     borderopacity="1.0"
     inkscape:pageopacity="0"
     inkscape:pageshadow="2"
     inkscape:zoom="0.45818448"
     inkscape:cx="1578.5631"
     inkscape:cy="-331.09185"
     inkscape:document-units="in"
     inkscape:current-layer="layer8"
     showgrid="true"
     inkscape:window-width="3840"
     inkscape:window-height="2109"
     inkscape:window-x="0"
     inkscape:window-y="27"
     inkscape:window-maximized="1"
     showguides="false"
     inkscape:snap-center="true"
     inkscape:snap-object-midpoints="true"
     units="in"
     inkscape:pagecheckerboard="false"
     fit-margin-left="0"
     fit-margin-top="0"
     fit-margin-bottom="0"
     fit-margin-right="0"
     inkscape:snap-others="false"
     inkscape:object-nodes="false">
    <inkscape:grid
       id="grid4489"
       type="xygrid"
       originx="-1.7580781"
       originy="-14.924048"
       visible="false" />
  </sodipodi:namedview>
  <defs
     id="defs2" />
  <metadata
     id="metadata5">
    <rdf:RDF>
      <cc:Work
         rdf:about="">
        <dc:format>image/svg+xml</dc:format>
        <dc:type
           rdf:resource="http://purl.org/dc/dcmitype/StillImage" />
        <dc:title></dc:title>
      </cc:Work>
    </rdf:RDF>
  </metadata>
  <g
     transform="translate(-1.758082,-67.479658)"
     id="layer1"
     inkscape:groupmode="layer"
     inkscape:label="Alchitry Text"
     style="display:inline" />
  <g
     inkscape:groupmode="layer"
     id="layer8"
     inkscape:label="dot"
     style="display:inline"
     transform="translate(-1.615242,216.94073)" />
  <g
     inkscape:groupmode="layer"
     id="layer7"
     inkscape:label="Bob Mod 2"
     style="display:inline"
     transform="translate(-1.615242,216.94073)">
    <g
       id="g2212"
       transform="matrix(21.811895,0,0,21.811895,-33.779306,-236.62368)">
      <g
         transform="matrix(0.07881215,0,0,-0.07881215,4.178485,8.5637065)"
         id="g1077">
        <path
           inkscape:connector-curvature="0"
           id="path1079"
           style="fill:#ffcc00;fill-opacity:1;fill-rule:nonzero;stroke:none"
           d="m 0,0 c -1.479,0 -2.678,-1.199 -2.678,-2.678 0,-1.478 1.199,-2.677 2.678,-2.677 1.479,0 2.678,1.199 2.678,2.677 C 2.678,-1.199 1.479,0 0,0" />
      </g>
      <g
         style="fill:#67b319;fill-opacity:1"
         transform="matrix(0.07881215,0,0,-0.07881215,4.4367759,9.2327585)"
         id="g1081">
        <path
           inkscape:connector-curvature="0"
           id="path1083"
           style="fill:#ffcc00;fill-opacity:1;fill-rule:nonzero;stroke:none"
           d="m 0,0 c -0.969,-0.549 -2.086,-0.866 -3.277,-0.866 -3.683,0 -6.679,2.996 -6.679,6.678 0,3.681 2.996,6.677 6.679,6.677 3.682,0 6.678,-2.996 6.678,-6.677 0,-1.037 -0.244,-2.014 -0.667,-2.89 L 7.88,-2.224 v -5.912 h 3.157 v 27.465 c -2.709,0.853 -4.679,3.386 -4.679,6.371 0,3.684 2.996,6.68 6.679,6.68 3.682,0 6.678,-2.996 6.678,-6.68 0,-2.985 -1.97,-5.518 -4.678,-6.371 V -8.136 h 3.374 V 3.837 l 5.241,5.243 c -0.484,0.924 -0.762,1.973 -0.762,3.087 0,3.684 2.996,6.68 6.679,6.68 3.682,0 6.678,-2.996 6.678,-6.68 0,-3.682 -2.996,-6.678 -6.678,-6.678 -1.114,0 -2.163,0.279 -3.088,0.763 L 22.411,2.181 V -8.136 h 19.684 l 6.57,16.631 -26.128,22.353 v 25.389 h -19 V 30.848 L -22.592,8.495 -16.022,-8.136 H 3.88 v 4.256 z" />
      </g>
      <g
         transform="matrix(0.07881215,0,0,-0.07881215,6.7671646,8.4848945)"
         id="g1085">
        <path
           inkscape:connector-curvature="0"
           id="path1087"
           style="fill:#ffcc00;fill-opacity:1;fill-rule:nonzero;stroke:none"
           d="M 0,0 C 1.479,0 2.678,1.199 2.678,2.678 2.678,4.158 1.479,5.357 0,5.357 -1.48,5.357 -2.679,4.158 -2.679,2.678 -2.679,1.199 -1.48,0 0,0" />
      </g>
      <g
         transform="matrix(0.07881215,0,0,-0.07881215,5.4581029,7.4176988)"
         id="g1089">
        <path
           inkscape:connector-curvature="0"
           id="path1091"
           style="fill:#ffcc00;fill-opacity:1;fill-rule:nonzero;stroke:none"
           d="m 0,0 h 0.155 c 1.443,0.042 2.601,1.216 2.601,2.67 0,1.48 -1.199,2.68 -2.678,2.68 -1.48,0 -2.679,-1.2 -2.679,-2.68 C -2.601,1.216 -1.443,0.042 0,0" />
      </g>
      <g
         transform="matrix(0.07881215,0,0,-0.07881215,4.830955,2.8665256)"
         id="g1093">
        <path
           inkscape:connector-curvature="0"
           id="path1095"
           style="fill:#ffcc00;fill-opacity:1;fill-rule:nonzero;stroke:none;stroke-width:1.098189"
           d="m -0.83710094,-0.8407434 c 1.00813753,0 1.82958292,-0.8214454 1.82958292,-1.8317793 0,-1.0092357 -0.82144539,-1.8295829 -1.82958292,-1.8295829 -1.00813756,0 -1.82958296,0.8203472 -1.82958296,1.8295829 0,1.0103339 0.8214454,1.8317793 1.82958296,1.8317793 m 0,-6.9559293 c 2.82564034,0 5.12415004,2.2985096 5.12415004,5.12415 0,2.82673856 -2.2985097,5.1263464 -5.12415004,5.1263464 -2.82564036,0 -5.12415006,-2.29960784 -5.12415006,-5.1263464 0,-2.8256404 2.2985097,-5.12415 5.12415006,-5.12415" />
      </g>
      <g
         transform="matrix(0.07881215,0,0,-0.07881215,6.1747655,2.3674868)"
         id="g1097">
        <path
           inkscape:connector-curvature="0"
           id="path1099"
           style="fill:#ffcc00;fill-opacity:1;fill-rule:nonzero;stroke:none;stroke-width:1.098189"
           d="m 0.83710094,-0.21901013 c 1.00813756,0 1.82958296,-0.82144537 1.82958296,-1.83177927 0,-1.0092358 -0.8214454,-1.829583 -1.82958296,-1.829583 -1.00813753,0 -1.82958292,0.8203472 -1.82958292,1.829583 0,1.0103339 0.82144539,1.83177927 1.82958292,1.83177927 m 0,-6.95592927 c 2.82564036,0 5.12415006,2.2985096 5.12415006,5.12415 0,2.82673853 -2.2985097,5.1263464 -5.12415006,5.1263464 -2.82564034,0 -5.12415004,-2.29960787 -5.12415004,-5.1263464 0,-2.8256404 2.2985097,-5.12415 5.12415004,-5.12415" />
      </g>
      <g
         transform="matrix(0.07881215,0,0,-0.07881215,5.5028602,1.2541081)"
         id="g1101">
        <path
           inkscape:connector-curvature="0"
           id="path1103"
           style="fill:#ffcc00;fill-opacity:1;fill-rule:nonzero;stroke:none;stroke-width:1.098189"
           d="M -6.2293083e-8,1.1681056 C 1.0081375,1.1681056 1.8295829,0.34775842 1.8295829,-0.6614773 1.8295829,-1.670713 1.0081375,-2.4910602 -6.2293083e-8,-2.4910602 -1.0081376,-2.4910602 -1.829583,-1.670713 -1.829583,-0.6614773 c 0,1.00923572 0.8214454,1.8295829 1.829582937706917,1.8295829 m 0,-6.9537329 C 2.8256403,-5.7856273 5.12415,-3.4871177 5.12415,-0.6614773 5.12415,2.1641631 2.8256403,4.4626727 -6.2293083e-8,4.4626727 -2.8256404,4.4626727 -5.1241501,2.1641631 -5.1241501,-0.6614773 c 0,-2.8256404 2.2985097,-5.12415 5.124150037706917,-5.12415" />
      </g>
      <g
         transform="matrix(0.07881215,0,0,-0.07881215,8.0224219,10.268019)"
         id="g1105">
        <path
           inkscape:connector-curvature="0"
           id="path1107"
           style="fill:#ffffff;fill-opacity:1;fill-rule:nonzero;stroke:none"
           d="m 0,0 h -37.616 -4 -23.303 l -9.13,23.111 27.09,23.175 v 23.048 h -8.666 v 5.999 h 46.332 v -5.999 h -8.666 V 46.286 L 9.13,23.111 Z m -11.959,49.05 v 14.284 h 8.666 V 81.333 H -61.625 V 63.334 h 8.666 V 49.05 L -81.202,24.889 -69,-6 H 4.081 l 12.202,30.889 z" />
      </g>
    </g>
  </g>
</svg>
